HubotSans-Black.ufo
<glyph name="exclam" format="2">
  <advance width="293"/>
  <unicode hex="0021"/>
  <outline>
    <contour>
      <point x="95" y="252" type="line"/>
      <point x="201" y="252" type="line"/>
      <point x="250" y="482" type="line"/>
      <point x="250" y="729" type="line"/>
      <point x="42" y="729" type="line"/>
      <point x="42" y="482" type="line"/>
    </contour>
    <contour>
      <point x="48" y="0" type="line"/>
      <point x="245" y="0" type="line"/>
      <point x="245" y="170" type="line"/>
      <point x="48" y="170" type="line"/>
    </contour>
  </outline>
</glyph>
<glyph name="numbersign" format="2">
  <advance width="786"/>
  <unicode hex="0023"/>
  <outline>
    <contour>
      <point x="138" y="0" type="line"/>
      <point x="332" y="0" type="line"/>
      <point x="332" y="150" type="line"/>
      <point x="455" y="150" type="line"/>
      <point x="455" y="0" type="line"/>
      <point x="647" y="0" type="line"/>
      <point x="647" y="150" type="line"/>
      <point x="756" y="150" type="line"/>
      <point x="756" y="313" type="line"/>
      <point x="647" y="313" type="line"/>
      <point x="647" y="417" type="line"/>
      <point x="756" y="417" type="line"/>
      <point x="756" y="578" type="line"/>
      <point x="647" y="578" type="line"/>
      <point x="647" y="729" type="line"/>
      <point x="455" y="729" type="line"/>
      <point x="455" y="578" type="line"/>
      <point x="332" y="578" type="line"/>
      <point x="332" y="729" type="line"/>
      <point x="138" y="729" type="line"/>
      <point x="138" y="578" type="line"/>
      <point x="30" y="578" type="line"/>
      <point x="30" y="417" type="line"/>
      <point x="138" y="417" type="line"/>
      <point x="138" y="313" type="line"/>
      <point x="30" y="313" type="line"/>
      <point x="30" y="150" type="line"/>
      <point x="138" y="150" type="line"/>
    </contour>
    <contour>
      <point x="332" y="313" type="line"/>
      <point x="332" y="417" type="line"/>
      <point x="455" y="417" type="line"/>
      <point x="455" y="313" type="line"/>
    </contour>
  </outline>
</glyph>
<glyph name="percent" format="2">
  <advance width="980"/>
  <unicode hex="0025"/>
  <outline>
    <contour>
      <point x="132" y="0" type="line"/>
      <point x="300" y="0" type="line"/>
      <point x="850" y="729" type="line"/>
      <point x="681" y="729" type="line"/>
    </contour>
    <contour>
      <point x="239" y="368" type="curve" smooth="yes"/>
      <point x="367" y="368"/>
      <point x="454" y="435"/>
      <point x="454" y="550" type="curve" smooth="yes"/>
      <point x="454" y="556" type="line" smooth="yes"/>
      <point x="454" y="670"/>
      <point x="367" y="739"/>
      <point x="239" y="739" type="curve" smooth="yes"/>
      <point x="111" y="739"/>
      <point x="23" y="670"/>
      <point x="23" y="556" type="curve" smooth="yes"/>
      <point x="23" y="550" type="line" smooth="yes"/>
      <point x="23" y="435"/>
      <point x="111" y="368"/>
    </contour>
    <contour>
      <point x="239" y="488" type="curve" smooth="yes"/>
      <point x="205" y="488"/>
      <point x="183" y="502"/>
      <point x="183" y="538" type="curve" smooth="yes"/>
      <point x="183" y="568" type="line" smooth="yes"/>
      <point x="183" y="604"/>
      <point x="205" y="619"/>
      <point x="239" y="619" type="curve" smooth="yes"/>
      <point x="273" y="619"/>
      <point x="295" y="604"/>
      <point x="295" y="568" type="curve" smooth="yes"/>
      <point x="295" y="538" type="line" smooth="yes"/>
      <point x="295" y="502"/>
      <point x="273" y="488"/>
    </contour>
    <contour>
      <point x="743" y="-12" type="curve" smooth="yes"/>
      <point x="871" y="-12"/>
      <point x="957" y="57"/>
      <point x="957" y="171" type="curve" smooth="yes"/>
      <point x="957" y="177" type="line" smooth="yes"/>
      <point x="957" y="292"/>
      <point x="871" y="360"/>
      <point x="743" y="360" type="curve" smooth="yes"/>
      <point x="613" y="360"/>
      <point x="528" y="292"/>
      <point x="528" y="177" type="curve" smooth="yes"/>
      <point x="528" y="171" type="line" smooth="yes"/>
      <point x="528" y="57"/>
      <point x="613" y="-12"/>
    </contour>
    <contour>
      <point x="743" y="109" type="curve" smooth="yes"/>
      <point x="709" y="109"/>
      <point x="686" y="124"/>
      <point x="686" y="159" type="curve" smooth="yes"/>
      <point x="686" y="188" type="line" smooth="yes"/>
      <point x="686" y="224"/>
      <point x="709" y="239"/>
      <point x="743" y="239" type="curve" smooth="yes"/>
      <point x="776" y="239"/>
      <point x="798" y="224"/>
      <point x="798" y="188" type="curve" smooth="yes"/>
      <point x="798" y="159" type="line" smooth="yes"/>
      <point x="798" y="124"/>
      <point x="776" y="109"/>
    </contour>
  </outline>
</glyph>
<glyph name="ampersand" format="2">
  <advance width="910"/>
  <unicode hex="0026"/>
  <outline>
    <contour>
      <point x="272" y="-12" type="curve" smooth="yes"/>
      <point x="368" y="-12"/>
      <point x="463" y="17"/>
      <point x="517" y="78" type="curve"/>
      <point x="610" y="0" type="line"/>
      <point x="884" y="0" type="line"/>
      <point x="650" y="201" type="line"/>
      <point x="657" y="217"/>
      <point x="665" y="234"/>
      <point x="670" y="252" type="curve"/>
      <point x="801" y="252" type="line"/>
      <point x="801" y="399" type="line"/>
      <point x="548" y="399" type="line"/>
      <point x="545" y="380" type="line" smooth="yes"/>
      <point x="543" y="354"/>
      <point x="539" y="334"/>
      <point x="530" y="304" type="curve"/>
      <point x="444" y="377" type="line"/>
      <point x="538" y="415"/>
      <point x="579" y="484"/>
      <point x="579" y="548" type="curve" smooth="yes"/>
      <point x="579" y="561" type="line" smooth="yes"/>
      <point x="579" y="669"/>
      <point x="494" y="741"/>
      <point x="346" y="741" type="curve" smooth="yes"/>
      <point x="196" y="741"/>
      <point x="97" y="671"/>
      <point x="97" y="546" type="curve" smooth="yes"/>
      <point x="97" y="527" type="line" smooth="yes"/>
      <point x="97" y="483"/>
      <point x="121" y="433"/>
      <point x="162" y="396" type="curve"/>
      <point x="159" y="387" type="line"/>
      <point x="85" y="353"/>
      <point x="33" y="278"/>
      <point x="33" y="199" type="curve" smooth="yes"/>
      <point x="33" y="183" type="line" smooth="yes"/>
      <point x="33" y="68"/>
      <point x="125" y="-12"/>
    </contour>
    <contour>
      <point x="312" y="145" type="curve" smooth="yes"/>
      <point x="263" y="145"/>
      <point x="234" y="175"/>
      <point x="234" y="212" type="curve" smooth="yes"/>
      <point x="234" y="223" type="line" smooth="yes"/>
      <point x="234" y="247"/>
      <point x="246" y="272"/>
      <point x="269" y="287" type="curve"/>
      <point x="394" y="181" type="line"/>
      <point x="378" y="159"/>
      <point x="346" y="145"/>
    </contour>
    <contour>
      <point x="345" y="455" type="curve"/>
      <point x="311" y="483"/>
      <point x="293" y="509"/>
      <point x="293" y="540" type="curve" smooth="yes"/>
      <point x="293" y="558" type="line" smooth="yes"/>
      <point x="293" y="586"/>
      <point x="310" y="605"/>
      <point x="344" y="605" type="curve" smooth="yes"/>
      <point x="375" y="605"/>
      <point x="396" y="590"/>
      <point x="396" y="558" type="curve" smooth="yes"/>
      <point x="396" y="540" type="line" smooth="yes"/>
      <point x="396" y="510"/>
      <point x="378" y="484"/>
    </contour>
  </outline>
</glyph>
<glyph name="quotesingle" format="2">
  <advance width="234"/>
  <unicode hex="0027"/>
  <anchor x="-45" y="0" name="#entry"/>
  <anchor x="205" y="0" name="#exit"/>
  <outline>
    <contour>
      <point x="70" y="343" type="line"/>
      <point x="159" y="343" type="line"/>
      <point x="209" y="549" type="line"/>
      <point x="209" y="729" type="line"/>
      <point x="25" y="729" type="line"/>
      <point x="25" y="549" type="line"/>
    </contour>
  </outline>
</glyph>
<glyph name="parenleft" format="2">
  <advance width="407"/>
  <unicode hex="0028"/>
  <outline>
    <contour>
      <point x="214" y="-167" type="curve"/>
      <point x="388" y="-167" type="line"/>
      <point x="311" y="-56"/>
      <point x="258" y="136"/>
      <point x="258" y="313" type="curve" smooth="yes"/>
      <point x="258" y="493"/>
      <point x="311" y="683"/>
      <point x="388" y="793" type="curve"/>
      <point x="214" y="793" type="line"/>
      <point x="104" y="695"/>
      <point x="32" y="502"/>
      <point x="32" y="313" type="curve" smooth="yes"/>
      <point x="32" y="124"/>
      <point x="104" y="-69"/>
    </contour>
  </outline>
</glyph>
<glyph name="asterisk" format="2">
  <advance width="341"/>
  <unicode hex="002A"/>
  <outline>
    <contour>
      <point x="127" y="407" type="line"/>
      <point x="216" y="407" type="line"/>
      <point x="216" y="455" type="line"/>
      <point x="195" y="522" type="line"/>
      <point x="248" y="472" type="line"/>
      <point x="291" y="448" type="line"/>
      <point x="332" y="526" type="line"/>
      <point x="294" y="546" type="line"/>
      <point x="221" y="568" type="line"/>
      <point x="294" y="589" type="line"/>
      <point x="332" y="613" type="line"/>
      <point x="291" y="687" type="line"/>
      <point x="248" y="663" type="line"/>
      <point x="195" y="614" type="line"/>
      <point x="216" y="684" type="line"/>
      <point x="216" y="729" type="line"/>
      <point x="127" y="729" type="line"/>
      <point x="127" y="684" type="line"/>
      <point x="146" y="614" type="line"/>
      <point x="95" y="663" type="line"/>
      <point x="50" y="687" type="line"/>
      <point x="9" y="613" type="line"/>
      <point x="50" y="589" type="line"/>
      <point x="120" y="568" type="line"/>
      <point x="50" y="546" type="line"/>
      <point x="10" y="526" type="line"/>
      <point x="50" y="448" type="line"/>
      <point x="95" y="472" type="line"/>
      <point x="146" y="522" type="line"/>
      <point x="127" y="455" type="line"/>
    </contour>
  </outline>
</glyph>
<glyph name="plus" format="2">
  <advance width="721"/>
  <unicode hex="002B"/>
  <outline>
    <contour>
      <point x="268" y="108" type="line"/>
      <point x="452" y="108" type="line"/>
      <point x="454" y="621" type="line"/>
      <point x="268" y="621" type="line"/>
    </contour>
    <contour>
      <point x="105" y="277" type="line"/>
      <point x="616" y="277" type="line"/>
      <point x="616" y="454" type="line"/>
      <point x="105" y="454" type="line"/>
    </contour>
  </outline>
</glyph>
<glyph name="comma" format="2">
  <advance width="296"/>
  <unicode hex="002C"/>
  <anchor x="-7" y="0" name="#entry"/>
  <anchor x="274" y="0" name="#exit"/>
  <anchor x="148" y="545" name="top"/>
  <outline>
    <contour>
      <point x="16" y="-165" type="line"/>
      <point x="168" y="-165" type="line"/>
      <point x="264" y="6" type="line"/>
      <point x="264" y="184" type="line"/>
      <point x="32" y="184" type="line"/>
      <point x="32" y="0" type="line"/>
      <point x="145" y="0" type="line"/>
    </contour>
  </outline>
</glyph>
<glyph name="hyphen" format="2">
  <advance width="427"/>
  <unicode hex="002D"/>
  <outline>
    <contour>
      <point x="32" y="236" type="line"/>
      <point x="395" y="236" type="line"/>
      <point x="395" y="410" type="line"/>
      <point x="32" y="410" type="line"/>
    </contour>
  </outline>
</glyph>
<glyph name="period" format="2">
  <advance width="296"/>
  <unicode hex="002E"/>
  <anchor x="-2" y="0" name="#entry"/>
  <anchor x="290" y="0" name="#exit"/>
  <anchor x="148" y="184" name="_top"/>
  <anchor x="148" y="545" name="top"/>
  <outline>
    <contour>
      <point x="32" y="0" type="line"/>
      <point x="264" y="0" type="line"/>
      <point x="264" y="184" type="line"/>
      <point x="32" y="184" type="line"/>
    </contour>
  </outline>
</glyph>
<glyph name="zero" format="2">
  <advance width="824"/>
  <unicode hex="0030"/>
  <note>
zero
</note>
  <outline>
    <contour>
      <point x="411" y="-12" type="curve" smooth="yes"/>
      <point x="643" y="-12"/>
      <point x="791" y="122"/>
      <point x="791" y="357" type="curve" smooth="yes"/>
      <point x="791" y="373" type="line" smooth="yes"/>
      <point x="791" y="595"/>
      <point x="655" y="741"/>
      <point x="411" y="741" type="curve" smooth="yes"/>
      <point x="182" y="741"/>
      <point x="33" y="607"/>
      <point x="33" y="373" type="curve" smooth="yes"/>
      <point x="33" y="357" type="line" smooth="yes"/>
      <point x="33" y="135"/>
      <point x="170" y="-12"/>
    </contour>
    <contour>
      <point x="412" y="175" type="curve" smooth="yes"/>
      <point x="330" y="175"/>
      <point x="279" y="216"/>
      <point x="279" y="308" type="curve" smooth="yes"/>
      <point x="279" y="421" type="line" smooth="yes"/>
      <point x="279" y="513"/>
      <point x="330" y="554"/>
      <point x="412" y="554" type="curve" smooth="yes"/>
      <point x="495" y="554"/>
      <point x="545" y="513"/>
      <point x="545" y="421" type="curve" smooth="yes"/>
      <point x="545" y="308" type="line" smooth="yes"/>
      <point x="545" y="216"/>
      <point x="495" y="175"/>
    </contour>
    <contour>
      <point x="236" y="295" type="line"/>
      <point x="602" y="295" type="line"/>
      <point x="602" y="435" type="line"/>
      <point x="236" y="435" type="line"/>
    </contour>
  </outline>
</glyph>
<glyph name="one" format="2">
  <advance width="519"/>
  <unicode hex="0031"/>
  <note>
one
</note>
  <outline>
    <contour>
      <point x="220" y="0" type="line"/>
      <point x="465" y="0" type="line"/>
      <point x="465" y="729" type="line"/>
      <point x="263" y="729" type="line"/>
      <point x="230" y="619" type="line"/>
      <point x="31" y="619" type="line"/>
      <point x="31" y="436" type="line"/>
      <point x="220" y="436" type="line"/>
    </contour>
  </outline>
</glyph>
<glyph name="two" format="2">
  <advance width="734"/>
  <unicode hex="0032"/>
  <note>
two
</note>
  <outline>
    <contour>
      <point x="43" y="0" type="line"/>
      <point x="699" y="0" type="line"/>
      <point x="699" y="181" type="line"/>
      <point x="443" y="181" type="line"/>
      <point x="402" y="180" type="line"/>
      <point x="402" y="185" type="line"/>
      <point x="420" y="195" type="line"/>
      <point x="510" y="248" type="line" smooth="yes"/>
      <point x="631" y="319"/>
      <point x="691" y="389"/>
      <point x="691" y="501" type="curve" smooth="yes"/>
      <point x="691" y="648"/>
      <point x="563" y="741"/>
      <point x="379" y="741" type="curve" smooth="yes"/>
      <point x="180" y="741"/>
      <point x="44" y="640"/>
      <point x="30" y="479" type="curve"/>
      <point x="265" y="479" type="line"/>
      <point x="266" y="531"/>
      <point x="301" y="565"/>
      <point x="361" y="565" type="curve" smooth="yes"/>
      <point x="413" y="565"/>
      <point x="445" y="538"/>
      <point x="445" y="494" type="curve" smooth="yes"/>
      <point x="445" y="486" type="line" smooth="yes"/>
      <point x="445" y="451"/>
      <point x="421" y="424"/>
      <point x="374" y="390" type="curve" smooth="yes"/>
      <point x="43" y="159" type="line"/>
    </contour>
  </outline>
</glyph>
<glyph name="three" format="2">
  <advance width="730"/>
  <unicode hex="0033"/>
  <note>
three
</note>
  <outline>
    <contour>
      <point x="349" y="-12" type="curve" smooth="yes"/>
      <point x="554" y="-12"/>
      <point x="702" y="66"/>
      <point x="702" y="207" type="curve" smooth="yes"/>
      <point x="702" y="311"/>
      <point x="629" y="365"/>
      <point x="544" y="382" type="curve"/>
      <point x="544" y="389" type="line"/>
      <point x="617" y="410"/>
      <point x="675" y="463"/>
      <point x="675" y="543" type="curve" smooth="yes"/>
      <point x="675" y="662"/>
      <point x="565" y="741"/>
      <point x="372" y="741" type="curve" smooth="yes"/>
      <point x="174" y="741"/>
      <point x="43" y="652"/>
      <point x="37" y="513" type="curve"/>
      <point x="255" y="513" type="line"/>
      <point x="261" y="553"/>
      <point x="295" y="573"/>
      <point x="352" y="573" type="curve" smooth="yes"/>
      <point x="398" y="573"/>
      <point x="435" y="553"/>
      <point x="435" y="515" type="curve" smooth="yes"/>
      <point x="435" y="502" type="line" smooth="yes"/>
      <point x="435" y="465"/>
      <point x="397" y="444"/>
      <point x="344" y="444" type="curve" smooth="yes"/>
      <point x="282" y="444" type="line"/>
      <point x="282" y="294" type="line"/>
      <point x="357" y="294" type="line" smooth="yes"/>
      <point x="406" y="294"/>
      <point x="453" y="281"/>
      <point x="453" y="234" type="curve" smooth="yes"/>
      <point x="453" y="219" type="line" smooth="yes"/>
      <point x="453" y="181"/>
      <point x="415" y="157"/>
      <point x="356" y="157" type="curve" smooth="yes"/>
      <point x="294" y="157"/>
      <point x="259" y="179"/>
      <point x="257" y="220" type="curve"/>
      <point x="28" y="220" type="line"/>
      <point x="34" y="79"/>
      <point x="147" y="-12"/>
    </contour>
  </outline>
</glyph>
<glyph name="four" format="2">
  <advance width="796"/>
  <unicode hex="0034"/>
  <note>
four
</note>
  <outline>
    <contour>
      <point x="30" y="137" type="line"/>
      <point x="765" y="137" type="line"/>
      <point x="765" y="320" type="line"/>
      <point x="299" y="320" type="line"/>
      <point x="299" y="330" type="line"/>
      <point x="538" y="729" type="line"/>
      <point x="297" y="729" type="line"/>
      <point x="30" y="283" type="line"/>
    </contour>
    <contour>
      <point x="417" y="0" type="line"/>
      <point x="659" y="0" type="line"/>
      <point x="659" y="451" type="line"/>
      <point x="463" y="451" type="line"/>
      <point x="417" y="263" type="line"/>
    </contour>
  </outline>
</glyph>
<glyph name="five" format="2">
  <advance width="742"/>
  <unicode hex="0035"/>
  <note>
five
</note>
  <outline>
    <contour>
      <point x="361" y="-12" type="curve" smooth="yes"/>
      <point x="569" y="-12"/>
      <point x="713" y="81"/>
      <point x="713" y="246" type="curve" smooth="yes"/>
      <point x="713" y="387"/>
      <point x="614" y="476"/>
      <point x="447" y="476" type="curve" smooth="yes"/>
      <point x="389" y="476"/>
      <point x="331" y="464"/>
      <point x="295" y="436" type="curve"/>
      <point x="283" y="435" type="line"/>
      <point x="294" y="548" type="line"/>
      <point x="666" y="548" type="line"/>
      <point x="666" y="729" type="line"/>
      <point x="73" y="729" type="line"/>
      <point x="40" y="284" type="line"/>
      <point x="252" y="275" type="line"/>
      <point x="271" y="307"/>
      <point x="314" y="327"/>
      <point x="366" y="327" type="curve" smooth="yes"/>
      <point x="415" y="327"/>
      <point x="468" y="306"/>
      <point x="468" y="251" type="curve" smooth="yes"/>
      <point x="468" y="235" type="line" smooth="yes"/>
      <point x="468" y="185"/>
      <point x="426" y="157"/>
      <point x="356" y="157" type="curve" smooth="yes"/>
      <point x="305" y="157"/>
      <point x="265" y="175"/>
      <point x="258" y="202" type="curve"/>
      <point x="30" y="202" type="line"/>
      <point x="41" y="71"/>
      <point x="163" y="-12"/>
    </contour>
  </outline>
</glyph>
<glyph name="six" format="2">
  <advance width="778"/>
  <unicode hex="0036"/>
  <note>
six
</note>
  <outline>
    <contour>
      <point x="392" y="-12" type="curve" smooth="yes"/>
      <point x="601" y="-12"/>
      <point x="747" y="82"/>
      <point x="747" y="248" type="curve" smooth="yes"/>
      <point x="747" y="393"/>
      <point x="647" y="478"/>
      <point x="479" y="478" type="curve" smooth="yes"/>
      <point x="395" y="478"/>
      <point x="323" y="451"/>
      <point x="287" y="414" type="curve"/>
      <point x="274" y="414" type="line"/>
      <point x="276" y="433"/>
      <point x="277" y="452"/>
      <point x="277" y="472" type="curve" smooth="yes"/>
      <point x="277" y="543"/>
      <point x="322" y="580"/>
      <point x="410" y="580" type="curve" smooth="yes"/>
      <point x="465" y="580"/>
      <point x="510" y="559"/>
      <point x="516" y="523" type="curve"/>
      <point x="739" y="523" type="line"/>
      <point x="722" y="654"/>
      <point x="605" y="741"/>
      <point x="407" y="741" type="curve" smooth="yes"/>
      <point x="185" y="741"/>
      <point x="36" y="623"/>
      <point x="36" y="415" type="curve" smooth="yes"/>
      <point x="36" y="322" type="line" smooth="yes"/>
      <point x="36" y="118"/>
      <point x="144" y="-12"/>
    </contour>
    <contour>
      <point x="388" y="166" type="curve" smooth="yes"/>
      <point x="324" y="166"/>
      <point x="277" y="197"/>
      <point x="277" y="258" type="curve" smooth="yes"/>
      <point x="277" y="286" type="line"/>
      <point x="310" y="320"/>
      <point x="356" y="330"/>
      <point x="399" y="330" type="curve" smooth="yes"/>
      <point x="454" y="330"/>
      <point x="498" y="307"/>
      <point x="498" y="259" type="curve" smooth="yes"/>
      <point x="498" y="242" type="line" smooth="yes"/>
      <point x="498" y="195"/>
      <point x="455" y="166"/>
    </contour>
  </outline>
</glyph>
<glyph name="seven" format="2">
  <advance width="748"/>
  <unicode hex="0037"/>
  <note>
seven
</note>
  <outline>
    <contour>
      <point x="143" y="0" type="line"/>
      <point x="422" y="0" type="line"/>
      <point x="716" y="539" type="line"/>
      <point x="716" y="729" type="line"/>
      <point x="36" y="729" type="line"/>
      <point x="36" y="439" type="line"/>
      <point x="206" y="439" type="line"/>
      <point x="206" y="545" type="line"/>
      <point x="454" y="545" type="line"/>
      <point x="454" y="528" type="line"/>
    </contour>
  </outline>
</glyph>
<glyph name="eight" format="2">
  <advance width="766"/>
  <unicode hex="0038"/>
  <note>
eight
</note>
  <outline>
    <contour>
      <point x="384" y="-12" type="curve" smooth="yes"/>
      <point x="620" y="-12"/>
      <point x="737" y="69"/>
      <point x="737" y="201" type="curve" smooth="yes"/>
      <point x="737" y="298"/>
      <point x="668" y="360"/>
      <point x="576" y="383" type="curve"/>
      <point x="576" y="389" type="line"/>
      <point x="662" y="409"/>
      <point x="712" y="464"/>
      <point x="712" y="541" type="curve" smooth="yes"/>
      <point x="712" y="670"/>
      <point x="588" y="741"/>
      <point x="384" y="741" type="curve" smooth="yes"/>
      <point x="177" y="741"/>
      <point x="54" y="669"/>
      <point x="54" y="541" type="curve" smooth="yes"/>
      <point x="54" y="463"/>
      <point x="104" y="409"/>
      <point x="190" y="389" type="curve"/>
      <point x="190" y="383" type="line"/>
      <point x="97" y="359"/>
      <point x="29" y="297"/>
      <point x="29" y="200" type="curve" smooth="yes"/>
      <point x="29" y="69"/>
      <point x="148" y="-12"/>
    </contour>
    <contour>
      <point x="384" y="151" type="curve" smooth="yes"/>
      <point x="318" y="151"/>
      <point x="278" y="176"/>
      <point x="278" y="218" type="curve" smooth="yes"/>
      <point x="278" y="232" type="line" smooth="yes"/>
      <point x="278" y="273"/>
      <point x="317" y="301"/>
      <point x="384" y="301" type="curve" smooth="yes"/>
      <point x="448" y="301"/>
      <point x="486" y="273"/>
      <point x="486" y="232" type="curve" smooth="yes"/>
      <point x="486" y="218" type="line" smooth="yes"/>
      <point x="486" y="176"/>
      <point x="446" y="151"/>
    </contour>
    <contour>
      <point x="384" y="442" type="curve" smooth="yes"/>
      <point x="327" y="442"/>
      <point x="293" y="467"/>
      <point x="293" y="504" type="curve" smooth="yes"/>
      <point x="293" y="516" type="line" smooth="yes"/>
      <point x="293" y="556"/>
      <point x="327" y="578"/>
      <point x="384" y="578" type="curve" smooth="yes"/>
      <point x="440" y="578"/>
      <point x="473" y="556"/>
      <point x="473" y="516" type="curve" smooth="yes"/>
      <point x="473" y="504" type="line" smooth="yes"/>
      <point x="473" y="467"/>
      <point x="441" y="442"/>
    </contour>
  </outline>
</glyph>
<glyph name="equal" format="2">
  <advance width="721"/>
  <unicode hex="003D"/>
  <anchor x="361" y="361" name="center"/>
  <outline>
    <contour>
      <point x="86" y="402" type="line"/>
      <point x="635" y="402" type="line"/>
      <point x="635" y="581" type="line"/>
      <point x="86" y="581" type="line"/>
    </contour>
    <contour>
      <point x="86" y="148" type="line"/>
      <point x="635" y="148" type="line"/>
      <point x="635" y="327" type="line"/>
      <point x="86" y="327" type="line"/>
    </contour>
  </outline>
</glyph>
<glyph name="greater" format="2">
  <advance width="721"/>
  <unicode hex="003E"/>
  <outline>
    <contour>
      <point x="87" y="61" type="line"/>
      <point x="649" y="244" type="line"/>
      <point x="649" y="484" type="line"/>
      <point x="87" y="669" type="line"/>
      <point x="87" y="456" type="line"/>
      <point x="435" y="372" type="line"/>
      <point x="435" y="356" type="line"/>
      <point x="87" y="277" type="line"/>
    </contour>
  </outline>
</glyph>
<glyph name="question" format="2">
  <advance width="644"/>
  <unicode hex="003F"/>
  <outline>
    <contour>
      <point x="219" y="240" type="line"/>
      <point x="425" y="240" type="line"/>
      <point x="425" y="245" type="line" smooth="yes"/>
      <point x="425" y="306"/>
      <point x="616" y="359"/>
      <point x="616" y="523" type="curve" smooth="yes"/>
      <point x="616" y="653"/>
      <point x="521" y="738"/>
      <point x="320" y="738" type="curve" smooth="yes"/>
      <point x="144" y="738"/>
      <point x="25" y="659"/>
      <point x="19" y="503" type="curve"/>
      <point x="236" y="503" type="line"/>
      <point x="235" y="537"/>
      <point x="260" y="564"/>
      <point x="307" y="564" type="curve" smooth="yes"/>
      <point x="354" y="564"/>
      <point x="381" y="547"/>
      <point x="381" y="502" type="curve" smooth="yes"/>
      <point x="381" y="427"/>
      <point x="219" y="386"/>
      <point x="219" y="258" type="curve" smooth="yes"/>
    </contour>
    <contour>
      <point x="219" y="0" type="line"/>
      <point x="427" y="0" type="line"/>
      <point x="427" y="179" type="line"/>
      <point x="219" y="179" type="line"/>
    </contour>
  </outline>
</glyph>
<glyph name="at" format="2">
  <advance width="952"/>
  <unicode hex="0040"/>
  <outline>
    <contour>
      <point x="491" y="-101" type="curve" smooth="yes"/>
      <point x="615" y="-101"/>
      <point x="725" y="-59"/>
      <point x="772" y="-16" type="curve"/>
      <point x="719" y="89" type="line"/>
      <point x="671" y="57"/>
      <point x="599" y="31"/>
      <point x="504" y="31" type="curve" smooth="yes"/>
      <point x="303" y="31"/>
      <point x="174" y="123"/>
      <point x="174" y="322" type="curve" smooth="yes"/>
      <point x="174" y="477"/>
      <point x="285" y="606"/>
      <point x="489" y="606" type="curve" smooth="yes"/>
      <point x="668" y="606"/>
      <point x="788" y="508"/>
      <point x="788" y="355" type="curve" smooth="yes"/>
      <point x="788" y="279"/>
      <point x="761" y="234"/>
      <point x="709" y="234" type="curve" smooth="yes"/>
      <point x="673" y="234"/>
      <point x="650" y="259"/>
      <point x="660" y="337" type="curve" smooth="yes"/>
      <point x="674" y="504" type="line"/>
      <point x="589" y="504" type="line"/>
      <point x="573" y="471" type="line"/>
      <point x="564" y="471" type="line"/>
      <point x="547" y="495"/>
      <point x="506" y="513"/>
      <point x="454" y="513" type="curve" smooth="yes"/>
      <point x="341" y="513"/>
      <point x="266" y="427"/>
      <point x="266" y="298" type="curve" smooth="yes"/>
      <point x="266" y="188"/>
      <point x="331" y="109"/>
      <point x="438" y="109" type="curve" smooth="yes"/>
      <point x="495" y="109"/>
      <point x="541" y="130"/>
      <point x="560" y="162" type="curve"/>
      <point x="569" y="162" type="line"/>
      <point x="594" y="130"/>
      <point x="644" y="104"/>
      <point x="706" y="104" type="curve" smooth="yes"/>
      <point x="839" y="104"/>
      <point x="928" y="208"/>
      <point x="928" y="366" type="curve" smooth="yes"/>
      <point x="928" y="589"/>
      <point x="752" y="738"/>
      <point x="485" y="738" type="curve" smooth="yes"/>
      <point x="216" y="738"/>
      <point x="24" y="565"/>
      <point x="24" y="322" type="curve" smooth="yes"/>
      <point x="24" y="67"/>
      <point x="192" y="-101"/>
    </contour>
    <contour>
      <point x="466" y="231" type="curve" smooth="yes"/>
      <point x="430" y="231"/>
      <point x="405" y="259"/>
      <point x="405" y="306" type="curve" smooth="yes"/>
      <point x="405" y="355"/>
      <point x="424" y="389"/>
      <point x="475" y="389" type="curve" smooth="yes"/>
      <point x="510" y="389"/>
      <point x="534" y="364"/>
      <point x="538" y="309" type="curve"/>
      <point x="532" y="262"/>
      <point x="512" y="231"/>
    </contour>
  </outline>
</glyph>
<glyph name="A" format="2">
  <advance width="1006"/>
  <unicode hex="0041"/>
  <note>
A
</note>
  <anchor x="725" y="0" name="#exit"/>
  <anchor x="503" y="0" name="bottom"/>
  <anchor x="983" y="0" name="ogonek"/>
  <anchor x="503" y="729" name="top"/>
  <outline>
    <contour>
      <point x="23" y="0" type="line"/>
      <point x="272" y="0" type="line"/>
      <point x="472" y="504" type="line"/>
      <point x="494" y="562" type="line"/>
      <point x="504" y="562" type="line"/>
      <point x="528" y="504" type="line"/>
      <point x="725" y="0" type="line"/>
      <point x="983" y="0" type="line"/>
      <point x="675" y="729" type="line"/>
      <point x="335" y="729" type="line"/>
    </contour>
    <contour>
      <point x="311" y="134" type="line"/>
      <point x="688" y="134" type="line"/>
      <point x="620" y="311" type="line"/>
      <point x="379" y="311" type="line"/>
    </contour>
  </outline>
</glyph>
<glyph name="B" format="2">
  <advance width="887"/>
  <unicode hex="0042"/>
  <note>
B
</note>
  <anchor x="438" y="0" name="bottom"/>
  <anchor x="438" y="729" name="top"/>
  <outline>
    <contour>
      <point x="54" y="0" type="line"/>
      <point x="574" y="0" type="line" smooth="yes"/>
      <point x="747" y="0"/>
      <point x="858" y="68"/>
      <point x="858" y="197" type="curve" smooth="yes"/>
      <point x="858" y="289"/>
      <point x="795" y="360"/>
      <point x="676" y="376" type="curve"/>
      <point x="676" y="384" type="line"/>
      <point x="772" y="402"/>
      <point x="835" y="464"/>
      <point x="835" y="552" type="curve" smooth="yes"/>
      <point x="835" y="665"/>
      <point x="740" y="729"/>
      <point x="599" y="729" type="curve" smooth="yes"/>
      <point x="54" y="729" type="line"/>
    </contour>
    <contour>
      <point x="308" y="169" type="line"/>
      <point x="308" y="561" type="line"/>
      <point x="505" y="561" type="line" smooth="yes"/>
      <point x="550" y="561"/>
      <point x="574" y="542"/>
      <point x="574" y="513" type="curve" smooth="yes"/>
      <point x="574" y="502" type="line" smooth="yes"/>
      <point x="574" y="471"/>
      <point x="551" y="450"/>
      <point x="505" y="450" type="curve" smooth="yes"/>
      <point x="292" y="450" type="line"/>
      <point x="292" y="292" type="line"/>
      <point x="502" y="292" type="line" smooth="yes"/>
      <point x="541" y="292"/>
      <point x="574" y="278"/>
      <point x="574" y="238" type="curve" smooth="yes"/>
      <point x="574" y="222" type="line" smooth="yes"/>
      <point x="574" y="191"/>
      <point x="548" y="169"/>
      <point x="501" y="169" type="curve" smooth="yes"/>
    </contour>
  </outline>
</glyph>
<glyph name="C" format="2">
  <advance width="951"/>
  <unicode hex="0043"/>
  <note>
C
</note>
  <anchor x="481" y="0" name="bottom"/>
  <anchor x="489" y="729" name="top"/>
  <outline>
    <contour>
      <point x="481" y="-12" type="curve" smooth="yes"/>
      <point x="723" y="-12"/>
      <point x="901" y="96"/>
      <point x="923" y="258" type="curve"/>
      <point x="660" y="258" type="line"/>
      <point x="639" y="205"/>
      <point x="573" y="176"/>
      <point x="489" y="176" type="curve" smooth="yes"/>
      <point x="376" y="176"/>
      <point x="296" y="237"/>
      <point x="296" y="330" type="curve" smooth="yes"/>
      <point x="296" y="398" type="line" smooth="yes"/>
      <point x="296" y="491"/>
      <point x="376" y="553"/>
      <point x="489" y="553" type="curve" smooth="yes"/>
      <point x="576" y="553"/>
      <point x="641" y="523"/>
      <point x="660" y="471" type="curve"/>
      <point x="923" y="471" type="line"/>
      <point x="900" y="632"/>
      <point x="725" y="740"/>
      <point x="489" y="740" type="curve" smooth="yes"/>
      <point x="215" y="740"/>
      <point x="31" y="590"/>
      <point x="31" y="365" type="curve" smooth="yes"/>
      <point x="31" y="363" type="line" smooth="yes"/>
      <point x="31" y="139"/>
      <point x="215" y="-12"/>
    </contour>
  </outline>
</glyph>
<glyph name="D" format="2">
  <advance width="935"/>
  <unicode hex="0044"/>
  <note>
D
</note>
  <anchor x="461" y="0" name="bottom"/>
  <anchor x="224" y="365" name="center"/>
  <anchor x="461" y="729" name="top"/>
  <outline>
    <contour>
      <point x="54" y="0" type="line"/>
      <point x="473" y="0" type="line" smooth="yes"/>
      <point x="730" y="0"/>
      <point x="902" y="129"/>
      <point x="902" y="357" type="curve" smooth="yes"/>
      <point x="902" y="372" type="line" smooth="yes"/>
      <point x="902" y="602"/>
      <point x="731" y="729"/>
      <point x="473" y="729" type="curve" smooth="yes"/>
      <point x="54" y="729" type="line"/>
    </contour>
    <contour>
      <point x="308" y="168" type="line"/>
      <point x="308" y="561" type="line"/>
      <point x="287" y="539" type="line"/>
      <point x="452" y="539" type="line" smooth="yes"/>
      <point x="575" y="539"/>
      <point x="635" y="480"/>
      <point x="635" y="391" type="curve" smooth="yes"/>
      <point x="635" y="339" type="line" smooth="yes"/>
      <point x="635" y="249"/>
      <point x="576" y="190"/>
      <point x="452" y="190" type="curve" smooth="yes"/>
      <point x="287" y="190" type="line"/>
    </contour>
  </outline>
</glyph>
<glyph name="E" format="2">
  <advance width="820"/>
  <unicode hex="0045"/>
  <note>
E
</note>
  <anchor x="54" y="0" name="#entry"/>
  <anchor x="404" y="0" name="bottom"/>
  <anchor x="780" y="0" name="ogonek"/>
  <anchor x="404" y="729" name="top"/>
  <anchor x="9" y="729" name="topleft"/>
  <outline>
    <contour>
      <point x="54" y="0" type="line"/>
      <point x="780" y="0" type="line"/>
      <point x="780" y="190" type="line"/>
      <point x="308" y="190" type="line"/>
      <point x="308" y="541" type="line"/>
      <point x="780" y="541" type="line"/>
      <point x="780" y="729" type="line"/>
      <point x="54" y="729" type="line"/>
    </contour>
    <contour>
      <point x="292" y="283" type="line"/>
      <point x="635" y="283" type="line"/>
      <point x="635" y="453" type="line"/>
      <point x="292" y="453" type="line"/>
    </contour>
  </outline>
</glyph>
<glyph name="F" format="2">
  <advance width="801"/>
  <unicode hex="0046"/>
  <note>
F
</note>
  <anchor x="398" y="0" name="bottom"/>
  <anchor x="398" y="729" name="top"/>
  <outline>
    <contour>
      <point x="54" y="0" type="line"/>
      <point x="308" y="0" type="line"/>
      <point x="308" y="538" type="line"/>
      <point x="770" y="538" type="line"/>
      <point x="770" y="729" type="line"/>
      <point x="54" y="729" type="line"/>
    </contour>
    <contour>
      <point x="292" y="234" type="line"/>
      <point x="717" y="234" type="line"/>
      <point x="717" y="424" type="line"/>
      <point x="292" y="424" type="line"/>
    </contour>
  </outline>
</glyph>
<glyph name="G" format="2">
  <advance width="975"/>
  <unicode hex="0047"/>
  <note>
G
</note>
  <anchor x="490" y="0" name="bottom"/>
  <anchor x="490" y="729" name="top"/>
  <outline>
    <contour>
      <point x="450" y="-12" type="curve" smooth="yes"/>
      <point x="556" y="-12"/>
      <point x="653" y="17"/>
      <point x="712" y="69" type="curve"/>
      <point x="719" y="69" type="line"/>
      <point x="734" y="0" type="line"/>
      <point x="933" y="0" type="line"/>
      <point x="933" y="414" type="line"/>
      <point x="487" y="414" type="line"/>
      <point x="487" y="260" type="line"/>
      <point x="678" y="260" type="line"/>
      <point x="678" y="254" type="line"/>
      <point x="651" y="205"/>
      <point x="581" y="176"/>
      <point x="490" y="176" type="curve" smooth="yes"/>
      <point x="369" y="176"/>
      <point x="296" y="238"/>
      <point x="296" y="330" type="curve" smooth="yes"/>
      <point x="296" y="398" type="line" smooth="yes"/>
      <point x="296" y="491"/>
      <point x="366" y="553"/>
      <point x="492" y="553" type="curve" smooth="yes"/>
      <point x="576" y="553"/>
      <point x="640" y="524"/>
      <point x="663" y="473" type="curve"/>
      <point x="924" y="473" type="line"/>
      <point x="898" y="632"/>
      <point x="718" y="741"/>
      <point x="485" y="741" type="curve" smooth="yes"/>
      <point x="215" y="741"/>
      <point x="31" y="590"/>
      <point x="31" y="361" type="curve" smooth="yes"/>
      <point x="31" y="359" type="line" smooth="yes"/>
      <point x="31" y="140"/>
      <point x="203" y="-12"/>
    </contour>
  </outline>
</glyph>
<glyph name="H" format="2">
  <advance width="983"/>
  <unicode hex="0048"/>
  <note>
H
</note>
  <anchor x="492" y="0" name="bottom"/>
  <anchor x="492" y="600" name="center"/>
  <anchor x="492" y="729" name="top"/>
  <anchor x="9" y="729" name="topleft"/>
  <outline>
    <contour>
      <point x="54" y="0" type="line"/>
      <point x="308" y="0" type="line"/>
      <point x="308" y="729" type="line"/>
      <point x="54" y="729" type="line"/>
    </contour>
    <contour>
      <point x="675" y="0" type="line"/>
      <point x="929" y="0" type="line"/>
      <point x="929" y="729" type="line"/>
      <point x="675" y="729" type="line"/>
    </contour>
    <contour>
      <point x="292" y="276" type="line"/>
      <point x="692" y="276" type="line"/>
      <point x="692" y="468" type="line"/>
      <point x="292" y="468" type="line"/>
    </contour>
  </outline>
</glyph>
<glyph name="I" format="2">
  <advance width="782"/>
  <unicode hex="0049"/>
  <note>
I
</note>
  <anchor x="391" y="0" name="bottom"/>
  <anchor x="742" y="0" name="ogonek"/>
  <anchor x="391" y="729" name="top"/>
  <anchor x="437" y="729" name="topleft"/>
  <outline>
    <contour>
      <point x="265" y="175" type="line"/>
      <point x="519" y="175" type="line"/>
      <point x="519" y="554" type="line"/>
      <point x="265" y="554" type="line"/>
    </contour>
    <contour>
      <point x="40" y="0" type="line"/>
      <point x="742" y="0" type="line"/>
      <point x="742" y="191" type="line"/>
      <point x="40" y="191" type="line"/>
    </contour>
    <contour>
      <point x="40" y="538" type="line"/>
      <point x="742" y="538" type="line"/>
      <point x="742" y="729" type="line"/>
      <point x="40" y="729" type="line"/>
    </contour>
  </outline>
</glyph>
<glyph name="J" format="2">
  <advance width="546"/>
  <unicode hex="004A"/>
  <note>
J
</note>
  <anchor x="287" y="0" name="bottom"/>
  <anchor x="369" y="729" name="top"/>
  <outline>
    <contour>
      <point x="31" y="0" type="line"/>
      <point x="297" y="0" type="line" smooth="yes"/>
      <point x="413" y="0"/>
      <point x="496" y="55"/>
      <point x="496" y="168" type="curve" smooth="yes"/>
      <point x="496" y="729" type="line"/>
      <point x="241" y="729" type="line"/>
      <point x="241" y="191" type="line"/>
      <point x="31" y="191" type="line"/>
    </contour>
  </outline>
</glyph>
<glyph name="K" format="2">
  <advance width="953"/>
  <unicode hex="004B"/>
  <note>
K
</note>
  <anchor x="457" y="0" name="bottom"/>
  <anchor x="457" y="729" name="top"/>
  <outline>
    <contour>
      <point x="54" y="0" type="line"/>
      <point x="308" y="0" type="line"/>
      <point x="308" y="180" type="line"/>
      <point x="404" y="269" type="line"/>
      <point x="612" y="0" type="line"/>
      <point x="930" y="0" type="line"/>
      <point x="588" y="432" type="line"/>
      <point x="919" y="729" type="line"/>
      <point x="598" y="729" type="line"/>
      <point x="308" y="442" type="line"/>
      <point x="308" y="729" type="line"/>
      <point x="54" y="729" type="line"/>
    </contour>
  </outline>
</glyph>
<glyph name="L" format="2">
  <advance width="769"/>
  <unicode hex="004C"/>
  <note>
L
</note>
  <anchor x="396" y="0" name="bottom"/>
  <anchor x="182" y="365" name="center"/>
  <anchor x="182" y="729" name="top"/>
  <anchor x="348" y="729" name="topright"/>
  <outline>
    <contour>
      <point x="54" y="0" type="line"/>
      <point x="738" y="0" type="line"/>
      <point x="738" y="191" type="line"/>
      <point x="308" y="191" type="line"/>
      <point x="308" y="729" type="line"/>
      <point x="54" y="729" type="line"/>
    </contour>
  </outline>
</glyph>
<glyph name="M" format="2">
  <advance width="1174"/>
  <unicode hex="004D"/>
  <note>
M
</note>
  <anchor x="589" y="0" name="bottom"/>
  <anchor x="589" y="729" name="top"/>
  <outline>
    <contour>
      <point x="54" y="0" type="line"/>
      <point x="301" y="0" type="line"/>
      <point x="301" y="463" type="line"/>
      <point x="301" y="540" type="line"/>
      <point x="314" y="540" type="line"/>
      <point x="333" y="456" type="line"/>
      <point x="459" y="0" type="line"/>
      <point x="719" y="0" type="line"/>
      <point x="840" y="448" type="line"/>
      <point x="861" y="540" type="line"/>
      <point x="873" y="540" type="line"/>
      <point x="873" y="463" type="line"/>
      <point x="873" y="0" type="line"/>
      <point x="1120" y="0" type="line"/>
      <point x="1120" y="729" type="line"/>
      <point x="714" y="729" type="line"/>
      <point x="601" y="306" type="line"/>
      <point x="594" y="270" type="line"/>
      <point x="581" y="270" type="line"/>
      <point x="572" y="306" type="line"/>
      <point x="470" y="729" type="line"/>
      <point x="54" y="729" type="line"/>
    </contour>
  </outline>
</glyph>
<glyph name="N" format="2">
  <advance width="973"/>
  <unicode hex="004E"/>
  <note>
N
</note>
  <anchor x="485" y="0" name="bottom"/>
  <anchor x="485" y="729" name="top"/>
  <outline>
    <contour>
      <point x="54" y="0" type="line"/>
      <point x="300" y="0" type="line"/>
      <point x="300" y="463" type="line"/>
      <point x="310" y="463" type="line"/>
      <point x="330" y="421" type="line"/>
      <point x="585" y="0" type="line"/>
      <point x="919" y="0" type="line"/>
      <point x="919" y="729" type="line"/>
      <point x="672" y="729" type="line"/>
      <point x="672" y="286" type="line"/>
      <point x="661" y="286" type="line"/>
      <point x="640" y="329" type="line"/>
      <point x="401" y="729" type="line"/>
      <point x="54" y="729" type="line"/>
    </contour>
  </outline>
</glyph>
<glyph name="O" format="2">
  <advance width="987"/>
  <unicode hex="004F"/>
  <note>
O
</note>
  <anchor x="493" y="0" name="bottom"/>
  <anchor x="493" y="365" name="center"/>
  <anchor x="887" y="10" name="ogonek"/>
  <anchor x="493" y="729" name="top"/>
  <anchor x="20" y="729" name="topleft"/>
  <anchor x="684" y="709" name="topright"/>
  <outline>
    <contour>
      <point x="493" y="-12" type="curve" smooth="yes"/>
      <point x="772" y="-12"/>
      <point x="955" y="139"/>
      <point x="955" y="363" type="curve" smooth="yes"/>
      <point x="955" y="365" type="line" smooth="yes"/>
      <point x="955" y="590"/>
      <point x="772" y="740"/>
      <point x="493" y="740" type="curve" smooth="yes"/>
      <point x="215" y="740"/>
      <point x="31" y="590"/>
      <point x="31" y="365" type="curve" smooth="yes"/>
      <point x="31" y="363" type="line" smooth="yes"/>
      <point x="31" y="139"/>
      <point x="215" y="-12"/>
    </contour>
    <contour>
      <point x="493" y="177" type="curve" smooth="yes"/>
      <point x="376" y="177"/>
      <point x="296" y="238"/>
      <point x="296" y="331" type="curve" smooth="yes"/>
      <point x="296" y="398" type="line" smooth="yes"/>
      <point x="296" y="490"/>
      <point x="376" y="552"/>
      <point x="493" y="552" type="curve" smooth="yes"/>
      <point x="611" y="552"/>
      <point x="689" y="490"/>
      <point x="689" y="398" type="curve" smooth="yes"/>
      <point x="689" y="331" type="line" smooth="yes"/>
      <point x="689" y="238"/>
      <point x="612" y="177"/>
    </contour>
  </outline>
</glyph>
<glyph name="P" format="2">
  <advance width="864"/>
  <unicode hex="0050"/>
  <note>
P
</note>
  <anchor x="427" y="0" name="bottom"/>
  <anchor x="427" y="729" name="top"/>
  <outline>
    <contour>
      <point x="54" y="0" type="line"/>
      <point x="308" y="0" type="line"/>
      <point x="308" y="539" type="line"/>
      <point x="480" y="539" type="line" smooth="yes"/>
      <point x="534" y="539"/>
      <point x="567" y="515"/>
      <point x="567" y="473" type="curve" smooth="yes"/>
      <point x="567" y="450" type="line" smooth="yes"/>
      <point x="567" y="409"/>
      <point x="535" y="383"/>
      <point x="480" y="383" type="curve" smooth="yes"/>
      <point x="292" y="383" type="line"/>
      <point x="292" y="202" type="line"/>
      <point x="520" y="202" type="line" smooth="yes"/>
      <point x="711" y="202"/>
      <point x="835" y="298"/>
      <point x="835" y="465" type="curve" smooth="yes"/>
      <point x="835" y="635"/>
      <point x="710" y="729"/>
      <point x="521" y="729" type="curve" smooth="yes"/>
      <point x="54" y="729" type="line"/>
    </contour>
  </outline>
</glyph>
<glyph name="R" format="2">
  <advance width="930"/>
  <unicode hex="0052"/>
  <note>
R
</note>
  <anchor x="446" y="0" name="bottom"/>
  <anchor x="446" y="729" name="top"/>
  <outline>
    <contour>
      <point x="54" y="0" type="line"/>
      <point x="308" y="0" type="line"/>
      <point x="308" y="545" type="line"/>
      <point x="514" y="545" type="line" smooth="yes"/>
      <point x="563" y="545"/>
      <point x="590" y="523"/>
      <point x="590" y="488" type="curve" smooth="yes"/>
      <point x="590" y="471" type="line" smooth="yes"/>
      <point x="590" y="436"/>
      <point x="563" y="415"/>
      <point x="514" y="415" type="curve" smooth="yes"/>
      <point x="292" y="415" type="line"/>
      <point x="292" y="233" type="line"/>
      <point x="400" y="233" type="line"/>
      <point x="587" y="0" type="line"/>
      <point x="907" y="0" type="line"/>
      <point x="661" y="292" type="line"/>
      <point x="656" y="275" type="line"/>
      <point x="661" y="275" type="line" smooth="yes"/>
      <point x="785" y="295"/>
      <point x="866" y="373"/>
      <point x="865" y="498" type="curve" smooth="yes"/>
      <point x="864" y="633"/>
      <point x="770" y="729"/>
      <point x="573" y="729" type="curve" smooth="yes"/>
      <point x="54" y="729" type="line"/>
    </contour>
  </outline>
</glyph>
<glyph name="S" format="2">
  <advance width="848"/>
  <unicode hex="0053"/>
  <note>
S
</note>
  <anchor x="423" y="0" name="bottom"/>
  <anchor x="423" y="729" name="top"/>
  <outline>
    <contour>
      <point x="423" y="-10" type="curve" smooth="yes"/>
      <point x="674" y="-10"/>
      <point x="819" y="79"/>
      <point x="819" y="231" type="curve" smooth="yes"/>
      <point x="819" y="389"/>
      <point x="709" y="443"/>
      <point x="538" y="459" type="curve" smooth="yes"/>
      <point x="396" y="474" type="line" smooth="yes"/>
      <point x="329" y="480"/>
      <point x="311" y="500"/>
      <point x="311" y="527" type="curve" smooth="yes"/>
      <point x="311" y="559"/>
      <point x="347" y="580"/>
      <point x="413" y="580" type="curve" smooth="yes"/>
      <point x="483" y="580"/>
      <point x="531" y="564"/>
      <point x="545" y="519" type="curve"/>
      <point x="798" y="519" type="line"/>
      <point x="780" y="658"/>
      <point x="644" y="738"/>
      <point x="422" y="738" type="curve" smooth="yes"/>
      <point x="183" y="738"/>
      <point x="44" y="643"/>
      <point x="44" y="492" type="curve" smooth="yes"/>
      <point x="44" y="378"/>
      <point x="116" y="306"/>
      <point x="300" y="286" type="curve" smooth="yes"/>
      <point x="466" y="268" type="line" smooth="yes"/>
      <point x="530" y="262"/>
      <point x="552" y="244"/>
      <point x="552" y="212" type="curve" smooth="yes"/>
      <point x="552" y="173"/>
      <point x="510" y="152"/>
      <point x="431" y="152" type="curve" smooth="yes"/>
      <point x="347" y="152"/>
      <point x="289" y="176"/>
      <point x="282" y="228" type="curve"/>
      <point x="28" y="228" type="line"/>
      <point x="46" y="84"/>
      <point x="176" y="-10"/>
    </contour>
  </outline>
</glyph>
<glyph name="T" format="2">
  <advance width="876"/>
  <unicode hex="0054"/>
  <note>
T
</note>
  <anchor x="438" y="0" name="bottom"/>
  <anchor x="439" y="323" name="center"/>
  <anchor x="438" y="729" name="top"/>
  <outline>
    <contour>
      <point x="313" y="0" type="line"/>
      <point x="567" y="0" type="line"/>
      <point x="567" y="538" type="line"/>
      <point x="845" y="538" type="line"/>
      <point x="845" y="729" type="line"/>
      <point x="31" y="729" type="line"/>
      <point x="31" y="538" type="line"/>
      <point x="313" y="538" type="line"/>
    </contour>
  </outline>
</glyph>
<glyph name="U" format="2">
  <advance width="927"/>
  <unicode hex="0055"/>
  <note>
U
</note>
  <anchor x="464" y="0" name="bottom"/>
  <anchor x="619" y="7" name="ogonek"/>
  <anchor x="464" y="729" name="top"/>
  <anchor x="699" y="729" name="topright"/>
  <outline>
    <contour>
      <point x="463" y="-10" type="curve" smooth="yes"/>
      <point x="715" y="-10"/>
      <point x="882" y="100"/>
      <point x="882" y="326" type="curve" smooth="yes"/>
      <point x="882" y="729" type="line"/>
      <point x="628" y="729" type="line"/>
      <point x="628" y="316" type="line" smooth="yes"/>
      <point x="628" y="233"/>
      <point x="576" y="180"/>
      <point x="463" y="180" type="curve" smooth="yes"/>
      <point x="351" y="180"/>
      <point x="299" y="233"/>
      <point x="299" y="316" type="curve" smooth="yes"/>
      <point x="299" y="729" type="line"/>
      <point x="44" y="729" type="line"/>
      <point x="44" y="326" type="line" smooth="yes"/>
      <point x="44" y="100"/>
      <point x="211" y="-10"/>
    </contour>
  </outline>
</glyph>
<glyph name="V" format="2">
  <advance width="1013"/>
  <unicode hex="0056"/>
  <note>
V
</note>
  <anchor x="506" y="0" name="bottom"/>
  <anchor x="506" y="729" name="top"/>
  <outline>
    <contour>
      <point x="339" y="0" type="line"/>
      <point x="672" y="0" type="line"/>
      <point x="990" y="729" type="line"/>
      <point x="712" y="729" type="line"/>
      <point x="530" y="239" type="line"/>
      <point x="514" y="195" type="line"/>
      <point x="501" y="195" type="line"/>
      <point x="486" y="239" type="line"/>
      <point x="302" y="729" type="line"/>
      <point x="23" y="729" type="line"/>
    </contour>
  </outline>
</glyph>
<glyph name="W" format="2">
  <advance width="1293"/>
  <unicode hex="0057"/>
  <note>
W
</note>
  <anchor x="646" y="0" name="bottom"/>
  <anchor x="646" y="729" name="top"/>
  <outline>
    <contour>
      <point x="208" y="0" type="line"/>
      <point x="557" y="0" type="line"/>
      <point x="635" y="430" type="line"/>
      <point x="638" y="455" type="line"/>
      <point x="654" y="455" type="line"/>
      <point x="658" y="430" type="line"/>
      <point x="738" y="0" type="line"/>
      <point x="1088" y="0" type="line"/>
      <point x="1269" y="729" type="line"/>
      <point x="1012" y="729" type="line"/>
      <point x="918" y="236" type="line"/>
      <point x="910" y="195" type="line"/>
      <point x="897" y="195" type="line"/>
      <point x="889" y="240" type="line"/>
      <point x="799" y="729" type="line"/>
      <point x="493" y="729" type="line"/>
      <point x="405" y="240" type="line"/>
      <point x="395" y="195" type="line"/>
      <point x="384" y="195" type="line"/>
      <point x="376" y="236" type="line"/>
      <point x="280" y="729" type="line"/>
      <point x="24" y="729" type="line"/>
    </contour>
  </outline>
</glyph>
<glyph name="X" format="2">
  <advance width="1038"/>
  <unicode hex="0058"/>
  <note>
X
</note>
  <anchor x="517" y="0" name="bottom"/>
  <anchor x="517" y="729" name="top"/>
  <outline>
    <contour>
      <point x="23" y="0" type="line"/>
      <point x="327" y="0" type="line"/>
      <point x="508" y="229" type="line"/>
      <point x="518" y="229" type="line"/>
      <point x="699" y="0" type="line"/>
      <point x="1015" y="0" type="line"/>
      <point x="690" y="382" type="line"/>
      <point x="994" y="729" type="line"/>
      <point x="689" y="729" type="line"/>
      <point x="526" y="516" type="line"/>
      <point x="516" y="516" type="line"/>
      <point x="355" y="729" type="line"/>
      <point x="42" y="729" type="line"/>
      <point x="352" y="380" type="line"/>
    </contour>
  </outline>
</glyph>
<glyph name="Y" format="2">
  <advance width="957"/>
  <unicode hex="0059"/>
  <note>
Y
</note>
  <anchor x="478" y="0" name="bottom"/>
  <anchor x="485" y="729" name="top"/>
  <anchor x="40" y="729" name="topleft"/>
  <outline>
    <contour>
      <point x="352" y="0" type="line"/>
      <point x="605" y="0" type="line"/>
      <point x="605" y="274" type="line"/>
      <point x="946" y="729" type="line"/>
      <point x="657" y="729" type="line"/>
      <point x="522" y="528" type="line"/>
      <point x="488" y="473" type="line"/>
      <point x="476" y="473" type="line"/>
      <point x="442" y="528" type="line"/>
      <point x="313" y="729" type="line"/>
      <point x="10" y="729" type="line"/>
      <point x="352" y="274" type="line"/>
    </contour>
  </outline>
</glyph>
<glyph name="Z" format="2">
  <advance width="844"/>
  <unicode hex="005A"/>
  <note>
Z
</note>
  <anchor x="419" y="0" name="bottom"/>
  <anchor x="419" y="365" name="center"/>
  <anchor x="419" y="729" name="top"/>
  <outline>
    <contour>
      <point x="33" y="0" type="line"/>
      <point x="810" y="0" type="line"/>
      <point x="810" y="190" type="line"/>
      <point x="386" y="190" type="line"/>
      <point x="787" y="553" type="line"/>
      <point x="787" y="729" type="line"/>
      <point x="54" y="729" type="line"/>
      <point x="54" y="539" type="line"/>
      <point x="434" y="539" type="line"/>
      <point x="33" y="179" type="line"/>
    </contour>
  </outline>
</glyph>
<glyph name="bracketleft" format="2">
  <advance width="421"/>
  <unicode hex="005B"/>
  <outline>
    <contour>
      <point x="54" y="-167" type="line"/>
      <point x="388" y="-167" type="line"/>
      <point x="388" y="-8" type="line"/>
      <point x="251" y="-8" type="line"/>
      <point x="251" y="632" type="line"/>
      <point x="388" y="632" type="line"/>
      <point x="388" y="791" type="line"/>
      <point x="54" y="791" type="line"/>
    </contour>
  </outline>
</glyph>
<glyph name="asciicircum" format="2">
  <advance width="721"/>
  <unicode hex="005E"/>
  <outline>
    <contour>
      <point x="90" y="466" type="line"/>
      <point x="276" y="466" type="line"/>
      <point x="366" y="577" type="line"/>
      <point x="452" y="466" type="line"/>
      <point x="638" y="466" type="line"/>
      <point x="465" y="729" type="line"/>
      <point x="264" y="729" type="line"/>
    </contour>
  </outline>
</glyph>
<glyph name="underscore" format="2">
  <advance width="428"/>
  <unicode hex="005F"/>
  <outline>
    <contour>
      <point x="-1" y="-166" type="line"/>
      <point x="429" y="-166" type="line"/>
      <point x="429" y="0" type="line"/>
      <point x="-1" y="0" type="line"/>
    </contour>
  </outline>
</glyph>
<glyph name="a" format="2">
  <advance width="779"/>
  <unicode hex="0061"/>
  <note>
a
</note>
  <anchor x="392" y="0" name="bottom"/>
  <anchor x="735" y="0" name="ogonek"/>
  <anchor x="393" y="545" name="top"/>
  <outline>
    <contour>
      <point x="309" y="-10" type="curve" smooth="yes"/>
      <point x="391" y="-10"/>
      <point x="459" y="18"/>
      <point x="490" y="64" type="curve"/>
      <point x="497" y="64" type="line"/>
      <point x="523" y="0" type="line"/>
      <point x="734" y="0" type="line"/>
      <point x="734" y="545" type="line"/>
      <point x="523" y="545" type="line"/>
      <point x="497" y="483" type="line"/>
      <point x="490" y="483" type="line"/>
      <point x="459" y="527"/>
      <point x="392" y="555"/>
      <point x="309" y="555" type="curve" smooth="yes"/>
      <point x="141" y="555"/>
      <point x="25" y="445"/>
      <point x="25" y="282" type="curve" smooth="yes"/>
      <point x="25" y="265" type="line" smooth="yes"/>
      <point x="25" y="100"/>
      <point x="141" y="-10"/>
    </contour>
    <contour>
      <point x="388" y="153" type="curve" smooth="yes"/>
      <point x="317" y="153"/>
      <point x="272" y="191"/>
      <point x="272" y="256" type="curve" smooth="yes"/>
      <point x="272" y="289" type="line" smooth="yes"/>
      <point x="272" y="354"/>
      <point x="317" y="393"/>
      <point x="388" y="393" type="curve" smooth="yes"/>
      <point x="434" y="393"/>
      <point x="475" y="374"/>
      <point x="497" y="347" type="curve"/>
      <point x="497" y="199" type="line"/>
      <point x="475" y="171"/>
      <point x="434" y="153"/>
    </contour>
  </outline>
</glyph>
<glyph name="b" format="2">
  <advance width="779"/>
  <unicode hex="0062"/>
  <note>
b
</note>
  <anchor x="390" y="0" name="bottom"/>
  <anchor x="390" y="551" name="top"/>
  <outline>
    <contour>
      <point x="470" y="-10" type="curve" smooth="yes"/>
      <point x="638" y="-10"/>
      <point x="754" y="100"/>
      <point x="754" y="265" type="curve" smooth="yes"/>
      <point x="754" y="283" type="line" smooth="yes"/>
      <point x="754" y="445"/>
      <point x="638" y="555"/>
      <point x="470" y="555" type="curve" smooth="yes"/>
      <point x="386" y="555"/>
      <point x="319" y="526"/>
      <point x="288" y="483" type="curve"/>
      <point x="281" y="483" type="line"/>
      <point x="281" y="729" type="line"/>
      <point x="45" y="729" type="line"/>
      <point x="45" y="0" type="line"/>
      <point x="256" y="0" type="line"/>
      <point x="281" y="64" type="line"/>
      <point x="288" y="64" type="line"/>
      <point x="319" y="18"/>
      <point x="387" y="-10"/>
    </contour>
    <contour>
      <point x="391" y="152" type="curve" smooth="yes"/>
      <point x="344" y="152"/>
      <point x="304" y="172"/>
      <point x="281" y="199" type="curve"/>
      <point x="281" y="347" type="line"/>
      <point x="304" y="375"/>
      <point x="344" y="393"/>
      <point x="391" y="393" type="curve" smooth="yes"/>
      <point x="462" y="393"/>
      <point x="507" y="354"/>
      <point x="507" y="289" type="curve" smooth="yes"/>
      <point x="507" y="256" type="line" smooth="yes"/>
      <point x="507" y="191"/>
      <point x="462" y="152"/>
    </contour>
  </outline>
</glyph>
<glyph name="c" format="2">
  <advance width="748"/>
  <unicode hex="0063"/>
  <note>
c
</note>
  <anchor x="374" y="0" name="bottom"/>
  <anchor x="374" y="545" name="top"/>
  <outline>
    <contour>
      <point x="380" y="-12" type="curve" smooth="yes"/>
      <point x="577" y="-12"/>
      <point x="715" y="81"/>
      <point x="727" y="211" type="curve"/>
      <point x="480" y="211" type="line"/>
      <point x="476" y="175"/>
      <point x="438" y="151"/>
      <point x="384" y="151" type="curve" smooth="yes"/>
      <point x="316" y="151"/>
      <point x="271" y="187"/>
      <point x="271" y="240" type="curve" smooth="yes"/>
      <point x="271" y="306" type="line" smooth="yes"/>
      <point x="271" y="360"/>
      <point x="315" y="395"/>
      <point x="382" y="395" type="curve" smooth="yes"/>
      <point x="440" y="395"/>
      <point x="476" y="369"/>
      <point x="481" y="336" type="curve"/>
      <point x="723" y="336" type="line"/>
      <point x="714" y="468"/>
      <point x="581" y="557"/>
      <point x="380" y="557" type="curve" smooth="yes"/>
      <point x="162" y="557"/>
      <point x="24" y="447"/>
      <point x="24" y="279" type="curve" smooth="yes"/>
      <point x="24" y="267" type="line" smooth="yes"/>
      <point x="24" y="97"/>
      <point x="163" y="-12"/>
    </contour>
  </outline>
</glyph>
<glyph name="e" format="2">
  <advance width="753"/>
  <unicode hex="0065"/>
  <note>
e
</note>
  <anchor x="33" y="0" name="#entry"/>
  <anchor x="379" y="0" name="bottom"/>
  <anchor x="605" y="0" name="ogonek"/>
  <anchor x="379" y="545" name="top"/>
  <outline>
    <contour>
      <point x="381" y="-12" type="curve" smooth="yes"/>
      <point x="561" y="-12"/>
      <point x="697" y="64"/>
      <point x="722" y="173" type="curve"/>
      <point x="489" y="173" type="line"/>
      <point x="477" y="145"/>
      <point x="436" y="130"/>
      <point x="385" y="130" type="curve" smooth="yes"/>
      <point x="315" y="130"/>
      <point x="269" y="163"/>
      <point x="269" y="214" type="curve" smooth="yes"/>
      <point x="269" y="333" type="line" smooth="yes"/>
      <point x="269" y="384"/>
      <point x="312" y="416"/>
      <point x="380" y="416" type="curve" smooth="yes"/>
      <point x="445" y="416"/>
      <point x="488" y="385"/>
      <point x="488" y="338" type="curve" smooth="yes"/>
      <point x="488" y="319" type="line"/>
      <point x="502" y="335" type="line"/>
      <point x="225" y="335" type="line"/>
      <point x="225" y="219" type="line"/>
      <point x="729" y="219" type="line"/>
      <point x="729" y="283" type="line" smooth="yes"/>
      <point x="729" y="447"/>
      <point x="592" y="557"/>
      <point x="381" y="557" type="curve" smooth="yes"/>
      <point x="163" y="557"/>
      <point x="24" y="447"/>
      <point x="24" y="279" type="curve" smooth="yes"/>
      <point x="24" y="267" type="line" smooth="yes"/>
      <point x="24" y="97"/>
      <point x="163" y="-12"/>
    </contour>
  </outline>
</glyph>
<glyph name="f" format="2">
  <advance width="502"/>
  <unicode hex="0066"/>
  <note>
f
</note>
  <anchor x="254" y="0" name="bottom"/>
  <anchor x="254" y="800" name="top"/>
  <outline>
    <contour>
      <point x="116" y="0" type="line"/>
      <point x="352" y="0" type="line"/>
      <point x="352" y="383" type="line"/>
      <point x="479" y="383" type="line"/>
      <point x="479" y="545" type="line"/>
      <point x="352" y="545" type="line"/>
      <point x="352" y="598" type="line"/>
      <point x="491" y="598" type="line"/>
      <point x="491" y="729" type="line"/>
      <point x="272" y="729" type="line" smooth="yes"/>
      <point x="179" y="729"/>
      <point x="116" y="685"/>
      <point x="116" y="604" type="curve" smooth="yes"/>
      <point x="116" y="545" type="line"/>
      <point x="24" y="545" type="line"/>
      <point x="24" y="383" type="line"/>
      <point x="116" y="383" type="line"/>
    </contour>
  </outline>
</glyph>
<glyph name="g" format="2">
  <advance width="760"/>
  <unicode hex="0067"/>
  <note>
g
</note>
  <anchor x="383" y="-200" name="bottom"/>
  <anchor x="383" y="545" name="top"/>
  <outline>
    <contour>
      <point x="360" y="-177" type="curve" smooth="yes"/>
      <point x="574" y="-177"/>
      <point x="714" y="-98"/>
      <point x="714" y="70" type="curve" smooth="yes"/>
      <point x="714" y="545" type="line"/>
      <point x="502" y="545" type="line"/>
      <point x="483" y="491" type="line"/>
      <point x="473" y="491" type="line"/>
      <point x="439" y="532"/>
      <point x="372" y="555"/>
      <point x="298" y="555" type="curve" smooth="yes"/>
      <point x="141" y="555"/>
      <point x="32" y="456"/>
      <point x="32" y="306" type="curve" smooth="yes"/>
      <point x="32" y="286" type="line" smooth="yes"/>
      <point x="32" y="134"/>
      <point x="136" y="36"/>
      <point x="289" y="36" type="curve" smooth="yes"/>
      <point x="365" y="36"/>
      <point x="437" y="62"/>
      <point x="470" y="106" type="curve"/>
      <point x="478" y="106" type="line"/>
      <point x="478" y="46" type="line" smooth="yes"/>
      <point x="478" y="-7"/>
      <point x="440" y="-37"/>
      <point x="364" y="-37" type="curve" smooth="yes"/>
      <point x="315" y="-37"/>
      <point x="282" y="-26"/>
      <point x="272" y="0" type="curve"/>
      <point x="41" y="0" type="line"/>
      <point x="62" y="-111"/>
      <point x="180" y="-177"/>
    </contour>
    <contour>
      <point x="379" y="193" type="curve" smooth="yes"/>
      <point x="319" y="193"/>
      <point x="278" y="226"/>
      <point x="278" y="283" type="curve" smooth="yes"/>
      <point x="278" y="310" type="line" smooth="yes"/>
      <point x="278" y="366"/>
      <point x="319" y="397"/>
      <point x="379" y="397" type="curve" smooth="yes"/>
      <point x="422" y="397"/>
      <point x="459" y="381"/>
      <point x="478" y="351" type="curve"/>
      <point x="478" y="240" type="line"/>
      <point x="459" y="210"/>
      <point x="421" y="193"/>
    </contour>
  </outline>
</glyph>
<glyph name="h" format="2">
  <advance width="768"/>
  <unicode hex="0068"/>
  <note>
h
</note>
  <anchor x="387" y="0" name="bottom"/>
  <anchor x="193" y="629" name="center"/>
  <anchor x="163" y="729" name="top"/>
  <outline>
    <contour>
      <point x="45" y="0" type="line"/>
      <point x="281" y="0" type="line"/>
      <point x="281" y="338" type="line"/>
      <point x="310" y="370"/>
      <point x="349" y="389"/>
      <point x="397" y="389" type="curve" smooth="yes"/>
      <point x="465" y="389"/>
      <point x="493" y="353"/>
      <point x="493" y="294" type="curve" smooth="yes"/>
      <point x="493" y="0" type="line"/>
      <point x="730" y="0" type="line"/>
      <point x="730" y="336" type="line" smooth="yes"/>
      <point x="730" y="477"/>
      <point x="644" y="555"/>
      <point x="489" y="555" type="curve" smooth="yes"/>
      <point x="408" y="555"/>
      <point x="340" y="532"/>
      <point x="287" y="481" type="curve"/>
      <point x="281" y="481" type="line"/>
      <point x="281" y="729" type="line"/>
      <point x="45" y="729" type="line"/>
    </contour>
  </outline>
</glyph>
<glyph name="k" format="2">
  <advance width="807"/>
  <unicode hex="006B"/>
  <note>
k
</note>
  <anchor x="395" y="0" name="bottom"/>
  <anchor x="395" y="800" name="top"/>
  <outline>
    <contour>
      <point x="45" y="0" type="line"/>
      <point x="281" y="0" type="line"/>
      <point x="281" y="729" type="line"/>
      <point x="45" y="729" type="line"/>
    </contour>
    <contour>
      <point x="514" y="0" type="line"/>
      <point x="792" y="0" type="line"/>
      <point x="515" y="348" type="line"/>
      <point x="346" y="222" type="line"/>
    </contour>
    <contour>
      <point x="270" y="136" type="line"/>
      <point x="430" y="269" type="line"/>
      <point x="438" y="265" type="line"/>
      <point x="788" y="545" type="line"/>
      <point x="500" y="545" type="line"/>
      <point x="270" y="348" type="line"/>
    </contour>
  </outline>
</glyph>
<glyph name="l" format="2">
  <advance width="326"/>
  <unicode hex="006C"/>
  <note>
l
</note>
  <anchor x="163" y="0" name="bottom"/>
  <anchor x="163" y="365" name="center"/>
  <anchor x="163" y="729" name="top"/>
  <anchor x="279" y="729" name="topright"/>
  <outline>
    <contour>
      <point x="45" y="0" type="line"/>
      <point x="281" y="0" type="line"/>
      <point x="281" y="729" type="line"/>
      <point x="45" y="729" type="line"/>
    </contour>
  </outline>
</glyph>
<glyph name="m" format="2">
  <advance width="1196"/>
  <unicode hex="006D"/>
  <note>
m
</note>
  <anchor x="601" y="0" name="bottom"/>
  <anchor x="601" y="545" name="top"/>
  <outline>
    <contour>
      <point x="45" y="0" type="line"/>
      <point x="281" y="0" type="line"/>
      <point x="281" y="332" type="line"/>
      <point x="310" y="369"/>
      <point x="350" y="389"/>
      <point x="393" y="389" type="curve" smooth="yes"/>
      <point x="457" y="389"/>
      <point x="485" y="353"/>
      <point x="485" y="294" type="curve" smooth="yes"/>
      <point x="485" y="0" type="line"/>
      <point x="720" y="0" type="line"/>
      <point x="720" y="304" type="line" smooth="yes"/>
      <point x="720" y="313"/>
      <point x="720" y="323"/>
      <point x="720" y="333" type="curve"/>
      <point x="749" y="370"/>
      <point x="787" y="389"/>
      <point x="831" y="389" type="curve" smooth="yes"/>
      <point x="894" y="389"/>
      <point x="922" y="353"/>
      <point x="922" y="294" type="curve" smooth="yes"/>
      <point x="922" y="0" type="line"/>
      <point x="1158" y="0" type="line"/>
      <point x="1158" y="325" type="line" smooth="yes"/>
      <point x="1158" y="476"/>
      <point x="1073" y="555"/>
      <point x="926" y="555" type="curve" smooth="yes"/>
      <point x="837" y="555"/>
      <point x="749" y="521"/>
      <point x="701" y="459" type="curve"/>
      <point x="690" y="459" type="line"/>
      <point x="653" y="522"/>
      <point x="581" y="555"/>
      <point x="487" y="555" type="curve" smooth="yes"/>
      <point x="410" y="555"/>
      <point x="340" y="532"/>
      <point x="287" y="481" type="curve"/>
      <point x="281" y="481" type="line"/>
      <point x="251" y="545" type="line"/>
      <point x="45" y="545" type="line"/>
    </contour>
  </outline>
</glyph>
<glyph name="n" format="2">
  <advance width="768"/>
  <unicode hex="006E"/>
  <note>
n
</note>
  <anchor x="385" y="0" name="bottom"/>
  <anchor x="385" y="545" name="top"/>
  <outline>
    <contour>
      <point x="45" y="0" type="line"/>
      <point x="281" y="0" type="line"/>
      <point x="281" y="338" type="line"/>
      <point x="310" y="370"/>
      <point x="349" y="389"/>
      <point x="397" y="389" type="curve" smooth="yes"/>
      <point x="465" y="389"/>
      <point x="493" y="353"/>
      <point x="493" y="294" type="curve" smooth="yes"/>
      <point x="493" y="0" type="line"/>
      <point x="730" y="0" type="line"/>
      <point x="730" y="336" type="line" smooth="yes"/>
      <point x="730" y="477"/>
      <point x="644" y="555"/>
      <point x="489" y="555" type="curve" smooth="yes"/>
      <point x="408" y="555"/>
      <point x="340" y="532"/>
      <point x="287" y="481" type="curve"/>
      <point x="281" y="481" type="line"/>
      <point x="251" y="545" type="line"/>
      <point x="45" y="545" type="line"/>
    </contour>
  </outline>
</glyph>
<glyph name="o" format="2">
  <advance width="767"/>
  <unicode hex="006F"/>
  <note>
o
</note>
  <anchor x="497" y="0" name="#exit"/>
  <anchor x="384" y="0" name="bottom"/>
  <anchor x="384" y="273" name="center"/>
  <anchor x="683" y="10" name="ogonek"/>
  <anchor x="384" y="545" name="top"/>
  <anchor x="525" y="517" name="topright"/>
  <outline>
    <contour>
      <point x="384" y="-12" type="curve" smooth="yes"/>
      <point x="605" y="-12"/>
      <point x="743" y="97"/>
      <point x="743" y="267" type="curve" smooth="yes"/>
      <point x="743" y="279" type="line" smooth="yes"/>
      <point x="743" y="447"/>
      <point x="605" y="557"/>
      <point x="384" y="557" type="curve" smooth="yes"/>
      <point x="163" y="557"/>
      <point x="24" y="447"/>
      <point x="24" y="279" type="curve" smooth="yes"/>
      <point x="24" y="267" type="line" smooth="yes"/>
      <point x="24" y="97"/>
      <point x="163" y="-12"/>
    </contour>
    <contour>
      <point x="384" y="151" type="curve" smooth="yes"/>
      <point x="316" y="151"/>
      <point x="271" y="187"/>
      <point x="271" y="240" type="curve" smooth="yes"/>
      <point x="271" y="306" type="line" smooth="yes"/>
      <point x="271" y="360"/>
      <point x="316" y="395"/>
      <point x="384" y="395" type="curve" smooth="yes"/>
      <point x="451" y="395"/>
      <point x="497" y="360"/>
      <point x="497" y="306" type="curve" smooth="yes"/>
      <point x="497" y="240" type="line" smooth="yes"/>
      <point x="497" y="187"/>
      <point x="451" y="151"/>
    </contour>
  </outline>
</glyph>
<glyph name="p" format="2">
  <advance width="779"/>
  <unicode hex="0070"/>
  <note>
p
</note>
  <anchor x="386" y="0" name="bottom"/>
  <anchor x="386" y="545" name="top"/>
  <outline>
    <contour>
      <point x="45" y="-167" type="line"/>
      <point x="281" y="-167" type="line"/>
      <point x="281" y="62" type="line"/>
      <point x="287" y="62" type="line"/>
      <point x="320" y="20"/>
      <point x="387" y="-10"/>
      <point x="473" y="-10" type="curve" smooth="yes"/>
      <point x="640" y="-10"/>
      <point x="754" y="99"/>
      <point x="754" y="263" type="curve" smooth="yes"/>
      <point x="754" y="282" type="line" smooth="yes"/>
      <point x="754" y="445"/>
      <point x="640" y="555"/>
      <point x="473" y="555" type="curve" smooth="yes"/>
      <point x="388" y="555"/>
      <point x="320" y="528"/>
      <point x="287" y="482" type="curve"/>
      <point x="281" y="482" type="line"/>
      <point x="257" y="545" type="line"/>
      <point x="45" y="545" type="line"/>
    </contour>
    <contour>
      <point x="391" y="152" type="curve" smooth="yes"/>
      <point x="344" y="152"/>
      <point x="305" y="172"/>
      <point x="281" y="200" type="curve"/>
      <point x="281" y="345" type="line"/>
      <point x="305" y="375"/>
      <point x="344" y="393"/>
      <point x="391" y="393" type="curve" smooth="yes"/>
      <point x="463" y="393"/>
      <point x="508" y="355"/>
      <point x="508" y="289" type="curve" smooth="yes"/>
      <point x="508" y="256" type="line" smooth="yes"/>
      <point x="508" y="191"/>
      <point x="463" y="152"/>
    </contour>
  </outline>
</glyph>
<glyph name="q" format="2">
  <advance width="779"/>
  <unicode hex="0071"/>
  <note>
q
</note>
  <anchor x="393" y="0" name="bottom"/>
  <anchor x="393" y="545" name="top"/>
  <outline>
    <contour>
      <point x="497" y="-167" type="line"/>
      <point x="734" y="-167" type="line"/>
      <point x="734" y="545" type="line"/>
      <point x="524" y="545" type="line"/>
      <point x="497" y="483" type="line"/>
      <point x="491" y="483" type="line"/>
      <point x="461" y="527"/>
      <point x="392" y="555"/>
      <point x="309" y="555" type="curve" smooth="yes"/>
      <point x="141" y="555"/>
      <point x="25" y="445"/>
      <point x="25" y="282" type="curve" smooth="yes"/>
      <point x="25" y="265" type="line" smooth="yes"/>
      <point x="25" y="100"/>
      <point x="141" y="-10"/>
      <point x="309" y="-10" type="curve" smooth="yes"/>
      <point x="391" y="-10"/>
      <point x="461" y="18"/>
      <point x="491" y="64" type="curve"/>
      <point x="497" y="64" type="line"/>
    </contour>
    <contour>
      <point x="389" y="153" type="curve" smooth="yes"/>
      <point x="317" y="153"/>
      <point x="272" y="191"/>
      <point x="272" y="256" type="curve" smooth="yes"/>
      <point x="272" y="289" type="line" smooth="yes"/>
      <point x="272" y="354"/>
      <point x="317" y="393"/>
      <point x="389" y="393" type="curve" smooth="yes"/>
      <point x="437" y="393"/>
      <point x="475" y="374"/>
      <point x="497" y="346" type="curve"/>
      <point x="497" y="200" type="line"/>
      <point x="475" y="171"/>
      <point x="437" y="153"/>
    </contour>
  </outline>
</glyph>
<glyph name="r" format="2">
  <advance width="494"/>
  <unicode hex="0072"/>
  <note>
r
</note>
  <anchor x="163" y="0" name="bottom"/>
  <anchor x="239" y="545" name="top"/>
  <outline>
    <contour>
      <point x="45" y="0" type="line"/>
      <point x="281" y="0" type="line"/>
      <point x="281" y="306" type="line"/>
      <point x="300" y="334"/>
      <point x="324" y="353"/>
      <point x="379" y="353" type="curve" smooth="yes"/>
      <point x="471" y="353" type="line"/>
      <point x="462" y="555" type="line"/>
      <point x="411" y="555" type="line" smooth="yes"/>
      <point x="346" y="555"/>
      <point x="309" y="531"/>
      <point x="283" y="476" type="curve"/>
      <point x="278" y="476" type="line"/>
      <point x="258" y="545" type="line"/>
      <point x="45" y="545" type="line"/>
    </contour>
  </outline>
</glyph>
<glyph name="s" format="2">
  <advance width="698"/>
  <unicode hex="0073"/>
  <note>
s
</note>
  <anchor x="349" y="0" name="bottom"/>
  <anchor x="349" y="545" name="top"/>
  <outline>
    <contour>
      <point x="345" y="-10" type="curve" smooth="yes"/>
      <point x="542" y="-10"/>
      <point x="676" y="46"/>
      <point x="676" y="174" type="curve" smooth="yes"/>
      <point x="676" y="298"/>
      <point x="574" y="333"/>
      <point x="458" y="348" type="curve" smooth="yes"/>
      <point x="344" y="360" type="line" smooth="yes"/>
      <point x="295" y="366"/>
      <point x="274" y="375"/>
      <point x="274" y="399" type="curve" smooth="yes"/>
      <point x="274" y="422"/>
      <point x="296" y="437"/>
      <point x="344" y="437" type="curve" smooth="yes"/>
      <point x="382" y="437"/>
      <point x="424" y="425"/>
      <point x="428" y="385" type="curve"/>
      <point x="659" y="385" type="line"/>
      <point x="642" y="500"/>
      <point x="519" y="555"/>
      <point x="343" y="555" type="curve" smooth="yes"/>
      <point x="174" y="555"/>
      <point x="37" y="497"/>
      <point x="37" y="367" type="curve" smooth="yes"/>
      <point x="37" y="284"/>
      <point x="84" y="225"/>
      <point x="242" y="206" type="curve" smooth="yes"/>
      <point x="357" y="192" type="line" smooth="yes"/>
      <point x="402" y="187"/>
      <point x="427" y="178"/>
      <point x="427" y="151" type="curve" smooth="yes"/>
      <point x="427" y="125"/>
      <point x="404" y="109"/>
      <point x="349" y="109" type="curve" smooth="yes"/>
      <point x="297" y="109"/>
      <point x="264" y="129"/>
      <point x="261" y="165" type="curve"/>
      <point x="19" y="165" type="line"/>
      <point x="35" y="61"/>
      <point x="129" y="-10"/>
    </contour>
  </outline>
</glyph>
<glyph name="t" format="2">
  <advance width="505"/>
  <unicode hex="0074"/>
  <note>
t
</note>
  <anchor x="306" y="0" name="bottom"/>
  <anchor x="247" y="279" name="center"/>
  <anchor x="258" y="545" name="top"/>
  <anchor x="382" y="662" name="topright"/>
  <outline>
    <contour>
      <point x="258" y="0" type="curve" smooth="yes"/>
      <point x="470" y="0" type="line"/>
      <point x="470" y="176" type="line"/>
      <point x="357" y="176" type="line"/>
      <point x="357" y="687" type="line"/>
      <point x="121" y="687" type="line"/>
      <point x="121" y="122" type="line" smooth="yes"/>
      <point x="121" y="39"/>
      <point x="174" y="0"/>
    </contour>
    <contour>
      <point x="24" y="383" type="line"/>
      <point x="470" y="383" type="line"/>
      <point x="470" y="545" type="line"/>
      <point x="24" y="545" type="line"/>
    </contour>
  </outline>
</glyph>
<glyph name="v" format="2">
  <advance width="786"/>
  <unicode hex="0076"/>
  <note>
v
</note>
  <anchor x="392" y="0" name="bottom"/>
  <anchor x="392" y="545" name="top"/>
  <outline>
    <contour>
      <point x="246" y="0" type="line"/>
      <point x="541" y="0" type="line"/>
      <point x="771" y="545" type="line"/>
      <point x="528" y="545" type="line"/>
      <point x="410" y="212" type="line"/>
      <point x="397" y="177" type="line"/>
      <point x="390" y="177" type="line"/>
      <point x="376" y="212" type="line"/>
      <point x="259" y="545" type="line"/>
      <point x="15" y="545" type="line"/>
    </contour>
  </outline>
</glyph>
<glyph name="w" format="2">
  <advance width="1068"/>
  <unicode hex="0077"/>
  <note>
w
</note>
  <anchor x="533" y="0" name="bottom"/>
  <anchor x="533" y="545" name="top"/>
  <outline>
    <contour>
      <point x="186" y="0" type="line"/>
      <point x="465" y="0" type="line"/>
      <point x="514" y="219" type="line"/>
      <point x="528" y="297" type="line"/>
      <point x="534" y="297" type="line"/>
      <point x="546" y="219" type="line"/>
      <point x="595" y="0" type="line"/>
      <point x="881" y="0" type="line"/>
      <point x="1052" y="545" type="line"/>
      <point x="823" y="545" type="line"/>
      <point x="751" y="265" type="line"/>
      <point x="734" y="188" type="line"/>
      <point x="730" y="188" type="line"/>
      <point x="716" y="265" type="line"/>
      <point x="663" y="545" type="line"/>
      <point x="409" y="545" type="line"/>
      <point x="350" y="265" type="line"/>
      <point x="336" y="188" type="line"/>
      <point x="330" y="188" type="line"/>
      <point x="316" y="265" type="line"/>
      <point x="247" y="545" type="line"/>
      <point x="16" y="545" type="line"/>
    </contour>
  </outline>
</glyph>
<glyph name="x" format="2">
  <advance width="834"/>
  <unicode hex="0078"/>
  <note>
x
</note>
  <anchor x="417" y="0" name="bottom"/>
  <anchor x="417" y="545" name="top"/>
  <outline>
    <contour>
      <point x="14" y="0" type="line"/>
      <point x="293" y="0" type="line"/>
      <point x="413" y="147" type="line"/>
      <point x="421" y="147" type="line"/>
      <point x="540" y="0" type="line"/>
      <point x="820" y="0" type="line"/>
      <point x="570" y="288" type="line"/>
      <point x="802" y="545" type="line"/>
      <point x="523" y="545" type="line"/>
      <point x="420" y="414" type="line"/>
      <point x="414" y="414" type="line"/>
      <point x="309" y="545" type="line"/>
      <point x="33" y="545" type="line"/>
      <point x="259" y="287" type="line"/>
    </contour>
  </outline>
</glyph>
<glyph name="y" format="2">
  <advance width="779"/>
  <unicode hex="0079"/>
  <note>
y
</note>
  <anchor x="646" y="0" name="bottom"/>
  <anchor x="390" y="545" name="top"/>
  <outline>
    <contour>
      <point x="71" y="-167" type="line"/>
      <point x="364" y="-167" type="line" smooth="yes"/>
      <point x="450" y="-167"/>
      <point x="508" y="-122"/>
      <point x="508" y="-32" type="curve" smooth="yes"/>
      <point x="508" y="67" type="line"/>
      <point x="764" y="545" type="line"/>
      <point x="509" y="545" type="line"/>
      <point x="413" y="327" type="line"/>
      <point x="392" y="271" type="line"/>
      <point x="387" y="271" type="line"/>
      <point x="366" y="327" type="line"/>
      <point x="268" y="545" type="line"/>
      <point x="15" y="545" type="line"/>
      <point x="271" y="66" type="line"/>
      <point x="271" y="16" type="line"/>
      <point x="71" y="16" type="line"/>
    </contour>
  </outline>
</glyph>
<glyph name="z" format="2">
  <advance width="654"/>
  <unicode hex="007A"/>
  <note>
z
</note>
  <anchor x="326" y="0" name="bottom"/>
  <anchor x="326" y="273" name="center"/>
  <anchor x="326" y="545" name="top"/>
  <outline>
    <contour>
      <point x="27" y="0" type="line"/>
      <point x="624" y="0" type="line"/>
      <point x="624" y="163" type="line"/>
      <point x="332" y="163" type="line"/>
      <point x="617" y="407" type="line"/>
      <point x="617" y="545" type="line"/>
      <point x="44" y="545" type="line"/>
      <point x="44" y="383" type="line"/>
      <point x="304" y="383" type="line"/>
      <point x="27" y="144" type="line"/>
    </contour>
  </outline>
</glyph>
<glyph name="braceleft" format="2">
  <advance width="498"/>
  <unicode hex="007B"/>
  <outline>
    <contour>
      <point x="268" y="-167" type="curve" smooth="yes"/>
      <point x="465" y="-167" type="line"/>
      <point x="465" y="-9" type="line"/>
      <point x="327" y="-9" type="line"/>
      <point x="327" y="173" type="line" smooth="yes"/>
      <point x="327" y="236"/>
      <point x="308" y="287"/>
      <point x="214" y="313" type="curve"/>
      <point x="214" y="323" type="line"/>
      <point x="288" y="336"/>
      <point x="327" y="369"/>
      <point x="327" y="459" type="curve" smooth="yes"/>
      <point x="327" y="630" type="line"/>
      <point x="465" y="630" type="line"/>
      <point x="465" y="791" type="line"/>
      <point x="268" y="791" type="line" smooth="yes"/>
      <point x="172" y="791"/>
      <point x="128" y="732"/>
      <point x="128" y="653" type="curve" smooth="yes"/>
      <point x="128" y="474" type="line" smooth="yes"/>
      <point x="128" y="429"/>
      <point x="105" y="398"/>
      <point x="65" y="398" type="curve" smooth="yes"/>
      <point x="28" y="398" type="line"/>
      <point x="28" y="227" type="line"/>
      <point x="65" y="227" type="line" smooth="yes"/>
      <point x="104" y="227"/>
      <point x="128" y="199"/>
      <point x="128" y="150" type="curve" smooth="yes"/>
      <point x="128" y="-29" type="line" smooth="yes"/>
      <point x="128" y="-108"/>
      <point x="172" y="-167"/>
    </contour>
  </outline>
</glyph>
<glyph name="bar" format="2">
  <advance width="366"/>
  <unicode hex="007C"/>
  <outline>
    <contour>
      <point x="80" y="-67" type="line"/>
      <point x="285" y="-67" type="line"/>
      <point x="285" y="729" type="line"/>
      <point x="80" y="729" type="line"/>
    </contour>
  </outline>
</glyph>
<glyph name="asciitilde" format="2">
  <advance width="726"/>
  <unicode hex="007E"/>
  <outline>
    <contour>
      <point x="103" y="262" type="curve"/>
      <point x="206" y="262" type="line"/>
      <point x="204" y="284"/>
      <point x="219" y="321"/>
      <point x="261" y="321" type="curve" smooth="yes"/>
      <point x="319" y="321"/>
      <point x="362" y="247"/>
      <point x="475" y="247" type="curve" smooth="yes"/>
      <point x="544" y="247"/>
      <point x="635" y="295"/>
      <point x="623" y="475" type="curve"/>
      <point x="522" y="475" type="line"/>
      <point x="520" y="449"/>
      <point x="504" y="420"/>
      <point x="457" y="420" type="curve" smooth="yes"/>
      <point x="386" y="420"/>
      <point x="346" y="485"/>
      <point x="252" y="485" type="curve" smooth="yes"/>
      <point x="164" y="485"/>
      <point x="90" y="415"/>
    </contour>
  </outline>
</glyph>
<glyph name="cent" format="2">
  <advance width="752"/>
  <unicode hex="00A2"/>
  <anchor x="373" y="92" name="bottom"/>
  <anchor x="373" y="637" name="top"/>
  <outline>
    <contour>
      <point x="289" y="586" type="line"/>
      <point x="469" y="586" type="line"/>
      <point x="481" y="729" type="line"/>
      <point x="277" y="729" type="line"/>
    </contour>
    <contour>
      <point x="277" y="0" type="line"/>
      <point x="481" y="0" type="line"/>
      <point x="469" y="146" type="line"/>
      <point x="289" y="146" type="line"/>
    </contour>
    <contour>
      <point x="378" y="80" type="curve" smooth="yes"/>
      <point x="569" y="80"/>
      <point x="708" y="173"/>
      <point x="720" y="303" type="curve"/>
      <point x="483" y="303" type="line"/>
      <point x="478" y="267"/>
      <point x="440" y="243"/>
      <point x="385" y="243" type="curve" smooth="yes"/>
      <point x="318" y="243"/>
      <point x="272" y="279"/>
      <point x="272" y="332" type="curve" smooth="yes"/>
      <point x="272" y="398" type="line" smooth="yes"/>
      <point x="272" y="452"/>
      <point x="317" y="487"/>
      <point x="384" y="487" type="curve" smooth="yes"/>
      <point x="442" y="487"/>
      <point x="478" y="460"/>
      <point x="483" y="428" type="curve"/>
      <point x="715" y="428" type="line"/>
      <point x="707" y="560"/>
      <point x="574" y="649"/>
      <point x="384" y="649" type="curve" smooth="yes"/>
      <point x="174" y="649"/>
      <point x="35" y="539"/>
      <point x="35" y="371" type="curve" smooth="yes"/>
      <point x="35" y="359" type="line" smooth="yes"/>
      <point x="35" y="189"/>
      <point x="175" y="80"/>
    </contour>
  </outline>
</glyph>
<glyph name="sterling" format="2">
  <advance width="793"/>
  <unicode hex="00A3"/>
  <outline>
    <contour>
      <point x="41" y="0" type="line"/>
      <point x="755" y="0" type="line"/>
      <point x="755" y="226" type="line"/>
      <point x="578" y="226" type="line"/>
      <point x="578" y="181" type="line"/>
      <point x="365" y="181" type="line"/>
      <point x="365" y="276" type="line"/>
      <point x="537" y="276" type="line"/>
      <point x="537" y="432" type="line"/>
      <point x="365" y="432" type="line"/>
      <point x="365" y="481" type="line" smooth="yes"/>
      <point x="365" y="526"/>
      <point x="395" y="551"/>
      <point x="443" y="551" type="curve" smooth="yes"/>
      <point x="488" y="551"/>
      <point x="522" y="530"/>
      <point x="522" y="486" type="curve" smooth="yes"/>
      <point x="522" y="477" type="line"/>
      <point x="738" y="477" type="line"/>
      <point x="738" y="497" type="line" smooth="yes"/>
      <point x="738" y="640"/>
      <point x="629" y="738"/>
      <point x="432" y="738" type="curve" smooth="yes"/>
      <point x="257" y="738"/>
      <point x="131" y="652"/>
      <point x="131" y="481" type="curve" smooth="yes"/>
      <point x="131" y="432" type="line"/>
      <point x="41" y="393" type="line"/>
      <point x="41" y="276" type="line"/>
      <point x="131" y="276" type="line"/>
      <point x="131" y="181" type="line"/>
      <point x="41" y="181" type="line"/>
    </contour>
  </outline>
</glyph>
<glyph name="currency" format="2">
  <advance width="753"/>
  <unicode hex="00A4"/>
  <outline>
    <contour>
      <point x="184" y="48" type="line"/>
      <point x="286" y="151" type="line"/>
      <point x="314" y="144"/>
      <point x="343" y="141"/>
      <point x="376" y="141" type="curve" smooth="yes"/>
      <point x="403" y="141"/>
      <point x="438" y="144"/>
      <point x="467" y="150" type="curve"/>
      <point x="572" y="48" type="line"/>
      <point x="692" y="174" type="line"/>
      <point x="596" y="265" type="line"/>
      <point x="609" y="294"/>
      <point x="615" y="328"/>
      <point x="615" y="358" type="curve" smooth="yes"/>
      <point x="615" y="389"/>
      <point x="610" y="422"/>
      <point x="594" y="455" type="curve"/>
      <point x="692" y="546" type="line"/>
      <point x="570" y="669" type="line"/>
      <point x="463" y="566" type="line"/>
      <point x="436" y="572"/>
      <point x="401" y="576"/>
      <point x="376" y="576" type="curve" smooth="yes"/>
      <point x="351" y="576"/>
      <point x="319" y="575"/>
      <point x="289" y="566" type="curve"/>
      <point x="186" y="669" type="line"/>
      <point x="62" y="546" type="line"/>
      <point x="159" y="455" type="line"/>
      <point x="146" y="426"/>
      <point x="141" y="393"/>
      <point x="141" y="358" type="curve" smooth="yes"/>
      <point x="141" y="332"/>
      <point x="144" y="298"/>
      <point x="158" y="265" type="curve"/>
      <point x="61" y="174" type="line"/>
    </contour>
    <contour>
      <point x="376" y="307" type="curve" smooth="yes"/>
      <point x="344" y="307"/>
      <point x="319" y="328"/>
      <point x="319" y="357" type="curve" smooth="yes"/>
      <point x="319" y="388"/>
      <point x="340" y="409"/>
      <point x="376" y="409" type="curve" smooth="yes"/>
      <point x="408" y="409"/>
      <point x="432" y="389"/>
      <point x="432" y="357" type="curve" smooth="yes"/>
      <point x="432" y="330"/>
      <point x="410" y="307"/>
    </contour>
  </outline>
</glyph>
<glyph name="brokenbar" format="2">
  <advance width="366"/>
  <unicode hex="00A6"/>
  <outline>
    <contour>
      <point x="80" y="378" type="line"/>
      <point x="285" y="378" type="line"/>
      <point x="285" y="729" type="line"/>
      <point x="80" y="729" type="line"/>
    </contour>
    <contour>
      <point x="80" y="-67" type="line"/>
      <point x="285" y="-67" type="line"/>
      <point x="285" y="284" type="line"/>
      <point x="80" y="284" type="line"/>
    </contour>
  </outline>
</glyph>
<glyph name="section" format="2">
  <advance width="579"/>
  <unicode hex="00A7"/>
  <outline>
    <contour>
      <point x="279" y="-10" type="curve" smooth="yes"/>
      <point x="431" y="-10"/>
      <point x="531" y="56"/>
      <point x="531" y="165" type="curve" smooth="yes"/>
      <point x="531" y="207"/>
      <point x="515" y="244"/>
      <point x="484" y="276" type="curve"/>
      <point x="518" y="297"/>
      <point x="541" y="333"/>
      <point x="541" y="373" type="curve" smooth="yes"/>
      <point x="541" y="465"/>
      <point x="484" y="503"/>
      <point x="354" y="529" type="curve" smooth="yes"/>
      <point x="286" y="542"/>
      <point x="252" y="550"/>
      <point x="252" y="576" type="curve" smooth="yes"/>
      <point x="252" y="599"/>
      <point x="271" y="607"/>
      <point x="300" y="607" type="curve" smooth="yes"/>
      <point x="332" y="607"/>
      <point x="351" y="595"/>
      <point x="352" y="568" type="curve"/>
      <point x="540" y="568" type="line"/>
      <point x="530" y="670"/>
      <point x="441" y="739"/>
      <point x="306" y="739" type="curve" smooth="yes"/>
      <point x="160" y="739"/>
      <point x="62" y="670"/>
      <point x="62" y="565" type="curve" smooth="yes"/>
      <point x="62" y="521"/>
      <point x="76" y="485"/>
      <point x="114" y="457" type="curve"/>
      <point x="74" y="429"/>
      <point x="53" y="393"/>
      <point x="53" y="349" type="curve" smooth="yes"/>
      <point x="53" y="254"/>
      <point x="129" y="225"/>
      <point x="234" y="203" type="curve" smooth="yes"/>
      <point x="319" y="184"/>
      <point x="338" y="177"/>
      <point x="338" y="152" type="curve" smooth="yes"/>
      <point x="338" y="131"/>
      <point x="321" y="122"/>
      <point x="284" y="122" type="curve" smooth="yes"/>
      <point x="246" y="122"/>
      <point x="220" y="136"/>
      <point x="217" y="171" type="curve"/>
      <point x="30" y="171" type="line"/>
      <point x="32" y="63"/>
      <point x="128" y="-10"/>
    </contour>
    <contour>
      <point x="344" y="330" type="curve"/>
      <point x="324" y="337"/>
      <point x="300" y="343"/>
      <point x="278" y="348" type="curve" smooth="yes"/>
      <point x="243" y="357"/>
      <point x="231" y="367"/>
      <point x="231" y="385" type="curve" smooth="yes"/>
      <point x="231" y="391"/>
      <point x="233" y="399"/>
      <point x="237" y="407" type="curve"/>
      <point x="256" y="402"/>
      <point x="274" y="396"/>
      <point x="293" y="391" type="curve" smooth="yes"/>
      <point x="330" y="382"/>
      <point x="349" y="373"/>
      <point x="349" y="350" type="curve" smooth="yes"/>
      <point x="349" y="342"/>
      <point x="348" y="336"/>
    </contour>
  </outline>
</glyph>
<glyph name="ordfeminine" format="2">
  <advance width="435"/>
  <unicode hex="00AA"/>
  <outline>
    <contour>
      <point x="139" y="386" type="curve" smooth="yes"/>
      <point x="198" y="386"/>
      <point x="238" y="406"/>
      <point x="253" y="433" type="curve"/>
      <point x="259" y="433" type="line"/>
      <point x="270" y="392" type="line"/>
      <point x="407" y="392" type="line"/>
      <point x="407" y="622" type="line" smooth="yes"/>
      <point x="407" y="698"/>
      <point x="353" y="757"/>
      <point x="219" y="757" type="curve" smooth="yes"/>
      <point x="94" y="757"/>
      <point x="25" y="701"/>
      <point x="26" y="619" type="curve"/>
      <point x="164" y="619" type="line"/>
      <point x="165" y="636"/>
      <point x="180" y="648"/>
      <point x="209" y="648" type="curve" smooth="yes"/>
      <point x="244" y="648"/>
      <point x="254" y="635"/>
      <point x="254" y="622" type="curve" smooth="yes"/>
      <point x="254" y="607" type="line"/>
      <point x="261" y="616" type="line"/>
      <point x="155" y="607" type="line" smooth="yes"/>
      <point x="65" y="599"/>
      <point x="15" y="560"/>
      <point x="15" y="492" type="curve" smooth="yes"/>
      <point x="15" y="487" type="line" smooth="yes"/>
      <point x="15" y="430"/>
      <point x="54" y="386"/>
    </contour>
    <contour>
      <point x="212" y="493" type="curve" smooth="yes"/>
      <point x="193" y="493"/>
      <point x="178" y="499"/>
      <point x="178" y="511" type="curve" smooth="yes"/>
      <point x="178" y="516" type="line" smooth="yes"/>
      <point x="178" y="527"/>
      <point x="183" y="535"/>
      <point x="205" y="536" type="curve" smooth="yes"/>
      <point x="254" y="540" type="line"/>
      <point x="254" y="521" type="line" smooth="yes"/>
      <point x="254" y="502"/>
      <point x="237" y="493"/>
    </contour>
  </outline>
</glyph>
<glyph name="logicalnot" format="2">
  <advance width="721"/>
  <unicode hex="00AC"/>
  <outline>
    <contour>
      <point x="421" y="117" type="line"/>
      <point x="601" y="117" type="line"/>
      <point x="601" y="451" type="line"/>
      <point x="112" y="451" type="line"/>
      <point x="112" y="271" type="line"/>
      <point x="421" y="271" type="line"/>
    </contour>
  </outline>
</glyph>
<glyph name="registered" format="2">
  <advance width="650"/>
  <unicode hex="00AE"/>
  <outline>
    <contour>
      <point x="326" y="202" type="curve"/>
      <point x="482" y="202"/>
      <point x="613" y="308"/>
      <point x="613" y="470" type="curve" smooth="yes"/>
      <point x="613" y="632"/>
      <point x="483" y="738"/>
      <point x="326" y="738" type="curve" smooth="yes"/>
      <point x="167" y="738"/>
      <point x="37" y="632"/>
      <point x="37" y="470" type="curve" smooth="yes"/>
      <point x="37" y="308"/>
      <point x="167" y="202"/>
    </contour>
    <contour>
      <point x="325" y="257" type="curve" smooth="yes"/>
      <point x="201" y="257"/>
      <point x="99" y="343"/>
      <point x="99" y="470" type="curve" smooth="yes"/>
      <point x="99" y="597"/>
      <point x="201" y="682"/>
      <point x="325" y="682" type="curve" smooth="yes"/>
      <point x="451" y="682"/>
      <point x="551" y="597"/>
      <point x="551" y="470" type="curve" smooth="yes"/>
      <point x="551" y="343"/>
      <point x="452" y="257"/>
    </contour>
    <contour>
      <point x="177" y="343" type="line"/>
      <point x="285" y="343" type="line"/>
      <point x="285" y="524" type="line"/>
      <point x="352" y="524" type="line" smooth="yes"/>
      <point x="368" y="524"/>
      <point x="376" y="518"/>
      <point x="376" y="507" type="curve" smooth="yes"/>
      <point x="376" y="503" type="line" smooth="yes"/>
      <point x="376" y="491"/>
      <point x="368" y="485"/>
      <point x="352" y="485" type="curve" smooth="yes"/>
      <point x="280" y="485" type="line"/>
      <point x="280" y="421" type="line"/>
      <point x="304" y="421" type="line"/>
      <point x="365" y="343" type="line"/>
      <point x="499" y="343" type="line"/>
      <point x="413" y="445" type="line"/>
      <point x="409" y="438" type="line"/>
      <point x="413" y="438" type="line" smooth="yes"/>
      <point x="457" y="446"/>
      <point x="484" y="474"/>
      <point x="484" y="518" type="curve" smooth="yes"/>
      <point x="484" y="567"/>
      <point x="450" y="602"/>
      <point x="377" y="602" type="curve" smooth="yes"/>
      <point x="177" y="602" type="line"/>
    </contour>
  </outline>
</glyph>
<glyph name="degree" format="2">
  <advance width="406"/>
  <unicode hex="00B0"/>
  <outline>
    <contour>
      <point x="203" y="387" type="curve" smooth="yes"/>
      <point x="314" y="387"/>
      <point x="395" y="457"/>
      <point x="395" y="563" type="curve" smooth="yes"/>
      <point x="395" y="669"/>
      <point x="314" y="739"/>
      <point x="203" y="739" type="curve" smooth="yes"/>
      <point x="92" y="739"/>
      <point x="11" y="669"/>
      <point x="11" y="563" type="curve" smooth="yes"/>
      <point x="11" y="457"/>
      <point x="92" y="387"/>
    </contour>
    <contour>
      <point x="203" y="506" type="curve" smooth="yes"/>
      <point x="171" y="506"/>
      <point x="145" y="527"/>
      <point x="145" y="563" type="curve" smooth="yes"/>
      <point x="145" y="600"/>
      <point x="171" y="620"/>
      <point x="203" y="620" type="curve" smooth="yes"/>
      <point x="235" y="620"/>
      <point x="261" y="600"/>
      <point x="261" y="563" type="curve" smooth="yes"/>
      <point x="261" y="527"/>
      <point x="235" y="506"/>
    </contour>
  </outline>
</glyph>
<glyph name="plusminus" format="2">
  <advance width="721"/>
  <unicode hex="00B1"/>
  <outline>
    <contour>
      <point x="269" y="207" type="line"/>
      <point x="451" y="207" type="line"/>
      <point x="451" y="327" type="line"/>
      <point x="621" y="327" type="line"/>
      <point x="621" y="501" type="line"/>
      <point x="451" y="501" type="line"/>
      <point x="451" y="618" type="line"/>
      <point x="269" y="618" type="line"/>
      <point x="269" y="501" type="line"/>
      <point x="105" y="501" type="line"/>
      <point x="105" y="327" type="line"/>
      <point x="269" y="327" type="line"/>
    </contour>
    <contour>
      <point x="105" y="0" type="line"/>
      <point x="621" y="0" type="line"/>
      <point x="621" y="148" type="line"/>
      <point x="105" y="148" type="line"/>
    </contour>
  </outline>
</glyph>
<glyph name="paragraph" format="2">
  <advance width="914"/>
  <unicode hex="00B6"/>
  <outline>
    <contour>
      <point x="235" y="-151" type="line"/>
      <point x="454" y="-151" type="line"/>
      <point x="454" y="536" type="line"/>
      <point x="558" y="536" type="line"/>
      <point x="558" y="-151" type="line"/>
      <point x="776" y="-151" type="line"/>
      <point x="776" y="536" type="line"/>
      <point x="869" y="536" type="line"/>
      <point x="869" y="729" type="line"/>
      <point x="273" y="729" type="line" smooth="yes"/>
      <point x="97" y="729"/>
      <point x="12" y="653"/>
      <point x="12" y="512" type="curve" smooth="yes"/>
      <point x="12" y="392"/>
      <point x="93" y="312"/>
      <point x="235" y="312" type="curve"/>
    </contour>
  </outline>
</glyph>
<glyph name="ordmasculine" format="2">
  <advance width="433"/>
  <unicode hex="00BA"/>
  <outline>
    <contour>
      <point x="218" y="386" type="curve" smooth="yes"/>
      <point x="337" y="386"/>
      <point x="418" y="443"/>
      <point x="418" y="570" type="curve" smooth="yes"/>
      <point x="418" y="570" type="line" smooth="yes"/>
      <point x="418" y="676"/>
      <point x="359" y="757"/>
      <point x="218" y="757" type="curve" smooth="yes"/>
      <point x="96" y="757"/>
      <point x="15" y="696"/>
      <point x="15" y="570" type="curve" smooth="yes"/>
      <point x="15" y="570" type="line" smooth="yes"/>
      <point x="15" y="462"/>
      <point x="78" y="386"/>
    </contour>
    <contour>
      <point x="218" y="499" type="curve" smooth="yes"/>
      <point x="183" y="499"/>
      <point x="174" y="524"/>
      <point x="174" y="550" type="curve" smooth="yes"/>
      <point x="174" y="591" type="line" smooth="yes"/>
      <point x="174" y="621"/>
      <point x="184" y="643"/>
      <point x="218" y="643" type="curve" smooth="yes"/>
      <point x="242" y="643"/>
      <point x="259" y="630"/>
      <point x="259" y="591" type="curve" smooth="yes"/>
      <point x="259" y="550" type="line" smooth="yes"/>
      <point x="259" y="510"/>
      <point x="242" y="499"/>
    </contour>
  </outline>
</glyph>
<glyph name="multiply" format="2">
  <advance width="721"/>
  <unicode hex="00D7"/>
  <outline>
    <contour>
      <point x="224" y="99" type="line"/>
      <point x="628" y="504" type="line"/>
      <point x="502" y="631" type="line"/>
      <point x="99" y="226" type="line"/>
    </contour>
    <contour>
      <point x="502" y="99" type="line"/>
      <point x="628" y="226" type="line"/>
      <point x="224" y="631" type="line"/>
      <point x="99" y="504" type="line"/>
    </contour>
  </outline>
</glyph>
<glyph name="Thorn" format="2">
  <advance width="816"/>
  <unicode hex="00DE"/>
  <outline>
    <contour>
      <point x="54" y="0" type="line"/>
      <point x="316" y="0" type="line"/>
      <point x="316" y="729" type="line"/>
      <point x="54" y="729" type="line"/>
    </contour>
    <contour>
      <point x="305" y="102" type="line"/>
      <point x="460" y="102" type="line" smooth="yes"/>
      <point x="656" y="102"/>
      <point x="786" y="197"/>
      <point x="786" y="364" type="curve" smooth="yes"/>
      <point x="786" y="532"/>
      <point x="655" y="629"/>
      <point x="461" y="629" type="curve" smooth="yes"/>
      <point x="305" y="629" type="line"/>
      <point x="305" y="441" type="line"/>
      <point x="420" y="441" type="line" smooth="yes"/>
      <point x="475" y="441"/>
      <point x="510" y="416"/>
      <point x="510" y="371" type="curve" smooth="yes"/>
      <point x="510" y="351" type="line" smooth="yes"/>
      <point x="510" y="311"/>
      <point x="477" y="282"/>
      <point x="420" y="282" type="curve" smooth="yes"/>
      <point x="305" y="282" type="line"/>
    </contour>
  </outline>
</glyph>
<glyph name="germandbls" format="2">
  <advance width="797"/>
  <unicode hex="00DF"/>
  <outline>
    <contour>
      <point x="135" y="0" type="line"/>
      <point x="360" y="0" type="line"/>
      <point x="360" y="468" type="line" smooth="yes"/>
      <point x="360" y="531"/>
      <point x="387" y="564"/>
      <point x="447" y="564" type="curve" smooth="yes"/>
      <point x="490" y="564"/>
      <point x="524" y="544"/>
      <point x="524" y="498" type="curve" smooth="yes"/>
      <point x="524" y="460"/>
      <point x="498" y="433"/>
      <point x="436" y="433" type="curve" smooth="yes"/>
      <point x="416" y="433" type="line"/>
      <point x="416" y="309" type="line"/>
      <point x="467" y="309" type="line" smooth="yes"/>
      <point x="517" y="309"/>
      <point x="549" y="290"/>
      <point x="549" y="244" type="curve" smooth="yes"/>
      <point x="549" y="232" type="line" smooth="yes"/>
      <point x="549" y="190"/>
      <point x="520" y="162"/>
      <point x="465" y="162" type="curve" smooth="yes"/>
      <point x="413" y="162" type="line"/>
      <point x="413" y="0" type="line"/>
      <point x="509" y="0" type="line" smooth="yes"/>
      <point x="686" y="0"/>
      <point x="775" y="87"/>
      <point x="775" y="212" type="curve" smooth="yes"/>
      <point x="775" y="308"/>
      <point x="716" y="378"/>
      <point x="623" y="390" type="curve"/>
      <point x="623" y="399" type="line"/>
      <point x="688" y="416"/>
      <point x="727" y="468"/>
      <point x="727" y="541" type="curve" smooth="yes"/>
      <point x="727" y="660"/>
      <point x="627" y="739"/>
      <point x="446" y="739" type="curve" smooth="yes"/>
      <point x="282" y="739"/>
      <point x="135" y="660"/>
      <point x="135" y="483" type="curve" smooth="yes"/>
    </contour>
    <contour>
      <point x="24" y="384" type="line"/>
      <point x="279" y="384" type="line"/>
      <point x="279" y="545" type="line"/>
      <point x="24" y="545" type="line"/>
    </contour>
  </outline>
</glyph>
<glyph name="ae" format="2">
  <advance width="1085"/>
  <unicode hex="00E6"/>
  <outline>
    <contour>
      <point x="230" y="-12" type="curve" smooth="yes"/>
      <point x="323" y="-12"/>
      <point x="411" y="20"/>
      <point x="459" y="71" type="curve"/>
      <point x="468" y="71" type="line"/>
      <point x="519" y="19"/>
      <point x="610" y="-12"/>
      <point x="716" y="-12" type="curve" smooth="yes"/>
      <point x="897" y="-12"/>
      <point x="1026" y="62"/>
      <point x="1054" y="173" type="curve"/>
      <point x="827" y="173" type="line"/>
      <point x="815" y="144"/>
      <point x="774" y="130"/>
      <point x="723" y="130" type="curve" smooth="yes"/>
      <point x="655" y="130"/>
      <point x="610" y="163"/>
      <point x="610" y="213" type="curve" smooth="yes"/>
      <point x="610" y="333" type="line" smooth="yes"/>
      <point x="610" y="384"/>
      <point x="652" y="417"/>
      <point x="718" y="417" type="curve" smooth="yes"/>
      <point x="784" y="417"/>
      <point x="827" y="384"/>
      <point x="827" y="339" type="curve" smooth="yes"/>
      <point x="827" y="320" type="line"/>
      <point x="842" y="334" type="line"/>
      <point x="576" y="334" type="line"/>
      <point x="576" y="219" type="line"/>
      <point x="1061" y="219" type="line"/>
      <point x="1061" y="283" type="line" smooth="yes"/>
      <point x="1061" y="448"/>
      <point x="924" y="557"/>
      <point x="735" y="557" type="curve" smooth="yes"/>
      <point x="650" y="557"/>
      <point x="578" y="539"/>
      <point x="530" y="510" type="curve"/>
      <point x="491" y="539"/>
      <point x="414" y="558"/>
      <point x="333" y="558" type="curve" smooth="yes"/>
      <point x="166" y="558"/>
      <point x="43" y="480"/>
      <point x="30" y="353" type="curve"/>
      <point x="233" y="353" type="line"/>
      <point x="237" y="390"/>
      <point x="268" y="409"/>
      <point x="320" y="409" type="curve" smooth="yes"/>
      <point x="370" y="409"/>
      <point x="403" y="391"/>
      <point x="403" y="351" type="curve" smooth="yes"/>
      <point x="403" y="258" type="line" smooth="yes"/>
      <point x="403" y="226"/>
      <point x="404" y="194"/>
      <point x="410" y="164" type="curve"/>
      <point x="393" y="145"/>
      <point x="361" y="132"/>
      <point x="318" y="132" type="curve" smooth="yes"/>
      <point x="277" y="132"/>
      <point x="253" y="147"/>
      <point x="253" y="173" type="curve" smooth="yes"/>
      <point x="253" y="203"/>
      <point x="279" y="222"/>
      <point x="334" y="222" type="curve" smooth="yes"/>
      <point x="443" y="222" type="line"/>
      <point x="443" y="324" type="line"/>
      <point x="282" y="324" type="line" smooth="yes"/>
      <point x="117" y="324"/>
      <point x="24" y="253"/>
      <point x="24" y="143" type="curve" smooth="yes"/>
      <point x="24" y="50"/>
      <point x="97" y="-12"/>
    </contour>
  </outline>
</glyph>
<glyph name="eth" format="2">
  <advance width="729"/>
  <unicode hex="00F0"/>
  <outline>
    <contour>
      <point x="348" y="-11" type="curve" smooth="yes"/>
      <point x="563" y="-11"/>
      <point x="704" y="90"/>
      <point x="704" y="278" type="curve" smooth="yes"/>
      <point x="704" y="289" type="line" smooth="yes"/>
      <point x="704" y="440"/>
      <point x="595" y="612"/>
      <point x="377" y="729" type="curve"/>
      <point x="108" y="729" type="line"/>
      <point x="269" y="597"/>
      <point x="359" y="516"/>
      <point x="410" y="451" type="curve"/>
      <point x="400" y="451" type="line"/>
      <point x="373" y="473"/>
      <point x="324" y="486"/>
      <point x="279" y="486" type="curve" smooth="yes"/>
      <point x="125" y="486"/>
      <point x="23" y="391"/>
      <point x="23" y="248" type="curve" smooth="yes"/>
      <point x="23" y="239" type="line" smooth="yes"/>
      <point x="23" y="90"/>
      <point x="152" y="-11"/>
    </contour>
    <contour>
      <point x="360" y="152" type="curve" smooth="yes"/>
      <point x="301" y="152"/>
      <point x="260" y="181"/>
      <point x="260" y="234" type="curve" smooth="yes"/>
      <point x="260" y="273" type="line" smooth="yes"/>
      <point x="260" y="329"/>
      <point x="304" y="363"/>
      <point x="372" y="363" type="curve" smooth="yes"/>
      <point x="402" y="363"/>
      <point x="431" y="359"/>
      <point x="467" y="336" type="curve"/>
      <point x="467" y="318"/>
      <point x="467" y="302"/>
      <point x="467" y="284" type="curve" smooth="yes"/>
      <point x="467" y="240" type="line" smooth="yes"/>
      <point x="467" y="188"/>
      <point x="429" y="152"/>
    </contour>
    <contour>
      <point x="147" y="502" type="line"/>
      <point x="629" y="610" type="line"/>
      <point x="629" y="729" type="line"/>
      <point x="147" y="623" type="line"/>
    </contour>
  </outline>
</glyph>
<glyph name="divide" format="2">
  <advance width="721"/>
  <unicode hex="00F7"/>
  <outline>
    <contour>
      <point x="97" y="276" type="line"/>
      <point x="629" y="276" type="line"/>
      <point x="629" y="454" type="line"/>
      <point x="97" y="454" type="line"/>
    </contour>
    <contour>
      <point x="270" y="497" type="line"/>
      <point x="456" y="497" type="line"/>
      <point x="456" y="657" type="line"/>
      <point x="270" y="657" type="line"/>
    </contour>
    <contour>
      <point x="270" y="73" type="line"/>
      <point x="456" y="73" type="line"/>
      <point x="456" y="233" type="line"/>
      <point x="270" y="233" type="line"/>
    </contour>
  </outline>
</glyph>
<glyph name="thorn" format="2">
  <advance width="779"/>
  <unicode hex="00FE"/>
  <outline>
    <contour>
      <point x="45" y="-167" type="line"/>
      <point x="281" y="-167" type="line"/>
      <point x="281" y="62" type="line"/>
      <point x="287" y="62" type="line"/>
      <point x="320" y="20"/>
      <point x="387" y="-10"/>
      <point x="472" y="-10" type="curve" smooth="yes"/>
      <point x="639" y="-10"/>
      <point x="754" y="99"/>
      <point x="754" y="263" type="curve" smooth="yes"/>
      <point x="754" y="282" type="line" smooth="yes"/>
      <point x="754" y="445"/>
      <point x="639" y="555"/>
      <point x="472" y="555" type="curve" smooth="yes"/>
      <point x="388" y="555"/>
      <point x="320" y="528"/>
      <point x="287" y="482" type="curve"/>
      <point x="281" y="482" type="line"/>
      <point x="281" y="729" type="line"/>
      <point x="45" y="729" type="line"/>
    </contour>
    <contour>
      <point x="391" y="152" type="curve" smooth="yes"/>
      <point x="344" y="152"/>
      <point x="305" y="172"/>
      <point x="281" y="200" type="curve"/>
      <point x="281" y="345" type="line"/>
      <point x="305" y="375"/>
      <point x="344" y="393"/>
      <point x="391" y="393" type="curve" smooth="yes"/>
      <point x="463" y="393"/>
      <point x="508" y="355"/>
      <point x="508" y="289" type="curve" smooth="yes"/>
      <point x="508" y="256" type="line" smooth="yes"/>
      <point x="508" y="191"/>
      <point x="463" y="152"/>
    </contour>
  </outline>
</glyph>
<glyph name="idotless" format="2">
  <advance width="326"/>
  <unicode hex="0131"/>
  <anchor x="163" y="0" name="bottom"/>
  <anchor x="281" y="0" name="ogonek"/>
  <anchor x="163" y="545" name="top"/>
  <outline>
    <contour>
      <point x="45" y="0" type="line"/>
      <point x="281" y="0" type="line"/>
      <point x="281" y="545" type="line"/>
      <point x="45" y="545" type="line"/>
    </contour>
  </outline>
</glyph>
<glyph name="Eng" format="2">
  <advance width="999"/>
  <unicode hex="014A"/>
  <outline>
    <contour>
      <point x="533" y="-167" type="line"/>
      <point x="792" y="-167" type="line" smooth="yes"/>
      <point x="885" y="-167"/>
      <point x="945" y="-112"/>
      <point x="945" y="-13" type="curve" smooth="yes"/>
      <point x="945" y="729" type="line"/>
      <point x="692" y="729" type="line"/>
      <point x="692" y="289" type="line"/>
      <point x="685" y="289" type="line"/>
      <point x="666" y="318" type="line"/>
      <point x="410" y="729" type="line"/>
      <point x="54" y="729" type="line"/>
      <point x="54" y="0" type="line"/>
      <point x="307" y="0" type="line"/>
      <point x="307" y="463" type="line"/>
      <point x="313" y="463" type="line"/>
      <point x="330" y="432" type="line"/>
      <point x="581" y="36" type="line"/>
      <point x="695" y="36" type="line"/>
      <point x="695" y="-6" type="line"/>
      <point x="533" y="-6" type="line"/>
    </contour>
  </outline>
</glyph>
<glyph name="eng" format="2">
  <advance width="768"/>
  <unicode hex="014B"/>
  <outline>
    <contour>
      <point x="396" y="-167" type="line"/>
      <point x="548" y="-167" type="line" smooth="yes"/>
      <point x="656" y="-167"/>
      <point x="730" y="-115"/>
      <point x="730" y="-1" type="curve" smooth="yes"/>
      <point x="730" y="336" type="line" smooth="yes"/>
      <point x="730" y="477"/>
      <point x="644" y="555"/>
      <point x="489" y="555" type="curve" smooth="yes"/>
      <point x="408" y="555"/>
      <point x="340" y="532"/>
      <point x="287" y="481" type="curve"/>
      <point x="281" y="481" type="line"/>
      <point x="251" y="545" type="line"/>
      <point x="45" y="545" type="line"/>
      <point x="45" y="0" type="line"/>
      <point x="281" y="0" type="line"/>
      <point x="281" y="338" type="line"/>
      <point x="310" y="370"/>
      <point x="349" y="389"/>
      <point x="397" y="389" type="curve" smooth="yes"/>
      <point x="465" y="389"/>
      <point x="495" y="353"/>
      <point x="495" y="294" type="curve" smooth="yes"/>
      <point x="495" y="-10" type="line"/>
      <point x="396" y="-10" type="line"/>
    </contour>
  </outline>
</glyph>
<glyph name="florin" format="2">
  <advance width="667"/>
  <unicode hex="0192"/>
  <outline>
    <contour>
      <point x="417" y="80" type="curve"/>
      <point x="481" y="563" type="line"/>
      <point x="645" y="563" type="line"/>
      <point x="645" y="729" type="line"/>
      <point x="430" y="729" type="line" smooth="yes"/>
      <point x="325" y="729"/>
      <point x="262" y="676"/>
      <point x="246" y="565" type="curve" smooth="yes"/>
      <point x="183" y="89" type="line"/>
      <point x="21" y="89" type="line"/>
      <point x="21" y="-85" type="line"/>
      <point x="232" y="-85" type="line" smooth="yes"/>
      <point x="327" y="-85"/>
      <point x="401" y="-38"/>
    </contour>
    <contour>
      <point x="84" y="323" type="line"/>
      <point x="626" y="323" type="line"/>
      <point x="626" y="498" type="line"/>
      <point x="84" y="498" type="line"/>
    </contour>
  </outline>
</glyph>
<glyph name="jdotless" format="2">
  <advance width="326"/>
  <unicode hex="0237"/>
  <anchor x="163" y="545" name="top"/>
  <outline>
    <contour>
      <point x="-51" y="-167" type="line"/>
      <point x="120" y="-167" type="line" smooth="yes"/>
      <point x="217" y="-167"/>
      <point x="281" y="-123"/>
      <point x="281" y="-25" type="curve" smooth="yes"/>
      <point x="281" y="545" type="line"/>
      <point x="45" y="545" type="line"/>
      <point x="45" y="-27" type="line"/>
      <point x="-51" y="-27" type="line"/>
    </contour>
  </outline>
</glyph>
<glyph name="acutecomb" format="2">
  <unicode hex="0301"/>
  <anchor x="151" y="545" name="_top"/>
  <outline>
    <contour>
      <point x="40" y="601" type="line"/>
      <point x="261" y="601" type="line"/>
      <point x="377" y="729" type="line"/>
      <point x="124" y="729" type="line"/>
    </contour>
  </outline>
</glyph>
<glyph name="tildecomb" format="2">
  <unicode hex="0303"/>
  <anchor x="243" y="545" name="_top"/>
  <outline>
    <contour>
      <point x="332" y="602" type="curve" smooth="yes"/>
      <point x="392" y="602"/>
      <point x="461" y="645"/>
      <point x="452" y="784" type="curve"/>
      <point x="373" y="784" type="line"/>
      <point x="374" y="746"/>
      <point x="354" y="727"/>
      <point x="321" y="727" type="curve" smooth="yes"/>
      <point x="264" y="727"/>
      <point x="231" y="779"/>
      <point x="157" y="779" type="curve" smooth="yes"/>
      <point x="101" y="779"/>
      <point x="33" y="742"/>
      <point x="40" y="599" type="curve"/>
      <point x="119" y="599" type="line"/>
      <point x="116" y="626"/>
      <point x="126" y="656"/>
      <point x="162" y="656" type="curve" smooth="yes"/>
      <point x="209" y="656"/>
      <point x="247" y="602"/>
    </contour>
  </outline>
</glyph>
<glyph name="macroncomb" format="2">
  <unicode hex="0304"/>
  <anchor x="289" y="545" name="_top"/>
  <outline>
    <contour>
      <point x="40" y="606" type="line"/>
      <point x="534" y="606" type="line"/>
      <point x="534" y="750" type="line"/>
      <point x="40" y="750" type="line"/>
    </contour>
  </outline>
</glyph>
<glyph name="brevecomb" format="2">
  <unicode hex="0306"/>
  <anchor x="279" y="545" name="_top"/>
  <outline>
    <contour>
      <point x="279" y="586" type="curve" smooth="yes"/>
      <point x="418" y="586"/>
      <point x="516" y="635"/>
      <point x="516" y="725" type="curve"/>
      <point x="355" y="725" type="line"/>
      <point x="356" y="700"/>
      <point x="321" y="687"/>
      <point x="279" y="687" type="curve" smooth="yes"/>
      <point x="232" y="687"/>
      <point x="201" y="701"/>
      <point x="201" y="725" type="curve"/>
      <point x="40" y="725" type="line"/>
      <point x="42" y="637"/>
      <point x="137" y="586"/>
    </contour>
  </outline>
</glyph>
<glyph name="dotaccentcomb" format="2">
  <unicode hex="0307"/>
  <anchor x="158" y="545" name="_top"/>
  <outline>
    <contour>
      <point x="40" y="608" type="line"/>
      <point x="277" y="608" type="line"/>
      <point x="277" y="748" type="line"/>
      <point x="40" y="748" type="line"/>
    </contour>
  </outline>
</glyph>
<glyph name="dieresiscomb" format="2">
  <unicode hex="0308"/>
  <anchor x="259" y="545" name="_top"/>
  <outline>
    <contour>
      <point x="40" y="601" type="line"/>
      <point x="232" y="601" type="line"/>
      <point x="232" y="729" type="line"/>
      <point x="40" y="729" type="line"/>
    </contour>
    <contour>
      <point x="288" y="601" type="line"/>
      <point x="481" y="601" type="line"/>
      <point x="481" y="729" type="line"/>
      <point x="288" y="729" type="line"/>
    </contour>
  </outline>
</glyph>
<glyph name="hookabovecomb" format="2">
  <unicode hex="0309"/>
  <anchor x="153" y="545" name="_top"/>
  <outline>
    <contour>
      <point x="112" y="587" type="line"/>
      <point x="252" y="620"/>
      <point x="320" y="665"/>
      <point x="320" y="747" type="curve" smooth="yes"/>
      <point x="320" y="813"/>
      <point x="265" y="857"/>
      <point x="147" y="857" type="curve" smooth="yes"/>
      <point x="110" y="857"/>
      <point x="72" y="853"/>
      <point x="40" y="845" type="curve"/>
      <point x="40" y="748" type="line"/>
      <point x="57" y="753"/>
      <point x="78" y="755"/>
      <point x="96" y="755" type="curve" smooth="yes"/>
      <point x="119" y="755"/>
      <point x="140" y="750"/>
      <point x="140" y="730" type="curve" smooth="yes"/>
      <point x="140" y="712"/>
      <point x="126" y="698"/>
      <point x="67" y="682" type="curve"/>
    </contour>
  </outline>
</glyph>
<glyph name="ringcomb" format="2">
  <unicode hex="030A"/>
  <anchor x="185" y="545" name="_top"/>
  <outline>
    <contour>
      <point x="186" y="591" type="curve" smooth="yes"/>
      <point x="271" y="591"/>
      <point x="329" y="634"/>
      <point x="329" y="712" type="curve" smooth="yes"/>
      <point x="329" y="783"/>
      <point x="276" y="832"/>
      <point x="186" y="832" type="curve" smooth="yes"/>
      <point x="97" y="832"/>
      <point x="40" y="788"/>
      <point x="40" y="712" type="curve" smooth="yes"/>
      <point x="40" y="637"/>
      <point x="92" y="591"/>
    </contour>
    <contour>
      <point x="186" y="674" type="curve" smooth="yes"/>
      <point x="161" y="674"/>
      <point x="148" y="690"/>
      <point x="148" y="712" type="curve" smooth="yes"/>
      <point x="148" y="733"/>
      <point x="161" y="749"/>
      <point x="186" y="749" type="curve" smooth="yes"/>
      <point x="207" y="749"/>
      <point x="222" y="733"/>
      <point x="222" y="712" type="curve" smooth="yes"/>
      <point x="222" y="688"/>
      <point x="210" y="674"/>
    </contour>
  </outline>
</glyph>
<glyph name="hungarumlautcomb" format="2">
  <unicode hex="030B"/>
  <anchor x="230" y="545" name="_top"/>
  <outline>
    <contour>
      <point x="40" y="601" type="line"/>
      <point x="208" y="601" type="line"/>
      <point x="312" y="729" type="line"/>
      <point x="100" y="729" type="line"/>
    </contour>
    <contour>
      <point x="265" y="601" type="line"/>
      <point x="447" y="601" type="line"/>
      <point x="585" y="729" type="line"/>
      <point x="356" y="729" type="line"/>
    </contour>
  </outline>
</glyph>
<glyph name="caroncomb" format="2">
  <unicode hex="030C"/>
  <anchor x="325" y="545" name="_top"/>
  <outline>
    <contour>
      <point x="208" y="597" type="line"/>
      <point x="442" y="597" type="line"/>
      <point x="606" y="725" type="line"/>
      <point x="403" y="725" type="line"/>
      <point x="325" y="682" type="line"/>
      <point x="246" y="725" type="line"/>
      <point x="40" y="725" type="line"/>
    </contour>
  </outline>
</glyph>
<glyph name="commaturnedabovecomb" format="2">
  <unicode hex="0312"/>
  <anchor x="151" y="545" name="_top"/>
  <outline>
    <contour>
      <point x="40" y="602" type="line"/>
      <point x="261" y="602" type="line"/>
      <point x="261" y="746" type="line"/>
      <point x="174" y="746" type="line"/>
      <point x="294" y="878" type="line"/>
      <point x="130" y="878" type="line"/>
      <point x="40" y="726" type="line"/>
    </contour>
  </outline>
</glyph>
<glyph name="horncomb" format="2">
  <unicode hex="031B"/>
  <anchor x="40" y="570" name="_topright"/>
  <outline>
    <contour>
      <point x="40" y="461" type="line"/>
      <point x="231" y="461"/>
      <point x="327" y="515"/>
      <point x="327" y="633" type="curve" smooth="yes"/>
      <point x="327" y="685" type="line"/>
      <point x="142" y="685" type="line"/>
      <point x="142" y="651" type="line" smooth="yes"/>
      <point x="142" y="588"/>
      <point x="106" y="572"/>
      <point x="40" y="570" type="curve"/>
    </contour>
  </outline>
</glyph>
<glyph name="commaaccentcomb" format="2">
  <unicode hex="0326"/>
  <anchor x="168" y="0" name="_bottom"/>
  <outline>
    <contour>
      <point x="40" y="-315" type="line"/>
      <point x="199" y="-315" type="line"/>
      <point x="286" y="-166" type="line"/>
      <point x="286" y="-47" type="line"/>
      <point x="50" y="-47" type="line"/>
      <point x="50" y="-181" type="line"/>
      <point x="155" y="-181" type="line"/>
    </contour>
  </outline>
</glyph>
<glyph name="cedillacomb" format="2">
  <unicode hex="0327"/>
  <anchor x="213" y="0" name="_bottom"/>
  <outline>
    <contour>
      <point x="211" y="-251" type="curve" smooth="yes"/>
      <point x="314" y="-251"/>
      <point x="383" y="-209"/>
      <point x="383" y="-133" type="curve" smooth="yes"/>
      <point x="383" y="-39"/>
      <point x="289" y="-22"/>
      <point x="219" y="-33" type="curve"/>
      <point x="255" y="-42" type="line"/>
      <point x="267" y="11" type="line"/>
      <point x="154" y="11" type="line"/>
      <point x="138" y="-65" type="line"/>
      <point x="188" y="-88" type="line"/>
      <point x="213" y="-81"/>
      <point x="257" y="-85"/>
      <point x="257" y="-121" type="curve" smooth="yes"/>
      <point x="257" y="-142"/>
      <point x="242" y="-157"/>
      <point x="211" y="-157" type="curve" smooth="yes"/>
      <point x="184" y="-157"/>
      <point x="165" y="-144"/>
      <point x="162" y="-121" type="curve"/>
      <point x="40" y="-121" type="line"/>
      <point x="43" y="-198"/>
      <point x="109" y="-251"/>
    </contour>
  </outline>
</glyph>
<glyph name="ogonekcomb" format="2">
  <unicode hex="0328"/>
  <anchor x="277" y="0" name="_ogonek"/>
  <outline>
    <contour>
      <point x="166" y="-218" type="curve" smooth="yes"/>
      <point x="209" y="-218"/>
      <point x="250" y="-207"/>
      <point x="271" y="-193" type="curve"/>
      <point x="273" y="-106" type="line"/>
      <point x="263" y="-114"/>
      <point x="248" y="-119"/>
      <point x="232" y="-119" type="curve" smooth="yes"/>
      <point x="211" y="-119"/>
      <point x="198" y="-109"/>
      <point x="198" y="-91" type="curve" smooth="yes"/>
      <point x="198" y="-58"/>
      <point x="233" y="-32"/>
      <point x="274" y="0" type="curve"/>
      <point x="268" y="15" type="line"/>
      <point x="240" y="41" type="line"/>
      <point x="111" y="7"/>
      <point x="40" y="-50"/>
      <point x="40" y="-120" type="curve" smooth="yes"/>
      <point x="40" y="-179"/>
      <point x="90" y="-218"/>
    </contour>
  </outline>
</glyph>
<glyph name="strokeshortcomb" format="2">
  <unicode hex="0335"/>
  <anchor x="254" y="629" name="_center"/>
  <outline>
    <contour>
      <point x="40" y="566" type="line"/>
      <point x="468" y="566" type="line"/>
      <point x="468" y="693" type="line"/>
      <point x="40" y="693" type="line"/>
    </contour>
  </outline>
</glyph>
<glyph name="strokelongcomb" format="2">
  <unicode hex="0336"/>
  <anchor x="535" y="277" name="_center"/>
  <outline>
    <contour>
      <point x="40" y="205" type="line"/>
      <point x="1030" y="205" type="line"/>
      <point x="1030" y="348" type="line"/>
      <point x="40" y="348" type="line"/>
    </contour>
  </outline>
</glyph>
<glyph name="slashshortcomb" format="2">
  <unicode hex="0337"/>
  <anchor x="213" y="365" name="_center"/>
  <outline>
    <contour>
      <point x="40" y="187" type="line"/>
      <point x="387" y="381" type="line"/>
      <point x="387" y="542" type="line"/>
      <point x="40" y="348" type="line"/>
    </contour>
  </outline>
</glyph>
<glyph name="slashlongcomb" format="2">
  <unicode hex="0338"/>
  <anchor x="383" y="287" name="_center"/>
  <outline>
    <contour>
      <point x="40" y="-20" type="line"/>
      <point x="190" y="-20" type="line"/>
      <point x="727" y="594" type="line"/>
      <point x="577" y="594" type="line"/>
    </contour>
  </outline>
</glyph>
<glyph name="mu" format="2">
  <advance width="768"/>
  <unicode hex="03BC"/>
  <outline>
    <contour>
      <point x="38" y="-132" type="line"/>
      <point x="273" y="-132" type="line"/>
      <point x="273" y="51" type="line"/>
      <point x="217" y="-4" type="line"/>
      <point x="234" y="-9"/>
      <point x="252" y="-11"/>
      <point x="269" y="-11" type="curve" smooth="yes"/>
      <point x="360" y="-11"/>
      <point x="428" y="13"/>
      <point x="481" y="65" type="curve"/>
      <point x="487" y="65" type="line"/>
      <point x="518" y="0" type="line"/>
      <point x="723" y="0" type="line"/>
      <point x="723" y="545" type="line"/>
      <point x="487" y="545" type="line"/>
      <point x="487" y="207" type="line"/>
      <point x="459" y="174"/>
      <point x="419" y="156"/>
      <point x="371" y="156" type="curve" smooth="yes"/>
      <point x="304" y="156"/>
      <point x="273" y="192"/>
      <point x="273" y="251" type="curve" smooth="yes"/>
      <point x="273" y="545" type="line"/>
      <point x="38" y="545" type="line"/>
    </contour>
  </outline>
</glyph>
<glyph name="pi" format="2">
  <advance width="767"/>
  <unicode hex="03C0"/>
  <outline>
    <contour>
      <point x="120" y="0" type="line"/>
      <point x="332" y="0" type="line"/>
      <point x="332" y="363" type="line"/>
      <point x="425" y="363" type="line"/>
      <point x="425" y="138" type="line" smooth="yes"/>
      <point x="425" y="58"/>
      <point x="478" y="0"/>
      <point x="572" y="0" type="curve"/>
      <point x="731" y="0" type="line"/>
      <point x="731" y="172" type="line"/>
      <point x="640" y="172" type="line"/>
      <point x="640" y="363" type="line"/>
      <point x="732" y="363" type="line"/>
      <point x="732" y="545" type="line"/>
      <point x="24" y="545" type="line"/>
      <point x="24" y="363" type="line"/>
      <point x="120" y="363" type="line"/>
    </contour>
  </outline>
</glyph>
<glyph name="Germandbls" format="2">
  <advance width="917"/>
  <unicode hex="1E9E"/>
  <outline>
    <contour>
      <point x="54" y="0" type="line"/>
      <point x="315" y="0" type="line"/>
      <point x="315" y="540" type="line"/>
      <point x="576" y="540" type="line"/>
      <point x="449" y="400" type="line"/>
      <point x="449" y="287" type="line"/>
      <point x="542" y="287" type="line" smooth="yes"/>
      <point x="581" y="287"/>
      <point x="602" y="269"/>
      <point x="602" y="240" type="curve" smooth="yes"/>
      <point x="602" y="228" type="line" smooth="yes"/>
      <point x="602" y="199"/>
      <point x="579" y="181"/>
      <point x="540" y="181" type="curve" smooth="yes"/>
      <point x="388" y="181" type="line"/>
      <point x="388" y="0" type="line"/>
      <point x="587" y="0" type="line" smooth="yes"/>
      <point x="768" y="0"/>
      <point x="890" y="66"/>
      <point x="890" y="209" type="curve" smooth="yes"/>
      <point x="890" y="321"/>
      <point x="808" y="397"/>
      <point x="676" y="397" type="curve" smooth="yes"/>
      <point x="651" y="397" type="line"/>
      <point x="709" y="358" type="line"/>
      <point x="709" y="404" type="line"/>
      <point x="826" y="527" type="line"/>
      <point x="826" y="729" type="line"/>
      <point x="54" y="729" type="line"/>
    </contour>
  </outline>
</glyph>
<glyph name="emdash" format="2">
  <advance width="778"/>
  <unicode hex="2014"/>
  <outline>
    <contour>
      <point x="32" y="236" type="line"/>
      <point x="746" y="236" type="line"/>
      <point x="746" y="410" type="line"/>
      <point x="32" y="410" type="line"/>
    </contour>
  </outline>
</glyph>
<glyph name="bullet" format="2">
  <advance width="306"/>
  <unicode hex="2022"/>
  <outline>
    <contour>
      <point x="14" y="277" type="curve" smooth="yes"/>
      <point x="14" y="199"/>
      <point x="74" y="139"/>
      <point x="154" y="139" type="curve" smooth="yes"/>
      <point x="236" y="139"/>
      <point x="291" y="199"/>
      <point x="291" y="277" type="curve" smooth="yes"/>
      <point x="291" y="356"/>
      <point x="236" y="414"/>
      <point x="154" y="414" type="curve" smooth="yes"/>
      <point x="74" y="414"/>
      <point x="14" y="356"/>
    </contour>
  </outline>
</glyph>
<glyph name="guilsinglleft" format="2">
  <advance width="409"/>
  <unicode hex="2039"/>
  <anchor x="-10" y="0" name="#entry"/>
  <anchor x="298" y="0" name="#exit"/>
  <outline>
    <contour>
      <point x="189" y="56" type="line"/>
      <point x="382" y="56" type="line"/>
      <point x="252" y="303" type="line"/>
      <point x="382" y="545" type="line"/>
      <point x="189" y="545" type="line"/>
      <point x="26" y="303" type="line"/>
    </contour>
  </outline>
</glyph>
<glyph name="zeroinferior" format="2">
  <advance width="520"/>
  <unicode hex="2080"/>
  <outline>
    <contour>
      <point x="260" y="-70" type="curve" smooth="yes"/>
      <point x="404" y="-70"/>
      <point x="493" y="16"/>
      <point x="493" y="153" type="curve" smooth="yes"/>
      <point x="493" y="164" type="line" smooth="yes"/>
      <point x="493" y="293"/>
      <point x="412" y="387"/>
      <point x="260" y="387" type="curve" smooth="yes"/>
      <point x="118" y="387"/>
      <point x="27" y="302"/>
      <point x="27" y="164" type="curve" smooth="yes"/>
      <point x="27" y="153" type="line" smooth="yes"/>
      <point x="27" y="25"/>
      <point x="108" y="-70"/>
    </contour>
    <contour>
      <point x="260" y="58" type="curve" smooth="yes"/>
      <point x="217" y="58"/>
      <point x="197" y="85"/>
      <point x="197" y="127" type="curve" smooth="yes"/>
      <point x="197" y="192" type="line" smooth="yes"/>
      <point x="197" y="231"/>
      <point x="216" y="260"/>
      <point x="260" y="260" type="curve" smooth="yes"/>
      <point x="304" y="260"/>
      <point x="324" y="231"/>
      <point x="324" y="192" type="curve" smooth="yes"/>
      <point x="324" y="127" type="line" smooth="yes"/>
      <point x="324" y="85"/>
      <point x="303" y="58"/>
    </contour>
  </outline>
</glyph>
<glyph name="twoinferior" format="2">
  <advance width="463"/>
  <unicode hex="2082"/>
  <outline>
    <contour>
      <point x="38" y="-60" type="line"/>
      <point x="432" y="-60" type="line"/>
      <point x="432" y="63" type="line"/>
      <point x="295" y="63" type="line"/>
      <point x="277" y="63" type="line"/>
      <point x="277" y="63" type="line"/>
      <point x="286" y="69" type="line"/>
      <point x="320" y="86" type="line" smooth="yes"/>
      <point x="394" y="126"/>
      <point x="427" y="167"/>
      <point x="427" y="234" type="curve" smooth="yes"/>
      <point x="427" y="324"/>
      <point x="355" y="385"/>
      <point x="237" y="385" type="curve" smooth="yes"/>
      <point x="115" y="385"/>
      <point x="30" y="322"/>
      <point x="22" y="224" type="curve"/>
      <point x="188" y="224" type="line"/>
      <point x="188" y="246"/>
      <point x="204" y="256"/>
      <point x="224" y="256" type="curve" smooth="yes"/>
      <point x="242" y="256"/>
      <point x="258" y="242"/>
      <point x="258" y="223" type="curve" smooth="yes"/>
      <point x="258" y="220" type="line" smooth="yes"/>
      <point x="258" y="205"/>
      <point x="248" y="190"/>
      <point x="225" y="173" type="curve" smooth="yes"/>
      <point x="38" y="49" type="line"/>
    </contour>
  </outline>
</glyph>
<glyph name="threeinferior" format="2">
  <advance width="458"/>
  <unicode hex="2083"/>
  <outline>
    <contour>
      <point x="218" y="-70" type="curve" smooth="yes"/>
      <point x="343" y="-70"/>
      <point x="434" y="-23"/>
      <point x="434" y="64" type="curve" smooth="yes"/>
      <point x="434" y="127"/>
      <point x="391" y="158"/>
      <point x="342" y="170" type="curve"/>
      <point x="342" y="173" type="line"/>
      <point x="385" y="186"/>
      <point x="418" y="218"/>
      <point x="418" y="266" type="curve" smooth="yes"/>
      <point x="418" y="337"/>
      <point x="354" y="387"/>
      <point x="232" y="387" type="curve" smooth="yes"/>
      <point x="109" y="387"/>
      <point x="31" y="332"/>
      <point x="28" y="248" type="curve"/>
      <point x="178" y="248" type="line"/>
      <point x="182" y="266"/>
      <point x="194" y="273"/>
      <point x="218" y="273" type="curve" smooth="yes"/>
      <point x="235" y="273"/>
      <point x="252" y="264"/>
      <point x="252" y="246" type="curve" smooth="yes"/>
      <point x="252" y="239" type="line" smooth="yes"/>
      <point x="252" y="221"/>
      <point x="234" y="209"/>
      <point x="209" y="209" type="curve" smooth="yes"/>
      <point x="173" y="209" type="line"/>
      <point x="173" y="109" type="line"/>
      <point x="218" y="109" type="line" smooth="yes"/>
      <point x="240" y="109"/>
      <point x="262" y="104"/>
      <point x="262" y="81" type="curve" smooth="yes"/>
      <point x="262" y="75" type="line" smooth="yes"/>
      <point x="262" y="57"/>
      <point x="247" y="46"/>
      <point x="222" y="46" type="curve" smooth="yes"/>
      <point x="196" y="46"/>
      <point x="180" y="56"/>
      <point x="180" y="72" type="curve"/>
      <point x="22" y="72" type="line"/>
      <point x="26" y="-14"/>
      <point x="94" y="-70"/>
    </contour>
  </outline>
</glyph>
<glyph name="fourinferior" format="2">
  <advance width="492"/>
  <unicode hex="2084"/>
  <outline>
    <contour>
      <point x="246" y="-60" type="line"/>
      <point x="415" y="-60" type="line"/>
      <point x="415" y="17" type="line"/>
      <point x="468" y="17" type="line"/>
      <point x="468" y="142" type="line"/>
      <point x="415" y="142" type="line"/>
      <point x="415" y="217" type="line"/>
      <point x="278" y="217" type="line"/>
      <point x="257" y="142" type="line"/>
      <point x="210" y="142" type="line"/>
      <point x="210" y="147" type="line"/>
      <point x="338" y="377" type="line"/>
      <point x="171" y="377" type="line"/>
      <point x="23" y="116" type="line"/>
      <point x="23" y="17" type="line"/>
      <point x="246" y="17" type="line"/>
    </contour>
  </outline>
</glyph>
<glyph name="fiveinferior" format="2">
  <advance width="470"/>
  <unicode hex="2085"/>
  <outline>
    <contour>
      <point x="231" y="-70" type="curve" smooth="yes"/>
      <point x="356" y="-70"/>
      <point x="447" y="-13"/>
      <point x="447" y="88" type="curve" smooth="yes"/>
      <point x="447" y="173"/>
      <point x="389" y="226"/>
      <point x="290" y="226" type="curve" smooth="yes"/>
      <point x="260" y="226"/>
      <point x="230" y="221"/>
      <point x="208" y="207" type="curve"/>
      <point x="202" y="207" type="line"/>
      <point x="208" y="254" type="line"/>
      <point x="415" y="254" type="line"/>
      <point x="415" y="377" type="line"/>
      <point x="55" y="377" type="line"/>
      <point x="35" y="103" type="line"/>
      <point x="179" y="99" type="line"/>
      <point x="186" y="113"/>
      <point x="206" y="124"/>
      <point x="232" y="124" type="curve" smooth="yes"/>
      <point x="250" y="124"/>
      <point x="278" y="118"/>
      <point x="278" y="90" type="curve" smooth="yes"/>
      <point x="278" y="84" type="line" smooth="yes"/>
      <point x="278" y="61"/>
      <point x="260" y="48"/>
      <point x="229" y="48" type="curve" smooth="yes"/>
      <point x="209" y="48"/>
      <point x="190" y="53"/>
      <point x="185" y="60" type="curve"/>
      <point x="29" y="60" type="line"/>
      <point x="35" y="-19"/>
      <point x="110" y="-70"/>
    </contour>
  </outline>
</glyph>
<glyph name="sixinferior" format="2">
  <advance width="491"/>
  <unicode hex="2086"/>
  <outline>
    <contour>
      <point x="246" y="-67" type="curve" smooth="yes"/>
      <point x="376" y="-67"/>
      <point x="465" y="-11"/>
      <point x="465" y="87" type="curve" smooth="yes"/>
      <point x="465" y="170"/>
      <point x="406" y="227"/>
      <point x="306" y="227" type="curve" smooth="yes"/>
      <point x="256" y="227"/>
      <point x="218" y="211"/>
      <point x="203" y="196" type="curve"/>
      <point x="193" y="196" type="line"/>
      <point x="194" y="204"/>
      <point x="195" y="217"/>
      <point x="195" y="230" type="curve" smooth="yes"/>
      <point x="195" y="260"/>
      <point x="216" y="274"/>
      <point x="258" y="274" type="curve" smooth="yes"/>
      <point x="283" y="274"/>
      <point x="306" y="265"/>
      <point x="307" y="249" type="curve"/>
      <point x="461" y="249" type="line"/>
      <point x="451" y="332"/>
      <point x="378" y="385"/>
      <point x="257" y="385" type="curve" smooth="yes"/>
      <point x="119" y="385"/>
      <point x="29" y="312"/>
      <point x="29" y="190" type="curve" smooth="yes"/>
      <point x="29" y="135" type="line" smooth="yes"/>
      <point x="29" y="11"/>
      <point x="94" y="-67"/>
    </contour>
    <contour>
      <point x="244" y="54" type="curve" smooth="yes"/>
      <point x="218" y="54"/>
      <point x="195" y="67"/>
      <point x="195" y="94" type="curve" smooth="yes"/>
      <point x="195" y="111" type="line"/>
      <point x="210" y="124"/>
      <point x="231" y="126"/>
      <point x="248" y="126" type="curve" smooth="yes"/>
      <point x="272" y="126"/>
      <point x="294" y="116"/>
      <point x="294" y="95" type="curve" smooth="yes"/>
      <point x="294" y="89" type="line" smooth="yes"/>
      <point x="294" y="66"/>
      <point x="273" y="54"/>
    </contour>
  </outline>
</glyph>
<glyph name="seveninferior" format="2">
  <advance width="471"/>
  <unicode hex="2087"/>
  <outline>
    <contour>
      <point x="282" y="-60" type="line"/>
      <point x="446" y="248" type="line"/>
      <point x="446" y="377" type="line"/>
      <point x="27" y="377" type="line"/>
      <point x="27" y="192" type="line"/>
      <point x="144" y="192" type="line"/>
      <point x="144" y="253" type="line"/>
      <point x="266" y="253" type="line"/>
      <point x="266" y="241" type="line"/>
      <point x="89" y="-60" type="line"/>
    </contour>
  </outline>
</glyph>
<glyph name="eightinferior" format="2">
  <advance width="481"/>
  <unicode hex="2088"/>
  <outline>
    <contour>
      <point x="241" y="-70" type="curve" smooth="yes"/>
      <point x="388" y="-70"/>
      <point x="457" y="-17"/>
      <point x="457" y="61" type="curve" smooth="yes"/>
      <point x="457" y="116"/>
      <point x="422" y="154"/>
      <point x="367" y="171" type="curve"/>
      <point x="367" y="175" type="line"/>
      <point x="414" y="187"/>
      <point x="443" y="218"/>
      <point x="443" y="263" type="curve" smooth="yes"/>
      <point x="443" y="340"/>
      <point x="368" y="387"/>
      <point x="241" y="387" type="curve" smooth="yes"/>
      <point x="115" y="387"/>
      <point x="39" y="340"/>
      <point x="39" y="263" type="curve" smooth="yes"/>
      <point x="39" y="217"/>
      <point x="68" y="187"/>
      <point x="117" y="175" type="curve"/>
      <point x="117" y="171" type="line"/>
      <point x="66" y="155"/>
      <point x="24" y="120"/>
      <point x="24" y="61" type="curve" smooth="yes"/>
      <point x="24" y="-17"/>
      <point x="95" y="-70"/>
    </contour>
    <contour>
      <point x="241" y="43" type="curve" smooth="yes"/>
      <point x="214" y="43"/>
      <point x="195" y="56"/>
      <point x="195" y="75" type="curve" smooth="yes"/>
      <point x="195" y="82" type="line" smooth="yes"/>
      <point x="195" y="102"/>
      <point x="216" y="115"/>
      <point x="241" y="115" type="curve" smooth="yes"/>
      <point x="265" y="115"/>
      <point x="286" y="102"/>
      <point x="286" y="82" type="curve" smooth="yes"/>
      <point x="286" y="75" type="line" smooth="yes"/>
      <point x="286" y="56"/>
      <point x="269" y="43"/>
    </contour>
    <contour>
      <point x="241" y="211" type="curve" smooth="yes"/>
      <point x="221" y="211"/>
      <point x="204" y="221"/>
      <point x="204" y="240" type="curve" smooth="yes"/>
      <point x="204" y="245" type="line" smooth="yes"/>
      <point x="204" y="264"/>
      <point x="219" y="274"/>
      <point x="241" y="274" type="curve" smooth="yes"/>
      <point x="264" y="274"/>
      <point x="279" y="264"/>
      <point x="279" y="245" type="curve" smooth="yes"/>
      <point x="279" y="240" type="line" smooth="yes"/>
      <point x="279" y="221"/>
      <point x="262" y="211"/>
    </contour>
  </outline>
</glyph>
<glyph name="sheqel" format="2">
  <advance width="872"/>
  <unicode hex="20AA"/>
  <outline>
    <contour>
      <point x="294" y="0" type="line"/>
      <point x="661" y="0" type="line" smooth="yes"/>
      <point x="748" y="0"/>
      <point x="818" y="30"/>
      <point x="818" y="163" type="curve" smooth="yes"/>
      <point x="818" y="729" type="line"/>
      <point x="622" y="729" type="line"/>
      <point x="622" y="164" type="line"/>
      <point x="420" y="164" type="line"/>
      <point x="420" y="521" type="line"/>
      <point x="294" y="521" type="line"/>
    </contour>
    <contour>
      <point x="59" y="0" type="line"/>
      <point x="255" y="0" type="line"/>
      <point x="255" y="565" type="line"/>
      <point x="456" y="565" type="line"/>
      <point x="456" y="209" type="line"/>
      <point x="581" y="209" type="line"/>
      <point x="581" y="567" type="line" smooth="yes"/>
      <point x="581" y="699"/>
      <point x="516" y="729"/>
      <point x="425" y="729" type="curve" smooth="yes"/>
      <point x="59" y="729" type="line"/>
    </contour>
  </outline>
</glyph>
<glyph name="rupeeIndian" format="2">
  <advance width="757"/>
  <unicode hex="20B9"/>
  <outline>
    <contour>
      <point x="359" y="0" type="line"/>
      <point x="683" y="0" type="line"/>
      <point x="346" y="277" type="line"/>
      <point x="346" y="250" type="line"/>
      <point x="367" y="250" type="line" smooth="yes"/>
      <point x="541" y="250"/>
      <point x="645" y="340"/>
      <point x="644" y="470" type="curve" smooth="yes"/>
      <point x="643" y="524"/>
      <point x="627" y="571"/>
      <point x="591" y="600" type="curve"/>
      <point x="592" y="587" type="line"/>
      <point x="718" y="587" type="line"/>
      <point x="718" y="729" type="line"/>
      <point x="47" y="729" type="line"/>
      <point x="47" y="566" type="line"/>
      <point x="291" y="566" type="line" smooth="yes"/>
      <point x="353" y="566"/>
      <point x="393" y="542"/>
      <point x="393" y="490" type="curve" smooth="yes"/>
      <point x="393" y="469" type="line" smooth="yes"/>
      <point x="393" y="422"/>
      <point x="360" y="391"/>
      <point x="291" y="391" type="curve" smooth="yes"/>
      <point x="47" y="391" type="line"/>
      <point x="47" y="253" type="line"/>
    </contour>
    <contour>
      <point x="47" y="437" type="line"/>
      <point x="498" y="437" type="line"/>
      <point x="498" y="522" type="line"/>
      <point x="47" y="522" type="line"/>
    </contour>
    <contour>
      <point x="498" y="419" type="line"/>
      <point x="718" y="419" type="line"/>
      <point x="718" y="540" type="line"/>
      <point x="498" y="540" type="line"/>
    </contour>
  </outline>
</glyph>
<glyph name="liraTurkish" format="2">
  <advance width="832"/>
  <unicode hex="20BA"/>
  <outline>
    <contour>
      <point x="122" y="0" type="line"/>
      <point x="306" y="0" type="line" smooth="yes"/>
      <point x="578" y="0"/>
      <point x="778" y="93"/>
      <point x="801" y="366" type="curve"/>
      <point x="557" y="366" type="line"/>
      <point x="547" y="275"/>
      <point x="494" y="217"/>
      <point x="348" y="216" type="curve"/>
      <point x="348" y="729" type="line"/>
      <point x="122" y="729" type="line"/>
    </contour>
    <contour>
      <point x="43" y="189" type="line"/>
      <point x="494" y="339" type="line"/>
      <point x="494" y="501" type="line"/>
      <point x="43" y="353" type="line"/>
    </contour>
    <contour>
      <point x="43" y="409" type="line"/>
      <point x="494" y="558" type="line"/>
      <point x="494" y="722" type="line"/>
      <point x="43" y="570" type="line"/>
    </contour>
  </outline>
</glyph>
<glyph name="literSign" format="2">
  <advance width="591"/>
  <unicode hex="2113"/>
  <outline>
    <contour>
      <point x="315" y="-8" type="curve" smooth="yes"/>
      <point x="424" y="-8"/>
      <point x="518" y="52"/>
      <point x="551" y="136" type="curve"/>
      <point x="408" y="199" type="line"/>
      <point x="394" y="165"/>
      <point x="362" y="146"/>
      <point x="332" y="146" type="curve" smooth="yes"/>
      <point x="282" y="146"/>
      <point x="260" y="191"/>
      <point x="260" y="380" type="curve" smooth="yes"/>
      <point x="260" y="522"/>
      <point x="285" y="559"/>
      <point x="322" y="559" type="curve" smooth="yes"/>
      <point x="342" y="559"/>
      <point x="353" y="542"/>
      <point x="353" y="517" type="curve" smooth="yes"/>
      <point x="353" y="399"/>
      <point x="221" y="297"/>
      <point x="21" y="263" type="curve"/>
      <point x="20" y="130" type="line"/>
      <point x="347" y="174"/>
      <point x="529" y="336"/>
      <point x="529" y="534" type="curve" smooth="yes"/>
      <point x="529" y="655"/>
      <point x="461" y="739"/>
      <point x="341" y="739" type="curve" smooth="yes"/>
      <point x="166" y="739"/>
      <point x="68" y="590"/>
      <point x="68" y="367" type="curve" smooth="yes"/>
      <point x="68" y="147"/>
      <point x="131" y="-8"/>
    </contour>
  </outline>
</glyph>
<glyph name="numero" format="2">
  <advance width="1520"/>
  <unicode hex="2116"/>
  <outline>
    <contour>
      <point x="54" y="0" type="line"/>
      <point x="300" y="0" type="line"/>
      <point x="300" y="463" type="line"/>
      <point x="310" y="463" type="line"/>
      <point x="330" y="421" type="line"/>
      <point x="585" y="0" type="line"/>
      <point x="917" y="0" type="line"/>
      <point x="917" y="729" type="line"/>
      <point x="672" y="729" type="line"/>
      <point x="672" y="286" type="line"/>
      <point x="661" y="286" type="line"/>
      <point x="640" y="329" type="line"/>
      <point x="401" y="729" type="line"/>
      <point x="54" y="729" type="line"/>
    </contour>
    <contour>
      <point x="997" y="138" type="line"/>
      <point x="1456" y="138" type="line"/>
      <point x="1456" y="255" type="line"/>
      <point x="997" y="255" type="line"/>
    </contour>
    <contour>
      <point x="1225" y="300" type="curve" smooth="yes"/>
      <point x="1383" y="300"/>
      <point x="1486" y="381"/>
      <point x="1486" y="519" type="curve" smooth="yes"/>
      <point x="1486" y="656"/>
      <point x="1385" y="739"/>
      <point x="1227" y="739" type="curve" smooth="yes"/>
      <point x="1071" y="739"/>
      <point x="966" y="658"/>
      <point x="966" y="519" type="curve" smooth="yes"/>
      <point x="966" y="384"/>
      <point x="1066" y="300"/>
    </contour>
    <contour>
      <point x="1226" y="439" type="curve" smooth="yes"/>
      <point x="1189" y="439"/>
      <point x="1159" y="452"/>
      <point x="1159" y="519" type="curve" smooth="yes"/>
      <point x="1159" y="588"/>
      <point x="1189" y="601"/>
      <point x="1227" y="601" type="curve" smooth="yes"/>
      <point x="1261" y="601"/>
      <point x="1295" y="589"/>
      <point x="1295" y="519" type="curve" smooth="yes"/>
      <point x="1295" y="452"/>
      <point x="1265" y="439"/>
    </contour>
  </outline>
</glyph>
<glyph name="trademark" format="2">
  <advance width="894"/>
  <unicode hex="2122"/>
  <outline>
    <contour>
      <point x="379" y="415" type="line"/>
      <point x="506" y="415" type="line"/>
      <point x="506" y="497" type="line"/>
      <point x="505" y="572" type="line"/>
      <point x="509" y="572" type="line"/>
      <point x="572" y="415" type="line"/>
      <point x="671" y="415" type="line"/>
      <point x="736" y="572" type="line"/>
      <point x="738" y="572" type="line"/>
      <point x="737" y="497" type="line"/>
      <point x="737" y="415" type="line"/>
      <point x="863" y="415" type="line"/>
      <point x="863" y="729" type="line"/>
      <point x="684" y="729" type="line"/>
      <point x="626" y="579" type="line"/>
      <point x="622" y="579" type="line"/>
      <point x="561" y="729" type="line"/>
      <point x="379" y="729" type="line"/>
    </contour>
    <contour>
      <point x="110" y="415" type="line"/>
      <point x="244" y="415" type="line"/>
      <point x="244" y="614" type="line"/>
      <point x="340" y="614" type="line"/>
      <point x="340" y="729" type="line"/>
      <point x="15" y="729" type="line"/>
      <point x="15" y="614" type="line"/>
      <point x="110" y="614" type="line"/>
    </contour>
  </outline>
</glyph>
<glyph name="arrowup" format="2">
  <advance width="613"/>
  <unicode hex="2191"/>
  <outline>
    <contour>
      <point x="207" y="67" type="line"/>
      <point x="403" y="67" type="line"/>
      <point x="403" y="398" type="line"/>
      <point x="571" y="308" type="line"/>
      <point x="571" y="512" type="line"/>
      <point x="305" y="663" type="line"/>
      <point x="42" y="512" type="line"/>
      <point x="42" y="308" type="line"/>
      <point x="207" y="398" type="line"/>
    </contour>
  </outline>
</glyph>
<glyph name="leftRightArrow" format="2">
  <advance width="880"/>
  <unicode hex="2194"/>
  <outline>
    <contour>
      <point x="188" y="78" type="line"/>
      <point x="391" y="78" type="line"/>
      <point x="302" y="245" type="line"/>
      <point x="577" y="245" type="line"/>
      <point x="488" y="78" type="line"/>
      <point x="691" y="78" type="line"/>
      <point x="843" y="344" type="line"/>
      <point x="691" y="607" type="line"/>
      <point x="488" y="607" type="line"/>
      <point x="577" y="443" type="line"/>
      <point x="302" y="443" type="line"/>
      <point x="391" y="607" type="line"/>
      <point x="188" y="607" type="line"/>
      <point x="37" y="344" type="line"/>
    </contour>
  </outline>
</glyph>
<glyph name="emptyset" format="2">
  <advance width="763"/>
  <unicode hex="2205"/>
  <outline>
    <contour>
      <point x="625" y="560" type="line"/>
      <point x="102" y="239" type="line"/>
      <point x="121" y="170" type="line"/>
      <point x="663" y="500" type="line"/>
    </contour>
    <contour>
      <point x="382" y="0" type="curve" smooth="yes"/>
      <point x="586" y="0"/>
      <point x="741" y="149"/>
      <point x="741" y="366" type="curve" smooth="yes"/>
      <point x="741" y="579"/>
      <point x="586" y="729"/>
      <point x="382" y="729" type="curve" smooth="yes"/>
      <point x="177" y="729"/>
      <point x="22" y="580"/>
      <point x="22" y="366" type="curve" smooth="yes"/>
      <point x="22" y="149"/>
      <point x="177" y="0"/>
    </contour>
    <contour>
      <point x="382" y="74" type="curve" smooth="yes"/>
      <point x="225" y="74"/>
      <point x="102" y="194"/>
      <point x="102" y="366" type="curve" smooth="yes"/>
      <point x="102" y="537"/>
      <point x="225" y="655"/>
      <point x="382" y="655" type="curve" smooth="yes"/>
      <point x="542" y="655"/>
      <point x="664" y="537"/>
      <point x="664" y="366" type="curve" smooth="yes"/>
      <point x="664" y="194"/>
      <point x="542" y="74"/>
    </contour>
  </outline>
</glyph>
<glyph name="product" format="2">
  <advance width="808"/>
  <unicode hex="220F"/>
  <outline>
    <contour>
      <point x="45" y="-92" type="line"/>
      <point x="281" y="-92" type="line"/>
      <point x="281" y="523" type="line"/>
      <point x="528" y="523" type="line"/>
      <point x="528" y="-92" type="line"/>
      <point x="763" y="-92" type="line"/>
      <point x="763" y="729" type="line"/>
      <point x="45" y="729" type="line"/>
    </contour>
  </outline>
</glyph>
<glyph name="summation" format="2">
  <advance width="701"/>
  <unicode hex="2211"/>
  <outline>
    <contour>
      <point x="30" y="-92" type="line"/>
      <point x="671" y="-92" type="line"/>
      <point x="671" y="103" type="line"/>
      <point x="339" y="103" type="line"/>
      <point x="339" y="112" type="line"/>
      <point x="586" y="318" type="line"/>
      <point x="339" y="525" type="line"/>
      <point x="339" y="534" type="line"/>
      <point x="671" y="534" type="line"/>
      <point x="671" y="729" type="line"/>
      <point x="30" y="729" type="line"/>
      <point x="30" y="522" type="line"/>
      <point x="257" y="332" type="line"/>
      <point x="257" y="305" type="line"/>
      <point x="30" y="116" type="line"/>
    </contour>
  </outline>
</glyph>
<glyph name="minus" format="2">
  <advance width="721"/>
  <unicode hex="2212"/>
  <outline>
    <contour>
      <point x="114" y="276" type="line"/>
      <point x="612" y="276" type="line"/>
      <point x="612" y="454" type="line"/>
      <point x="114" y="454" type="line"/>
    </contour>
  </outline>
</glyph>
<glyph name="radical" format="2">
  <advance width="780"/>
  <unicode hex="221A"/>
  <outline>
    <contour>
      <point x="218" y="-92" type="line"/>
      <point x="467" y="-92" type="line"/>
      <point x="765" y="729" type="line"/>
      <point x="507" y="729" type="line"/>
      <point x="308" y="136" type="line"/>
      <point x="297" y="136" type="line"/>
      <point x="225" y="389" type="line"/>
      <point x="20" y="389" type="line"/>
      <point x="20" y="225" type="line"/>
      <point x="115" y="225" type="line"/>
    </contour>
  </outline>
</glyph>
<glyph name="infinity" format="2">
  <advance width="948"/>
  <unicode hex="221E"/>
  <outline>
    <contour>
      <point x="267" y="107" type="curve" smooth="yes"/>
      <point x="358" y="107"/>
      <point x="430" y="150"/>
      <point x="473" y="217" type="curve"/>
      <point x="514" y="149"/>
      <point x="586" y="107"/>
      <point x="673" y="107" type="curve" smooth="yes"/>
      <point x="818" y="107"/>
      <point x="923" y="206"/>
      <point x="923" y="361" type="curve" smooth="yes"/>
      <point x="923" y="518"/>
      <point x="820" y="625"/>
      <point x="673" y="625" type="curve" smooth="yes"/>
      <point x="583" y="625"/>
      <point x="511" y="570"/>
      <point x="473" y="505" type="curve"/>
      <point x="429" y="574"/>
      <point x="353" y="625"/>
      <point x="270" y="625" type="curve" smooth="yes"/>
      <point x="124" y="625"/>
      <point x="25" y="517"/>
      <point x="25" y="361" type="curve" smooth="yes"/>
      <point x="25" y="208"/>
      <point x="125" y="107"/>
    </contour>
    <contour>
      <point x="283" y="306" type="curve" smooth="yes"/>
      <point x="245" y="306"/>
      <point x="224" y="336"/>
      <point x="224" y="366" type="curve" smooth="yes"/>
      <point x="224" y="398"/>
      <point x="246" y="426"/>
      <point x="283" y="426" type="curve" smooth="yes"/>
      <point x="328" y="426"/>
      <point x="363" y="389"/>
      <point x="378" y="366" type="curve"/>
      <point x="355" y="335"/>
      <point x="320" y="306"/>
    </contour>
    <contour>
      <point x="658" y="306" type="curve" smooth="yes"/>
      <point x="618" y="306"/>
      <point x="582" y="340"/>
      <point x="566" y="366" type="curve"/>
      <point x="581" y="389"/>
      <point x="617" y="426"/>
      <point x="658" y="426" type="curve" smooth="yes"/>
      <point x="695" y="426"/>
      <point x="718" y="399"/>
      <point x="718" y="366" type="curve" smooth="yes"/>
      <point x="718" y="338"/>
      <point x="697" y="306"/>
    </contour>
  </outline>
</glyph>
<glyph name="integral" format="2">
  <advance width="547"/>
  <unicode hex="222B"/>
  <outline>
    <contour>
      <point x="20" y="-92" type="line"/>
      <point x="218" y="-92" type="line" smooth="yes"/>
      <point x="327" y="-92"/>
      <point x="389" y="-27"/>
      <point x="389" y="81" type="curve" smooth="yes"/>
      <point x="389" y="555" type="line"/>
      <point x="527" y="555" type="line"/>
      <point x="527" y="729" type="line"/>
      <point x="324" y="729" type="line" smooth="yes"/>
      <point x="217" y="729"/>
      <point x="155" y="663"/>
      <point x="155" y="558" type="curve" smooth="yes"/>
      <point x="155" y="83" type="line"/>
      <point x="20" y="83" type="line"/>
    </contour>
  </outline>
</glyph>
<glyph name="approxequal" format="2">
  <advance width="721"/>
  <unicode hex="2248"/>
  <outline>
    <contour>
      <point x="101" y="390" type="curve"/>
      <point x="205" y="390" type="line"/>
      <point x="201" y="410"/>
      <point x="214" y="447"/>
      <point x="258" y="447" type="curve" smooth="yes"/>
      <point x="317" y="447"/>
      <point x="358" y="374"/>
      <point x="471" y="374" type="curve" smooth="yes"/>
      <point x="542" y="374"/>
      <point x="636" y="423"/>
      <point x="622" y="602" type="curve"/>
      <point x="518" y="602" type="line"/>
      <point x="517" y="574"/>
      <point x="501" y="542"/>
      <point x="457" y="542" type="curve" smooth="yes"/>
      <point x="385" y="542"/>
      <point x="344" y="612"/>
      <point x="250" y="612" type="curve" smooth="yes"/>
      <point x="163" y="612"/>
      <point x="89" y="543"/>
    </contour>
    <contour>
      <point x="101" y="137" type="curve"/>
      <point x="205" y="137" type="line"/>
      <point x="201" y="157"/>
      <point x="217" y="196"/>
      <point x="258" y="196" type="curve" smooth="yes"/>
      <point x="317" y="196"/>
      <point x="358" y="122"/>
      <point x="471" y="122" type="curve" smooth="yes"/>
      <point x="544" y="122"/>
      <point x="637" y="173"/>
      <point x="622" y="350" type="curve"/>
      <point x="518" y="350" type="line"/>
      <point x="517" y="325"/>
      <point x="502" y="292"/>
      <point x="457" y="292" type="curve" smooth="yes"/>
      <point x="385" y="292"/>
      <point x="344" y="357"/>
      <point x="250" y="357" type="curve" smooth="yes"/>
      <point x="162" y="357"/>
      <point x="89" y="292"/>
    </contour>
  </outline>
</glyph>
<glyph name="notequal" format="2">
  <advance width="721"/>
  <unicode hex="2260"/>
  <outline>
    <contour>
      <point x="118" y="55" type="line"/>
      <point x="267" y="55" type="line"/>
      <point x="603" y="667" type="line"/>
      <point x="454" y="667" type="line"/>
    </contour>
    <contour>
      <point x="86" y="148" type="line"/>
      <point x="635" y="148" type="line"/>
      <point x="635" y="327" type="line"/>
      <point x="86" y="327" type="line"/>
    </contour>
    <contour>
      <point x="86" y="402" type="line"/>
      <point x="635" y="402" type="line"/>
      <point x="635" y="581" type="line"/>
      <point x="86" y="581" type="line"/>
    </contour>
  </outline>
</glyph>
<glyph name="lessequal" format="2">
  <advance width="721"/>
  <unicode hex="2264"/>
  <outline>
    <contour>
      <point x="632" y="167" type="line"/>
      <point x="632" y="360" type="line"/>
      <point x="299" y="416" type="line"/>
      <point x="299" y="428" type="line"/>
      <point x="632" y="481" type="line"/>
      <point x="632" y="676" type="line"/>
      <point x="87" y="540" type="line"/>
      <point x="87" y="306" type="line"/>
    </contour>
    <contour>
      <point x="87" y="0" type="line"/>
      <point x="632" y="0" type="line"/>
      <point x="632" y="150" type="line"/>
      <point x="87" y="150" type="line"/>
    </contour>
  </outline>
</glyph>
<glyph name="greaterequal" format="2">
  <advance width="721"/>
  <unicode hex="2265"/>
  <outline>
    <contour>
      <point x="36" y="167" type="line"/>
      <point x="581" y="306" type="line"/>
      <point x="581" y="540" type="line"/>
      <point x="36" y="676" type="line"/>
      <point x="36" y="481" type="line"/>
      <point x="370" y="428" type="line"/>
      <point x="370" y="416" type="line"/>
      <point x="36" y="360" type="line"/>
    </contour>
    <contour>
      <point x="36" y="0" type="line"/>
      <point x="581" y="0" type="line"/>
      <point x="581" y="150" type="line"/>
      <point x="36" y="150" type="line"/>
    </contour>
  </outline>
</glyph>
<glyph name="whiteCircle" format="2">
  <advance width="914"/>
  <unicode hex="25CB"/>
  <anchor x="457" y="365" name="center"/>
  <outline>
    <contour>
      <point x="459" y="-30" type="curve" smooth="yes"/>
      <point x="706" y="-30"/>
      <point x="881" y="128"/>
      <point x="881" y="362" type="curve" smooth="yes"/>
      <point x="881" y="364"/>
      <point x="881" y="366"/>
      <point x="881" y="368" type="curve" smooth="yes"/>
      <point x="881" y="602"/>
      <point x="705" y="759"/>
      <point x="459" y="759" type="curve" smooth="yes"/>
      <point x="208" y="759"/>
      <point x="33" y="602"/>
      <point x="33" y="368" type="curve" smooth="yes"/>
      <point x="33" y="366"/>
      <point x="33" y="364"/>
      <point x="33" y="362" type="curve" smooth="yes"/>
      <point x="33" y="127"/>
      <point x="208" y="-30"/>
    </contour>
    <contour>
      <point x="459" y="39" type="curve" smooth="yes"/>
      <point x="249" y="39"/>
      <point x="111" y="173"/>
      <point x="111" y="362" type="curve" smooth="yes"/>
      <point x="111" y="364"/>
      <point x="111" y="366"/>
      <point x="111" y="368" type="curve" smooth="yes"/>
      <point x="111" y="558"/>
      <point x="249" y="691"/>
      <point x="459" y="691" type="curve" smooth="yes"/>
      <point x="665" y="691"/>
      <point x="804" y="557"/>
      <point x="804" y="368" type="curve" smooth="yes"/>
      <point x="804" y="366"/>
      <point x="804" y="364"/>
      <point x="804" y="362" type="curve" smooth="yes"/>
      <point x="804" y="169"/>
      <point x="663" y="39"/>
    </contour>
  </outline>
</glyph>
<glyph name="blackCircle" format="2">
  <advance width="914"/>
  <unicode hex="25CF"/>
  <anchor x="457" y="365" name="center"/>
  <outline>
    <contour>
      <point x="459" y="-30" type="curve" smooth="yes"/>
      <point x="208" y="-30"/>
      <point x="33" y="127"/>
      <point x="33" y="362" type="curve" smooth="yes"/>
      <point x="33" y="364"/>
      <point x="33" y="366"/>
      <point x="33" y="368" type="curve" smooth="yes"/>
      <point x="33" y="602"/>
      <point x="208" y="759"/>
      <point x="459" y="759" type="curve" smooth="yes"/>
      <point x="705" y="759"/>
      <point x="881" y="602"/>
      <point x="881" y="368" type="curve" smooth="yes"/>
      <point x="881" y="366"/>
      <point x="881" y="364"/>
      <point x="881" y="362" type="curve" smooth="yes"/>
      <point x="881" y="128"/>
      <point x="706" y="-30"/>
    </contour>
  </outline>
</glyph>
<glyph name="whiteFrowningFace" format="2">
  <advance width="814"/>
  <unicode hex="2639"/>
  <outline>
    <contour>
      <point x="408" y="-10" type="curve" smooth="yes"/>
      <point x="626" y="-10"/>
      <point x="787" y="143"/>
      <point x="787" y="367" type="curve" smooth="yes"/>
      <point x="787" y="585"/>
      <point x="626" y="739"/>
      <point x="408" y="739" type="curve" smooth="yes"/>
      <point x="189" y="739"/>
      <point x="27" y="585"/>
      <point x="27" y="367" type="curve" smooth="yes"/>
      <point x="27" y="143"/>
      <point x="189" y="-10"/>
    </contour>
    <contour>
      <point x="253" y="203" type="line"/>
      <point x="281" y="239"/>
      <point x="339" y="264"/>
      <point x="408" y="264" type="curve" smooth="yes"/>
      <point x="476" y="264"/>
      <point x="534" y="239"/>
      <point x="562" y="203" type="curve"/>
      <point x="617" y="223" type="line"/>
      <point x="588" y="286"/>
      <point x="510" y="333"/>
      <point x="408" y="333" type="curve" smooth="yes"/>
      <point x="307" y="333"/>
      <point x="227" y="286"/>
      <point x="199" y="223" type="curve"/>
    </contour>
    <contour>
      <point x="408" y="65" type="curve" smooth="yes"/>
      <point x="228" y="65"/>
      <point x="108" y="187"/>
      <point x="108" y="367" type="curve" smooth="yes"/>
      <point x="108" y="544"/>
      <point x="228" y="664"/>
      <point x="408" y="664" type="curve" smooth="yes"/>
      <point x="587" y="664"/>
      <point x="709" y="544"/>
      <point x="709" y="367" type="curve" smooth="yes"/>
      <point x="709" y="187"/>
      <point x="588" y="65"/>
    </contour>
    <contour>
      <point x="329" y="391" type="curve" smooth="yes"/>
      <point x="354" y="391"/>
      <point x="370" y="407"/>
      <point x="370" y="436" type="curve" smooth="yes"/>
      <point x="370" y="481" type="line" smooth="yes"/>
      <point x="370" y="510"/>
      <point x="354" y="526"/>
      <point x="329" y="526" type="curve" smooth="yes"/>
      <point x="304" y="526"/>
      <point x="288" y="510"/>
      <point x="288" y="481" type="curve" smooth="yes"/>
      <point x="288" y="436" type="line" smooth="yes"/>
      <point x="288" y="407"/>
      <point x="304" y="391"/>
    </contour>
    <contour>
      <point x="485" y="391" type="curve" smooth="yes"/>
      <point x="510" y="391"/>
      <point x="526" y="407"/>
      <point x="526" y="436" type="curve" smooth="yes"/>
      <point x="526" y="481" type="line" smooth="yes"/>
      <point x="526" y="510"/>
      <point x="510" y="526"/>
      <point x="485" y="526" type="curve" smooth="yes"/>
      <point x="461" y="526"/>
      <point x="445" y="510"/>
      <point x="445" y="481" type="curve" smooth="yes"/>
      <point x="445" y="436" type="line" smooth="yes"/>
      <point x="445" y="407"/>
      <point x="461" y="391"/>
    </contour>
  </outline>
</glyph>
<glyph name="whiteSmilingFace" format="2">
  <advance width="814"/>
  <unicode hex="263A"/>
  <outline>
    <contour>
      <point x="408" y="-10" type="curve" smooth="yes"/>
      <point x="626" y="-10"/>
      <point x="787" y="143"/>
      <point x="787" y="367" type="curve" smooth="yes"/>
      <point x="787" y="585"/>
      <point x="626" y="739"/>
      <point x="408" y="739" type="curve" smooth="yes"/>
      <point x="189" y="739"/>
      <point x="27" y="585"/>
      <point x="27" y="367" type="curve" smooth="yes"/>
      <point x="27" y="143"/>
      <point x="189" y="-10"/>
    </contour>
    <contour>
      <point x="408" y="125" type="curve" smooth="yes"/>
      <point x="524" y="125"/>
      <point x="618" y="195"/>
      <point x="637" y="296" type="curve"/>
      <point x="660" y="296" type="line"/>
      <point x="660" y="333" type="line"/>
      <point x="534" y="333" type="line"/>
      <point x="534" y="296" type="line"/>
      <point x="566" y="296" type="line"/>
      <point x="546" y="234"/>
      <point x="487" y="194"/>
      <point x="408" y="194" type="curve" smooth="yes"/>
      <point x="328" y="194"/>
      <point x="270" y="235"/>
      <point x="251" y="296" type="curve"/>
      <point x="283" y="296" type="line"/>
      <point x="283" y="333" type="line"/>
      <point x="154" y="333" type="line"/>
      <point x="154" y="296" type="line"/>
      <point x="180" y="296" type="line"/>
      <point x="198" y="195"/>
      <point x="291" y="125"/>
    </contour>
    <contour>
      <point x="408" y="65" type="curve" smooth="yes"/>
      <point x="228" y="65"/>
      <point x="108" y="187"/>
      <point x="108" y="367" type="curve" smooth="yes"/>
      <point x="108" y="544"/>
      <point x="228" y="664"/>
      <point x="408" y="664" type="curve" smooth="yes"/>
      <point x="587" y="664"/>
      <point x="709" y="544"/>
      <point x="709" y="367" type="curve" smooth="yes"/>
      <point x="709" y="187"/>
      <point x="588" y="65"/>
    </contour>
    <contour>
      <point x="329" y="391" type="curve" smooth="yes"/>
      <point x="354" y="391"/>
      <point x="370" y="407"/>
      <point x="370" y="436" type="curve" smooth="yes"/>
      <point x="370" y="481" type="line" smooth="yes"/>
      <point x="370" y="510"/>
      <point x="354" y="526"/>
      <point x="329" y="526" type="curve" smooth="yes"/>
      <point x="304" y="526"/>
      <point x="288" y="510"/>
      <point x="288" y="481" type="curve" smooth="yes"/>
      <point x="288" y="436" type="line" smooth="yes"/>
      <point x="288" y="407"/>
      <point x="304" y="391"/>
    </contour>
    <contour>
      <point x="485" y="391" type="curve" smooth="yes"/>
      <point x="510" y="391"/>
      <point x="526" y="407"/>
      <point x="526" y="436" type="curve" smooth="yes"/>
      <point x="526" y="481" type="line" smooth="yes"/>
      <point x="526" y="510"/>
      <point x="510" y="526"/>
      <point x="485" y="526" type="curve" smooth="yes"/>
      <point x="461" y="526"/>
      <point x="445" y="510"/>
      <point x="445" y="481" type="curve" smooth="yes"/>
      <point x="445" y="436" type="line" smooth="yes"/>
      <point x="445" y="407"/>
      <point x="461" y="391"/>
    </contour>
  </outline>
</glyph>
<glyph name="checkmark" format="2">
  <advance width="841"/>
  <unicode hex="2713"/>
  <outline>
    <contour>
      <point x="296" y="65" type="line"/>
      <point x="792" y="532" type="line"/>
      <point x="682" y="661" type="line"/>
      <point x="310" y="304" type="line"/>
      <point x="170" y="467" type="line"/>
      <point x="49" y="355" type="line"/>
    </contour>
  </outline>
</glyph>
<glyph name="fi" format="2">
  <advance width="742"/>
  <unicode hex="FB01"/>
  <anchor x="371" y="0" name="caret_1"/>
  <outline>
    <contour>
      <point x="116" y="0" type="line"/>
      <point x="352" y="0" type="line"/>
      <point x="352" y="383" type="line"/>
      <point x="461" y="383" type="line"/>
      <point x="461" y="0" type="line"/>
      <point x="697" y="0" type="line"/>
      <point x="697" y="545" type="line"/>
      <point x="352" y="545" type="line"/>
      <point x="352" y="598" type="line"/>
      <point x="697" y="598" type="line"/>
      <point x="697" y="729" type="line"/>
      <point x="272" y="729" type="line" smooth="yes"/>
      <point x="179" y="729"/>
      <point x="116" y="685"/>
      <point x="116" y="604" type="curve" smooth="yes"/>
      <point x="116" y="545" type="line"/>
      <point x="24" y="545" type="line"/>
      <point x="24" y="383" type="line"/>
      <point x="116" y="383" type="line"/>
    </contour>
  </outline>
</glyph>
<glyph name="fl" format="2">
  <advance width="820"/>
  <unicode hex="FB02"/>
  <anchor x="422" y="0" name="caret_1"/>
  <outline>
    <contour>
      <point x="116" y="0" type="line"/>
      <point x="352" y="0" type="line"/>
      <point x="352" y="383" type="line"/>
      <point x="479" y="383" type="line"/>
      <point x="479" y="545" type="line"/>
      <point x="352" y="545" type="line"/>
      <point x="352" y="598" type="line"/>
      <point x="538" y="598" type="line"/>
      <point x="538" y="0" type="line"/>
      <point x="775" y="0" type="line"/>
      <point x="775" y="729" type="line"/>
      <point x="272" y="729" type="line" smooth="yes"/>
      <point x="179" y="729"/>
      <point x="116" y="685"/>
      <point x="116" y="604" type="curve" smooth="yes"/>
      <point x="116" y="545" type="line"/>
      <point x="24" y="545" type="line"/>
      <point x="24" y="383" type="line"/>
      <point x="116" y="383" type="line"/>
    </contour>
  </outline>
</glyph>
<glyph name="I.ss04" format="2">
  <advance width="362"/>
  <note>
I
</note>
  <anchor x="182" y="0" name="bottom"/>
  <anchor x="308" y="0" name="ogonek"/>
  <anchor x="182" y="729" name="top"/>
  <anchor x="8" y="729" name="topleft"/>
  <outline>
    <contour>
      <point x="54" y="0" type="line"/>
      <point x="308" y="0" type="line"/>
      <point x="308" y="729" type="line"/>
      <point x="54" y="729" type="line"/>
    </contour>
  </outline>
</glyph>
<glyph name="_AE.E" format="2">
  <advance width="760"/>
  <anchor x="180" y="0" name="#entry"/>
  <outline>
    <contour>
      <point x="40" y="541" type="line"/>
      <point x="720" y="541" type="line"/>
      <point x="720" y="729" type="line"/>
      <point x="40" y="729" type="line"/>
    </contour>
    <contour>
      <point x="180" y="0" type="line"/>
      <point x="720" y="0" type="line"/>
      <point x="720" y="190" type="line"/>
      <point x="180" y="190" type="line"/>
    </contour>
    <contour>
      <point x="221" y="283" type="line"/>
      <point x="575" y="283" type="line"/>
      <point x="575" y="453" type="line"/>
      <point x="221" y="453" type="line"/>
    </contour>
  </outline>
</glyph>
<glyph name="_Euro.bars" format="2">
  <advance width="676"/>
  <anchor x="553" y="0" name="_bottom"/>
  <outline>
    <contour>
      <point x="636" y="233" type="line"/>
      <point x="636" y="351" type="line"/>
      <point x="307" y="338" type="line"/>
      <point x="307" y="246" type="line"/>
    </contour>
    <contour>
      <point x="40" y="233" type="line"/>
      <point x="307" y="246" type="line"/>
      <point x="307" y="338" type="line"/>
      <point x="40" y="351" type="line"/>
    </contour>
    <contour>
      <point x="40" y="379" type="line"/>
      <point x="307" y="392" type="line"/>
      <point x="307" y="482" type="line"/>
      <point x="40" y="495" type="line"/>
    </contour>
    <contour>
      <point x="636" y="379" type="line"/>
      <point x="636" y="495" type="line"/>
      <point x="307" y="482" type="line"/>
      <point x="307" y="392" type="line"/>
    </contour>
  </outline>
</glyph>
<glyph name="_OE.O" format="2">
  <advance width="753"/>
  <anchor x="614" y="0" name="#exit"/>
  <outline>
    <contour>
      <point x="502" y="0" type="curve" smooth="yes"/>
      <point x="713" y="0" type="line"/>
      <point x="713" y="189" type="line"/>
      <point x="500" y="189" type="line" smooth="yes"/>
      <point x="368" y="189"/>
      <point x="307" y="251"/>
      <point x="307" y="350" type="curve" smooth="yes"/>
      <point x="307" y="380" type="line" smooth="yes"/>
      <point x="307" y="479"/>
      <point x="369" y="541"/>
      <point x="500" y="541" type="curve" smooth="yes"/>
      <point x="713" y="541" type="line"/>
      <point x="713" y="729" type="line"/>
      <point x="502" y="729" type="line" smooth="yes"/>
      <point x="206" y="729"/>
      <point x="32" y="599"/>
      <point x="32" y="371" type="curve" smooth="yes"/>
      <point x="32" y="360" type="line" smooth="yes"/>
      <point x="32" y="130"/>
      <point x="207" y="0"/>
    </contour>
  </outline>
</glyph>
<glyph name="_Stem.Uppercase" format="2">
  <advance width="397"/>
  <outline>
    <contour>
      <point x="69" y="0" type="line"/>
      <point x="330" y="0" type="line"/>
      <point x="330" y="729" type="line"/>
      <point x="69" y="729" type="line"/>
    </contour>
  </outline>
</glyph>
<glyph name="_bitcoin.bars" format="2">
  <advance width="513"/>
  <anchor x="298" y="0" name="_bottom"/>
  <outline>
    <contour>
      <point x="300" y="667" type="line"/>
      <point x="463" y="667" type="line"/>
      <point x="473" y="850" type="line"/>
      <point x="290" y="850" type="line"/>
    </contour>
    <contour>
      <point x="40" y="-121" type="line"/>
      <point x="224" y="-121" type="line"/>
      <point x="213" y="72" type="line"/>
      <point x="51" y="72" type="line"/>
    </contour>
    <contour>
      <point x="289" y="-121" type="line"/>
      <point x="473" y="-121" type="line"/>
      <point x="463" y="72" type="line"/>
      <point x="299" y="72" type="line"/>
    </contour>
    <contour>
      <point x="52" y="667" type="line"/>
      <point x="213" y="667" type="line"/>
      <point x="224" y="850" type="line"/>
      <point x="41" y="850" type="line"/>
    </contour>
  </outline>
</glyph>
<glyph name="_copyright.C" format="2">
  <advance width="600"/>
  <anchor x="304" y="365" name="_center"/>
  <outline>
    <contour>
      <point x="309" y="119" type="curve" smooth="yes"/>
      <point x="452" y="119"/>
      <point x="555" y="204"/>
      <point x="560" y="314" type="curve"/>
      <point x="386" y="314" type="line"/>
      <point x="379" y="278"/>
      <point x="347" y="262"/>
      <point x="309" y="262" type="curve" smooth="yes"/>
      <point x="260" y="262"/>
      <point x="222" y="287"/>
      <point x="222" y="340" type="curve" smooth="yes"/>
      <point x="222" y="388" type="line" smooth="yes"/>
      <point x="222" y="442"/>
      <point x="258" y="467"/>
      <point x="309" y="467" type="curve" smooth="yes"/>
      <point x="347" y="467"/>
      <point x="379" y="450"/>
      <point x="386" y="417" type="curve"/>
      <point x="560" y="417" type="line"/>
      <point x="555" y="524"/>
      <point x="452" y="610"/>
      <point x="309" y="610" type="curve" smooth="yes"/>
      <point x="145" y="610"/>
      <point x="40" y="513"/>
      <point x="40" y="366" type="curve" smooth="yes"/>
      <point x="40" y="364" type="line" smooth="yes"/>
      <point x="40" y="215"/>
      <point x="145" y="119"/>
    </contour>
  </outline>
</glyph>
<glyph name="_published.P" format="2">
  <advance width="535"/>
  <anchor x="241" y="365" name="_center"/>
  <outline>
    <contour>
      <point x="40" y="148" type="line"/>
      <point x="216" y="148" type="line"/>
      <point x="216" y="473" type="line"/>
      <point x="255" y="473" type="line" smooth="yes"/>
      <point x="296" y="473"/>
      <point x="319" y="465"/>
      <point x="319" y="435" type="curve" smooth="yes"/>
      <point x="319" y="409"/>
      <point x="307" y="393"/>
      <point x="255" y="393" type="curve" smooth="yes"/>
      <point x="195" y="393" type="line"/>
      <point x="195" y="293" type="line"/>
      <point x="293" y="293" type="line" smooth="yes"/>
      <point x="427" y="293"/>
      <point x="495" y="340"/>
      <point x="495" y="439" type="curve" smooth="yes"/>
      <point x="495" y="534"/>
      <point x="432" y="588"/>
      <point x="293" y="588" type="curve" smooth="yes"/>
      <point x="40" y="588" type="line"/>
    </contour>
  </outline>
</glyph>
<glyph name="_tail.Q" format="2">
  <advance width="537"/>
  <anchor x="157" y="0" name="_bottom"/>
  <outline>
    <contour>
      <point x="170" y="-176" type="curve" smooth="yes"/>
      <point x="497" y="-176" type="line"/>
      <point x="497" y="-24" type="line"/>
      <point x="273" y="-24" type="line"/>
      <point x="273" y="40" type="line"/>
      <point x="40" y="40" type="line"/>
      <point x="40" y="-68" type="line" smooth="yes"/>
      <point x="40" y="-137"/>
      <point x="86" y="-176"/>
    </contour>
  </outline>
</glyph>
<glyph name="_tail.Q.ss01" format="2">
  <advance width="567"/>
  <anchor x="48" y="0" name="_bottom"/>
  <outline>
    <contour>
      <point x="527" y="-22" type="line"/>
      <point x="527" y="168" type="line"/>
      <point x="40" y="328" type="line"/>
      <point x="40" y="137" type="line"/>
    </contour>
  </outline>
</glyph>
<glyph name="_yen.bars" format="2">
  <advance width="718"/>
  <anchor x="359" y="0" name="_bottom"/>
  <outline>
    <contour>
      <point x="40" y="276" type="line"/>
      <point x="678" y="276" type="line"/>
      <point x="678" y="413" type="line"/>
      <point x="40" y="413" type="line"/>
    </contour>
    <contour>
      <point x="40" y="80" type="line"/>
      <point x="678" y="80" type="line"/>
      <point x="678" y="217" type="line"/>
      <point x="40" y="217" type="line"/>
    </contour>
  </outline>
</glyph>
<glyph name="a.ss01" format="2">
  <advance width="727"/>
  <note>
a
</note>
  <anchor x="331" y="0" name="bottom"/>
  <anchor x="682" y="0" name="ogonek"/>
  <anchor x="361" y="545" name="top"/>
  <outline>
    <contour>
      <point x="235" y="-12" type="curve" smooth="yes"/>
      <point x="332" y="-12"/>
      <point x="415" y="21"/>
      <point x="447" y="68" type="curve"/>
      <point x="455" y="68" type="line"/>
      <point x="476" y="0" type="line"/>
      <point x="682" y="0" type="line"/>
      <point x="682" y="332" type="line" smooth="yes"/>
      <point x="682" y="480"/>
      <point x="573" y="558"/>
      <point x="366" y="558" type="curve" smooth="yes"/>
      <point x="168" y="558"/>
      <point x="40" y="483"/>
      <point x="24" y="357" type="curve"/>
      <point x="243" y="357" type="line"/>
      <point x="247" y="391"/>
      <point x="285" y="413"/>
      <point x="351" y="413" type="curve" smooth="yes"/>
      <point x="404" y="413"/>
      <point x="447" y="400"/>
      <point x="447" y="356" type="curve" smooth="yes"/>
      <point x="447" y="142" type="line"/>
      <point x="427" y="128"/>
      <point x="394" y="121"/>
      <point x="354" y="121" type="curve" smooth="yes"/>
      <point x="308" y="121"/>
      <point x="279" y="137"/>
      <point x="278" y="167" type="curve" smooth="yes"/>
      <point x="278" y="169" type="line" smooth="yes"/>
      <point x="278" y="205"/>
      <point x="306" y="226"/>
      <point x="378" y="226" type="curve" smooth="yes"/>
      <point x="463" y="226" type="line"/>
      <point x="463" y="330" type="line"/>
      <point x="322" y="330" type="line" smooth="yes"/>
      <point x="134" y="330"/>
      <point x="29" y="263"/>
      <point x="29" y="142" type="curve" smooth="yes"/>
      <point x="29" y="47"/>
      <point x="109" y="-12"/>
    </contour>
  </outline>
</glyph>
<glyph name="braceleft.case" format="2">
  <advance width="492"/>
  <outline>
    <contour>
      <point x="270" y="-63" type="curve" smooth="yes"/>
      <point x="458" y="-63" type="line"/>
      <point x="458" y="86" type="line"/>
      <point x="326" y="86" type="line"/>
      <point x="326" y="214" type="line" smooth="yes"/>
      <point x="326" y="290"/>
      <point x="309" y="340"/>
      <point x="236" y="369" type="curve"/>
      <point x="236" y="373" type="line"/>
      <point x="291" y="386"/>
      <point x="326" y="418"/>
      <point x="326" y="518" type="curve" smooth="yes"/>
      <point x="326" y="645" type="line"/>
      <point x="458" y="645" type="line"/>
      <point x="458" y="793" type="line"/>
      <point x="270" y="793" type="line" smooth="yes"/>
      <point x="174" y="793"/>
      <point x="130" y="734"/>
      <point x="130" y="655" type="curve" smooth="yes"/>
      <point x="130" y="529" type="line" smooth="yes"/>
      <point x="130" y="482"/>
      <point x="108" y="451"/>
      <point x="67" y="451" type="curve" smooth="yes"/>
      <point x="29" y="451" type="line"/>
      <point x="29" y="280" type="line"/>
      <point x="67" y="280" type="line" smooth="yes"/>
      <point x="105" y="280"/>
      <point x="130" y="250"/>
      <point x="130" y="201" type="curve" smooth="yes"/>
      <point x="130" y="77" type="line" smooth="yes"/>
      <point x="130" y="-4"/>
      <point x="174" y="-63"/>
    </contour>
  </outline>
</glyph>
<glyph name="bracketleft.case" format="2">
  <advance width="424"/>
  <outline>
    <contour>
      <point x="54" y="-63" type="line"/>
      <point x="388" y="-63" type="line"/>
      <point x="388" y="95" type="line"/>
      <point x="251" y="95" type="line"/>
      <point x="251" y="635" type="line"/>
      <point x="388" y="635" type="line"/>
      <point x="388" y="793" type="line"/>
      <point x="54" y="793" type="line"/>
    </contour>
  </outline>
</glyph>
<glyph name="brevecomb_acutecomb" format="2">
  <anchor x="268" y="545" name="_top"/>
  <outline>
    <contour>
      <point x="267" y="576" type="curve" smooth="yes"/>
      <point x="405" y="576"/>
      <point x="488" y="630"/>
      <point x="493" y="714" type="curve"/>
      <point x="321" y="714" type="line"/>
      <point x="320" y="696"/>
      <point x="300" y="684"/>
      <point x="267" y="684" type="curve" smooth="yes"/>
      <point x="235" y="684"/>
      <point x="214" y="696"/>
      <point x="213" y="714" type="curve"/>
      <point x="40" y="714" type="line"/>
      <point x="46" y="624"/>
      <point x="137" y="576"/>
    </contour>
    <contour>
      <point x="184" y="740" type="line"/>
      <point x="361" y="740" type="line"/>
      <point x="459" y="856" type="line"/>
      <point x="252" y="856" type="line"/>
    </contour>
  </outline>
</glyph>
<glyph name="brevecomb_gravecomb" format="2">
  <anchor x="266" y="545" name="_top"/>
  <outline>
    <contour>
      <point x="267" y="576" type="curve" smooth="yes"/>
      <point x="397" y="576"/>
      <point x="488" y="624"/>
      <point x="493" y="714" type="curve"/>
      <point x="321" y="714" type="line"/>
      <point x="320" y="695"/>
      <point x="297" y="684"/>
      <point x="267" y="684" type="curve" smooth="yes"/>
      <point x="236" y="684"/>
      <point x="214" y="695"/>
      <point x="213" y="714" type="curve"/>
      <point x="40" y="714" type="line"/>
      <point x="46" y="631"/>
      <point x="125" y="576"/>
    </contour>
    <contour>
      <point x="185" y="740" type="line"/>
      <point x="363" y="740" type="line"/>
      <point x="295" y="856" type="line"/>
      <point x="87" y="856" type="line"/>
    </contour>
  </outline>
</glyph>
<glyph name="brevecomb_hookabovecomb" format="2">
  <anchor x="266" y="545" name="_top"/>
  <outline>
    <contour>
      <point x="267" y="576" type="curve" smooth="yes"/>
      <point x="399" y="576"/>
      <point x="488" y="626"/>
      <point x="493" y="702" type="curve"/>
      <point x="321" y="702" type="line"/>
      <point x="320" y="684"/>
      <point x="297" y="673"/>
      <point x="267" y="673" type="curve" smooth="yes"/>
      <point x="236" y="673"/>
      <point x="214" y="684"/>
      <point x="213" y="702" type="curve"/>
      <point x="40" y="702" type="line"/>
      <point x="46" y="626"/>
      <point x="137" y="576"/>
    </contour>
    <contour>
      <point x="259" y="700" type="line"/>
      <point x="359" y="722"/>
      <point x="407" y="756"/>
      <point x="407" y="813" type="curve" smooth="yes"/>
      <point x="407" y="873"/>
      <point x="349" y="898"/>
      <point x="254" y="898" type="curve" smooth="yes"/>
      <point x="225" y="898"/>
      <point x="194" y="895"/>
      <point x="167" y="891" type="curve"/>
      <point x="167" y="813" type="line"/>
      <point x="178" y="814"/>
      <point x="193" y="815"/>
      <point x="210" y="815" type="curve" smooth="yes"/>
      <point x="233" y="815"/>
      <point x="251" y="813"/>
      <point x="251" y="797" type="curve" smooth="yes"/>
      <point x="251" y="786"/>
      <point x="239" y="777"/>
      <point x="204" y="766" type="curve"/>
    </contour>
  </outline>
</glyph>
<glyph name="brevecomb_tildecomb" format="2">
  <anchor x="269" y="545" name="_top"/>
  <outline>
    <contour>
      <point x="267" y="577" type="curve" smooth="yes"/>
      <point x="399" y="577"/>
      <point x="491" y="624"/>
      <point x="497" y="714" type="curve"/>
      <point x="323" y="714" type="line"/>
      <point x="323" y="697"/>
      <point x="300" y="685"/>
      <point x="267" y="685" type="curve" smooth="yes"/>
      <point x="236" y="685"/>
      <point x="212" y="696"/>
      <point x="211" y="714" type="curve"/>
      <point x="40" y="714" type="line"/>
      <point x="46" y="630"/>
      <point x="128" y="577"/>
    </contour>
    <contour>
      <point x="349" y="740" type="curve" smooth="yes"/>
      <point x="429" y="740"/>
      <point x="472" y="787"/>
      <point x="466" y="867" type="curve"/>
      <point x="400" y="867" type="line"/>
      <point x="401" y="846"/>
      <point x="387" y="835"/>
      <point x="359" y="835" type="curve" smooth="yes"/>
      <point x="304" y="835"/>
      <point x="253" y="870"/>
      <point x="183" y="870" type="curve" smooth="yes"/>
      <point x="107" y="870"/>
      <point x="65" y="824"/>
      <point x="70" y="744" type="curve"/>
      <point x="137" y="744" type="line"/>
      <point x="136" y="764"/>
      <point x="149" y="778"/>
      <point x="172" y="778" type="curve" smooth="yes"/>
      <point x="217" y="778"/>
      <point x="271" y="740"/>
    </contour>
  </outline>
</glyph>
<glyph name="caroncomb.alt.t" format="2">
  <anchor x="40" y="556" name="_topright"/>
  <outline>
    <contour>
      <point x="40" y="477" type="line"/>
      <point x="211" y="477" type="line"/>
      <point x="263" y="622" type="line"/>
      <point x="74" y="622" type="line"/>
    </contour>
  </outline>
</glyph>
<glyph name="circumflexcomb_acutecomb" format="2">
  <anchor x="296" y="545" name="_top"/>
  <outline>
    <contour>
      <point x="40" y="585" type="line"/>
      <point x="240" y="585" type="line"/>
      <point x="295" y="631" type="line"/>
      <point x="350" y="585" type="line"/>
      <point x="549" y="585" type="line"/>
      <point x="415" y="714" type="line"/>
      <point x="176" y="714" type="line"/>
    </contour>
    <contour>
      <point x="207" y="738" type="line"/>
      <point x="383" y="738" type="line"/>
      <point x="479" y="857" type="line"/>
      <point x="272" y="857" type="line"/>
    </contour>
  </outline>
</glyph>
<glyph name="circumflexcomb_hookabovecomb" format="2">
  <anchor x="296" y="545" name="_top"/>
  <anchor x="296" y="861" name="top"/>
  <outline>
    <contour>
      <point x="40" y="585" type="line"/>
      <point x="240" y="585" type="line"/>
      <point x="296" y="631" type="line"/>
      <point x="352" y="585" type="line"/>
      <point x="553" y="585" type="line"/>
      <point x="416" y="714" type="line"/>
      <point x="177" y="714" type="line"/>
    </contour>
    <contour>
      <point x="528" y="650" type="line"/>
      <point x="620" y="674"/>
      <point x="665" y="713"/>
      <point x="665" y="765" type="curve" smooth="yes"/>
      <point x="665" y="830"/>
      <point x="598" y="861"/>
      <point x="508" y="861" type="curve" smooth="yes"/>
      <point x="478" y="861"/>
      <point x="447" y="858"/>
      <point x="419" y="853" type="curve"/>
      <point x="419" y="769" type="line"/>
      <point x="433" y="771"/>
      <point x="448" y="772"/>
      <point x="460" y="772" type="curve" smooth="yes"/>
      <point x="481" y="772"/>
      <point x="501" y="771"/>
      <point x="501" y="752" type="curve" smooth="yes"/>
      <point x="501" y="743"/>
      <point x="494" y="732"/>
      <point x="462" y="720" type="curve"/>
    </contour>
  </outline>
</glyph>
<glyph name="circumflexcomb_tildecomb" format="2">
  <anchor x="295" y="545" name="_top"/>
  <anchor x="295" y="886" name="top"/>
  <outline>
    <contour>
      <point x="40" y="585" type="line"/>
      <point x="240" y="585" type="line"/>
      <point x="295" y="631" type="line"/>
      <point x="350" y="585" type="line"/>
      <point x="549" y="585" type="line"/>
      <point x="415" y="714" type="line"/>
      <point x="176" y="714" type="line"/>
    </contour>
    <contour>
      <point x="375" y="740" type="curve" smooth="yes"/>
      <point x="455" y="740"/>
      <point x="498" y="787"/>
      <point x="492" y="867" type="curve"/>
      <point x="426" y="867" type="line"/>
      <point x="427" y="846"/>
      <point x="413" y="835"/>
      <point x="385" y="835" type="curve" smooth="yes"/>
      <point x="330" y="835"/>
      <point x="279" y="870"/>
      <point x="209" y="870" type="curve" smooth="yes"/>
      <point x="133" y="870"/>
      <point x="91" y="824"/>
      <point x="96" y="744" type="curve"/>
      <point x="163" y="744" type="line"/>
      <point x="162" y="764"/>
      <point x="175" y="778"/>
      <point x="198" y="778" type="curve" smooth="yes"/>
      <point x="243" y="778"/>
      <point x="297" y="740"/>
    </contour>
  </outline>
</glyph>
<glyph name="comma.ss01" format="2">
  <advance width="300"/>
  <anchor x="-6" y="0" name="#entry"/>
  <anchor x="284" y="0" name="#exit"/>
  <anchor x="148" y="545" name="top"/>
  <outline>
    <contour>
      <point x="41" y="-159" type="line"/>
      <point x="175" y="-159" type="line"/>
      <point x="246" y="-19" type="line" smooth="yes"/>
      <point x="268" y="24"/>
      <point x="279" y="58"/>
      <point x="279" y="90" type="curve" smooth="yes"/>
      <point x="279" y="154"/>
      <point x="230" y="191"/>
      <point x="148" y="191" type="curve" smooth="yes"/>
      <point x="65" y="191"/>
      <point x="17" y="154"/>
      <point x="17" y="91" type="curve" smooth="yes"/>
      <point x="17" y="32"/>
      <point x="65" y="-3"/>
      <point x="135" y="1" type="curve"/>
      <point x="129" y="12" type="line"/>
    </contour>
  </outline>
</glyph>
